M48
; DRILL file KiCad 10.0.3 date 2026-06-28T21:44:48
; FORMAT={-:-/ absolute / metric / decimal}
; #@! TF.CreationDate,2026-06-28T21:44:48-04:00
; #@! TF.GenerationSoftware,Kicad,Pcbnew,10.0.3
; #@! TF.FileFunction,MixedPlating,1,2
FMAT,2
METRIC
; #@! TA.AperFunction,Plated,PTH,ComponentDrill
T1C0.200
; #@! TA.AperFunction,Plated,PTH,ViaDrill
T2C0.300
; #@! TA.AperFunction,Plated,PTH,ComponentDrill
T3C0.600
; #@! TA.AperFunction,Plated,PTH,ComponentDrill
T4C0.700
; #@! TA.AperFunction,Plated,PTH,ComponentDrill
T5C0.900
; #@! TA.AperFunction,NonPlated,NPTH,ComponentDrill
T6C0.650
%
G90
G05
T1
X150.1Y-103.84
X150.1Y-105.24
X150.8Y-103.14
X150.8Y-104.54
X150.8Y-105.94
X151.5Y-103.84
X151.5Y-105.24
X152.2Y-103.14
X152.2Y-104.54
X152.2Y-105.94
X152.9Y-103.84
X152.9Y-105.24
T2
X99.126Y-82.392
X99.331Y-50.296
X102.634Y-47.642
X111.034Y-82.392
X112.062Y-48.201
X118.361Y-51.836
X122.028Y-73.247
X122.962Y-107.749
X125.916Y-103.763
X126.947Y-104.346
X126.959Y-80.0
X127.028Y-73.966
X129.282Y-71.734
X131.644Y-97.822
X138.317Y-62.177
X138.924Y-83.742
X139.854Y-109.379
X139.857Y-105.989
X140.099Y-64.978
X141.087Y-68.911
X149.547Y-68.118
X150.17Y-71.014
X152.278Y-50.519
X153.122Y-68.789
X154.683Y-96.124
X155.455Y-52.151
X155.674Y-95.929
X155.881Y-67.336
X157.466Y-99.659
X158.434Y-77.004
X158.761Y-65.973
X159.21Y-65.148
X160.54Y-48.154
X161.657Y-56.141
X162.133Y-62.177
X166.117Y-91.881
X167.609Y-47.681
X169.402Y-53.266
X170.758Y-49.156
X175.477Y-63.662
X175.548Y-62.769
X184.178Y-71.382
X185.374Y-77.361
X187.948Y-97.822
X197.814Y-93.875
T4
X199.0Y-58.0
X204.08Y-58.0
T5
X124.0Y-95.0
X126.54Y-95.0
X136.0Y-95.0
X138.54Y-95.0
X164.0Y-95.0
X166.54Y-95.0
X174.0Y-95.0
X176.54Y-95.0
T6
X98.11Y-47.4
X103.89Y-47.4
T3
X96.68Y-46.32G85X96.68Y-47.42
G05
X96.68Y-50.75G85X96.68Y-51.35
G05
X105.32Y-46.32G85X105.32Y-47.42
G05
X105.32Y-50.75G85X105.32Y-51.35
G05
M30
