%TF.GenerationSoftware,KiCad,Pcbnew,10.0.3*%
%TF.CreationDate,2026-06-28T21:44:47-04:00*%
%TF.ProjectId,SEWCS_Commercial_v1,53455743-535f-4436-9f6d-6d6572636961,rev?*%
%TF.SameCoordinates,Original*%
%TF.FileFunction,Copper,L1,Top*%
%TF.FilePolarity,Positive*%
%FSLAX46Y46*%
G04 Gerber Fmt 4.6, Leading zero omitted, Abs format (unit mm)*
G04 Created by KiCad (PCBNEW 10.0.3) date 2026-06-28 21:44:47*
%MOMM*%
%LPD*%
G01*
G04 APERTURE LIST*
G04 Aperture macros list*
%AMRoundRect*
0 Rectangle with rounded corners*
0 $1 Rounding radius*
0 $2 $3 $4 $5 $6 $7 $8 $9 X,Y pos of 4 corners*
0 Add a 4 corners polygon primitive as box body*
4,1,4,$2,$3,$4,$5,$6,$7,$8,$9,$2,$3,0*
0 Add four circle primitives for the rounded corners*
1,1,$1+$1,$2,$3*
1,1,$1+$1,$4,$5*
1,1,$1+$1,$6,$7*
1,1,$1+$1,$8,$9*
0 Add four rect primitives between the rounded corners*
20,1,$1+$1,$2,$3,$4,$5,0*
20,1,$1+$1,$4,$5,$6,$7,0*
20,1,$1+$1,$6,$7,$8,$9,0*
20,1,$1+$1,$8,$9,$2,$3,0*%
G04 Aperture macros list end*
%TA.AperFunction,SMDPad,CuDef*%
%ADD10RoundRect,0.250000X-0.250000X-0.475000X0.250000X-0.475000X0.250000X0.475000X-0.250000X0.475000X0*%
%TD*%
%TA.AperFunction,SMDPad,CuDef*%
%ADD11RoundRect,0.150000X-0.587500X-0.150000X0.587500X-0.150000X0.587500X0.150000X-0.587500X0.150000X0*%
%TD*%
%TA.AperFunction,SMDPad,CuDef*%
%ADD12RoundRect,0.250000X-0.262500X-0.450000X0.262500X-0.450000X0.262500X0.450000X-0.262500X0.450000X0*%
%TD*%
%TA.AperFunction,SMDPad,CuDef*%
%ADD13R,1.500000X0.900000*%
%TD*%
%TA.AperFunction,SMDPad,CuDef*%
%ADD14R,0.900000X1.500000*%
%TD*%
%TA.AperFunction,HeatsinkPad*%
%ADD15R,0.900000X0.900000*%
%TD*%
%TA.AperFunction,HeatsinkPad*%
%ADD16C,0.600000*%
%TD*%
%TA.AperFunction,SMDPad,CuDef*%
%ADD17RoundRect,0.250000X-0.525000X-0.400000X0.525000X-0.400000X0.525000X0.400000X-0.525000X0.400000X0*%
%TD*%
%TA.AperFunction,ComponentPad*%
%ADD18R,1.800000X1.800000*%
%TD*%
%TA.AperFunction,ComponentPad*%
%ADD19C,1.800000*%
%TD*%
%TA.AperFunction,SMDPad,CuDef*%
%ADD20RoundRect,0.150000X-0.825000X-0.150000X0.825000X-0.150000X0.825000X0.150000X-0.825000X0.150000X0*%
%TD*%
%TA.AperFunction,SMDPad,CuDef*%
%ADD21RoundRect,0.375000X-0.625000X-0.375000X0.625000X-0.375000X0.625000X0.375000X-0.625000X0.375000X0*%
%TD*%
%TA.AperFunction,SMDPad,CuDef*%
%ADD22RoundRect,0.500000X-0.500000X-1.400000X0.500000X-1.400000X0.500000X1.400000X-0.500000X1.400000X0*%
%TD*%
%TA.AperFunction,SMDPad,CuDef*%
%ADD23RoundRect,0.087500X-0.662500X-0.087500X0.662500X-0.087500X0.662500X0.087500X-0.662500X0.087500X0*%
%TD*%
%TA.AperFunction,SMDPad,CuDef*%
%ADD24RoundRect,0.125000X-0.687500X-0.125000X0.687500X-0.125000X0.687500X0.125000X-0.687500X0.125000X0*%
%TD*%
%TA.AperFunction,ComponentPad*%
%ADD25O,1.600000X1.200000*%
%TD*%
%TA.AperFunction,ComponentPad*%
%ADD26C,1.200000*%
%TD*%
%TA.AperFunction,SMDPad,CuDef*%
%ADD27RoundRect,0.243750X-0.243750X-0.456250X0.243750X-0.456250X0.243750X0.456250X-0.243750X0.456250X0*%
%TD*%
%TA.AperFunction,SMDPad,CuDef*%
%ADD28RoundRect,0.150000X-0.150000X-0.575000X0.150000X-0.575000X0.150000X0.575000X-0.150000X0.575000X0*%
%TD*%
%TA.AperFunction,SMDPad,CuDef*%
%ADD29RoundRect,0.075000X-0.075000X-0.650000X0.075000X-0.650000X0.075000X0.650000X-0.075000X0.650000X0*%
%TD*%
%TA.AperFunction,ComponentPad*%
%ADD30O,1.000000X2.100000*%
%TD*%
%TA.AperFunction,ComponentPad*%
%ADD31O,1.000000X1.600000*%
%TD*%
%TA.AperFunction,ViaPad*%
%ADD32C,0.600000*%
%TD*%
%TA.AperFunction,Conductor*%
%ADD33C,0.200000*%
%TD*%
G04 APERTURE END LIST*
D10*
%TO.P,C13,1*%
%TO.N,EN*%
X111050000Y-106000000D03*
%TO.P,C13,2*%
%TO.N,GND*%
X112950000Y-106000000D03*
%TD*%
D11*
%TO.P,Q2,1*%
%TO.N,GND*%
X99062500Y-61050000D03*
%TO.P,Q2,2*%
%TO.N,Q2_GATE*%
X99062500Y-62950000D03*
%TO.P,Q2,3*%
%TO.N,LED1085_K*%
X100937500Y-62000000D03*
%TD*%
D12*
%TO.P,R3,1*%
%TO.N,+3V3*%
X159087500Y-62000000D03*
%TO.P,R3,2*%
%TO.N,LED1300_A*%
X160912500Y-62000000D03*
%TD*%
D10*
%TO.P,C12,1*%
%TO.N,+3V3*%
X99050000Y-106000000D03*
%TO.P,C12,2*%
%TO.N,GND*%
X100950000Y-106000000D03*
%TD*%
D12*
%TO.P,R13,1*%
%TO.N,+3V3*%
X183087500Y-73000000D03*
%TO.P,R13,2*%
%TO.N,IO0*%
X184912500Y-73000000D03*
%TD*%
%TO.P,R5,1*%
%TO.N,GPIO17*%
X183087500Y-62000000D03*
%TO.P,R5,2*%
%TO.N,Q1_GATE*%
X184912500Y-62000000D03*
%TD*%
D13*
%TO.P,U3,1*%
%TO.N,N/C*%
X158750000Y-112260000D03*
%TO.P,U3,2*%
%TO.N,+3V3*%
X158750000Y-110990000D03*
%TO.P,U3,3*%
%TO.N,EN*%
X158750000Y-109720000D03*
%TO.P,U3,4*%
%TO.N,N/C*%
X158750000Y-108450000D03*
%TO.P,U3,5*%
X158750000Y-107180000D03*
%TO.P,U3,6*%
X158750000Y-105910000D03*
%TO.P,U3,7*%
X158750000Y-104640000D03*
%TO.P,U3,8*%
X158750000Y-103370000D03*
%TO.P,U3,9*%
X158750000Y-102100000D03*
%TO.P,U3,10*%
X158750000Y-100830000D03*
%TO.P,U3,11*%
X158750000Y-99560000D03*
%TO.P,U3,12*%
%TO.N,GPIO27*%
X158750000Y-98290000D03*
%TO.P,U3,13*%
%TO.N,N/C*%
X158750000Y-97020000D03*
%TO.P,U3,14*%
X158750000Y-95750000D03*
D14*
%TO.P,U3,15*%
X155715000Y-94500000D03*
%TO.P,U3,16*%
X154445000Y-94500000D03*
%TO.P,U3,17*%
X153175000Y-94500000D03*
%TO.P,U3,18*%
X151905000Y-94500000D03*
%TO.P,U3,19*%
X150635000Y-94500000D03*
%TO.P,U3,20*%
X149365000Y-94500000D03*
%TO.P,U3,21*%
X148095000Y-94500000D03*
%TO.P,U3,22*%
X146825000Y-94500000D03*
%TO.P,U3,23*%
X145555000Y-94500000D03*
%TO.P,U3,24*%
X144285000Y-94500000D03*
D13*
%TO.P,U3,25*%
%TO.N,IO0*%
X141250000Y-95750000D03*
%TO.P,U3,26*%
%TO.N,N/C*%
X141250000Y-97020000D03*
%TO.P,U3,27*%
X141250000Y-98290000D03*
%TO.P,U3,28*%
%TO.N,GPIO17*%
X141250000Y-99560000D03*
%TO.P,U3,29*%
%TO.N,N/C*%
X141250000Y-100830000D03*
%TO.P,U3,30*%
X141250000Y-102100000D03*
%TO.P,U3,31*%
%TO.N,I2C_SCL*%
X141250000Y-103370000D03*
%TO.P,U3,32*%
%TO.N,N/C*%
X141250000Y-104640000D03*
%TO.P,U3,33*%
%TO.N,I2C_SDA*%
X141250000Y-105910000D03*
%TO.P,U3,34*%
%TO.N,ESP_RX*%
X141250000Y-107180000D03*
%TO.P,U3,35*%
%TO.N,ESP_TX*%
X141250000Y-108450000D03*
%TO.P,U3,36*%
%TO.N,GPIO22*%
X141250000Y-109720000D03*
%TO.P,U3,37*%
%TO.N,GPIO23*%
X141250000Y-110990000D03*
%TO.P,U3,38*%
%TO.N,N/C*%
X141250000Y-112260000D03*
D15*
%TO.P,U3,39*%
X152900000Y-105940000D03*
D16*
X152900000Y-105240000D03*
D15*
X152900000Y-104540000D03*
D16*
X152900000Y-103840000D03*
D15*
X152900000Y-103140000D03*
D16*
X152200000Y-105940000D03*
X152200000Y-104540000D03*
X152200000Y-103140000D03*
D15*
X151500000Y-105940000D03*
D16*
X151500000Y-105240000D03*
D15*
X151500000Y-104540000D03*
D16*
X151500000Y-103840000D03*
D15*
X151500000Y-103140000D03*
D16*
X150800000Y-105940000D03*
X150800000Y-104540000D03*
X150800000Y-103140000D03*
D15*
X150100000Y-105940000D03*
D16*
X150100000Y-105240000D03*
D15*
X150100000Y-104540000D03*
D16*
X150100000Y-103840000D03*
D15*
X150100000Y-103140000D03*
%TD*%
D10*
%TO.P,C7,1*%
%TO.N,+3V3*%
X111050000Y-95000000D03*
%TO.P,C7,2*%
%TO.N,GND*%
X112950000Y-95000000D03*
%TD*%
D17*
%TO.P,SW2,1*%
%TO.N,IO0*%
X192020000Y-70750000D03*
X199980000Y-70750000D03*
%TO.P,SW2,2*%
%TO.N,GND*%
X192020000Y-75250000D03*
X199980000Y-75250000D03*
%TD*%
D12*
%TO.P,R8,1*%
%TO.N,GPIO23*%
X123087500Y-73000000D03*
%TO.P,R8,2*%
%TO.N,Q4_GATE*%
X124912500Y-73000000D03*
%TD*%
D18*
%TO.P,D1,1*%
%TO.N,LED910_K*%
X124000000Y-95000000D03*
D19*
%TO.P,D1,2*%
%TO.N,LED910_A*%
X126540000Y-95000000D03*
%TD*%
D12*
%TO.P,R15,1*%
%TO.N,CC2*%
X111087500Y-84000000D03*
%TO.P,R15,2*%
%TO.N,GND*%
X112912500Y-84000000D03*
%TD*%
D10*
%TO.P,C2,1*%
%TO.N,+3V3*%
X147050000Y-84000000D03*
%TO.P,C2,2*%
%TO.N,GND*%
X148950000Y-84000000D03*
%TD*%
D12*
%TO.P,R7,1*%
%TO.N,GPIO22*%
X111087500Y-73000000D03*
%TO.P,R7,2*%
%TO.N,Q3_GATE*%
X112912500Y-73000000D03*
%TD*%
D20*
%TO.P,U4,1*%
%TO.N,GND*%
X110525000Y-45555000D03*
%TO.P,U4,2*%
%TO.N,ESP_RX*%
X110525000Y-46825000D03*
%TO.P,U4,3*%
%TO.N,ESP_TX*%
X110525000Y-48095000D03*
%TO.P,U4,4*%
%TO.N,V3_CH340*%
X110525000Y-49365000D03*
%TO.P,U4,5*%
%TO.N,USB_DP*%
X110525000Y-50635000D03*
%TO.P,U4,6*%
%TO.N,USB_DM*%
X110525000Y-51905000D03*
%TO.P,U4,7*%
%TO.N,N/C*%
X110525000Y-53175000D03*
%TO.P,U4,8*%
X110525000Y-54445000D03*
%TO.P,U4,9*%
X115475000Y-54445000D03*
%TO.P,U4,10*%
X115475000Y-53175000D03*
%TO.P,U4,11*%
X115475000Y-51905000D03*
%TO.P,U4,12*%
X115475000Y-50635000D03*
%TO.P,U4,13*%
X115475000Y-49365000D03*
%TO.P,U4,14*%
X115475000Y-48095000D03*
%TO.P,U4,15*%
X115475000Y-46825000D03*
%TO.P,U4,16*%
%TO.N,+5V*%
X115475000Y-45555000D03*
%TD*%
D10*
%TO.P,C9,1*%
%TO.N,-3V3*%
X205050000Y-84000000D03*
%TO.P,C9,2*%
%TO.N,GND*%
X206950000Y-84000000D03*
%TD*%
D12*
%TO.P,R12,1*%
%TO.N,+3V3*%
X171087500Y-73000000D03*
%TO.P,R12,2*%
%TO.N,EN*%
X172912500Y-73000000D03*
%TD*%
D10*
%TO.P,C14,1*%
%TO.N,V3_CH340*%
X205050000Y-95000000D03*
%TO.P,C14,2*%
%TO.N,GND*%
X206950000Y-95000000D03*
%TD*%
D12*
%TO.P,R6,1*%
%TO.N,GPIO27*%
X99087500Y-73000000D03*
%TO.P,R6,2*%
%TO.N,Q2_GATE*%
X100912500Y-73000000D03*
%TD*%
D21*
%TO.P,U5,1*%
%TO.N,GND*%
X123850000Y-46700000D03*
%TO.P,U5,2*%
%TO.N,+3V3*%
X123850000Y-49000000D03*
D22*
X130150000Y-49000000D03*
D21*
%TO.P,U5,3*%
%TO.N,+5V*%
X123850000Y-51300000D03*
%TD*%
D12*
%TO.P,R9,1*%
%TO.N,PD_SIG*%
X135087500Y-73000000D03*
%TO.P,R9,2*%
%TO.N,TIA_OUT*%
X136912500Y-73000000D03*
%TD*%
D23*
%TO.P,U2,1*%
%TO.N,GND*%
X164900000Y-48000000D03*
%TO.P,U2,2*%
%TO.N,N/C*%
X164900000Y-48500000D03*
%TO.P,U2,3*%
%TO.N,GND*%
X164900000Y-49000000D03*
%TO.P,U2,4*%
%TO.N,TIA_OUT*%
X164900000Y-49500000D03*
%TO.P,U2,5*%
%TO.N,N/C*%
X164900000Y-50000000D03*
%TO.P,U2,6*%
X169100000Y-50000000D03*
%TO.P,U2,7*%
X169100000Y-49500000D03*
%TO.P,U2,8*%
%TO.N,+3V3*%
X169100000Y-49000000D03*
%TO.P,U2,9*%
%TO.N,I2C_SDA*%
X169100000Y-48500000D03*
%TO.P,U2,10*%
%TO.N,I2C_SCL*%
X169100000Y-48000000D03*
%TD*%
D24*
%TO.P,U1,1*%
%TO.N,GND*%
X149887500Y-48025000D03*
%TO.P,U1,2*%
%TO.N,PD_SIG*%
X149887500Y-48675000D03*
%TO.P,U1,3*%
%TO.N,+3V3*%
X149887500Y-49325000D03*
%TO.P,U1,4*%
%TO.N,-3V3*%
X149887500Y-49975000D03*
%TO.P,U1,5*%
%TO.N,TIA_OUT*%
X154112500Y-49975000D03*
%TO.P,U1,6*%
%TO.N,N/C*%
X154112500Y-49325000D03*
%TO.P,U1,7*%
X154112500Y-48675000D03*
%TO.P,U1,8*%
X154112500Y-48025000D03*
%TD*%
D10*
%TO.P,C10,1*%
%TO.N,+3V3*%
X183050000Y-95000000D03*
%TO.P,C10,2*%
%TO.N,GND*%
X184950000Y-95000000D03*
%TD*%
%TO.P,C8,1*%
%TO.N,CP_PLUS*%
X195050000Y-84000000D03*
%TO.P,C8,2*%
%TO.N,CP_MINUS*%
X196950000Y-84000000D03*
%TD*%
D12*
%TO.P,R2,1*%
%TO.N,+3V3*%
X147087500Y-62000000D03*
%TO.P,R2,2*%
%TO.N,LED1085_A*%
X148912500Y-62000000D03*
%TD*%
D11*
%TO.P,Q4,1*%
%TO.N,GND*%
X123062500Y-61050000D03*
%TO.P,Q4,2*%
%TO.N,Q4_GATE*%
X123062500Y-62950000D03*
%TO.P,Q4,3*%
%TO.N,LED1600_K*%
X124937500Y-62000000D03*
%TD*%
D10*
%TO.P,C11,1*%
%TO.N,+3V3*%
X195050000Y-95000000D03*
%TO.P,C11,2*%
%TO.N,GND*%
X196950000Y-95000000D03*
%TD*%
D25*
%TO.P,D5,1*%
%TO.N,PD_SIG*%
X199000000Y-58000000D03*
D26*
%TO.P,D5,2*%
%TO.N,GND*%
X204080000Y-58000000D03*
%TD*%
D17*
%TO.P,SW1,1*%
%TO.N,EN*%
X192020000Y-103750000D03*
X199980000Y-103750000D03*
%TO.P,SW1,2*%
%TO.N,GND*%
X192020000Y-108250000D03*
X199980000Y-108250000D03*
%TD*%
D10*
%TO.P,C6,1*%
%TO.N,+3V3*%
X99050000Y-95000000D03*
%TO.P,C6,2*%
%TO.N,GND*%
X100950000Y-95000000D03*
%TD*%
D12*
%TO.P,R1,1*%
%TO.N,+3V3*%
X135087500Y-62000000D03*
%TO.P,R1,2*%
%TO.N,LED910_A*%
X136912500Y-62000000D03*
%TD*%
D11*
%TO.P,Q3,1*%
%TO.N,GND*%
X111062500Y-61050000D03*
%TO.P,Q3,2*%
%TO.N,Q3_GATE*%
X111062500Y-62950000D03*
%TO.P,Q3,3*%
%TO.N,LED1300_K*%
X112937500Y-62000000D03*
%TD*%
%TO.P,Q1,1*%
%TO.N,GND*%
X180062500Y-48050000D03*
%TO.P,Q1,2*%
%TO.N,Q1_GATE*%
X180062500Y-49950000D03*
%TO.P,Q1,3*%
%TO.N,LED910_K*%
X181937500Y-49000000D03*
%TD*%
D18*
%TO.P,D2,1*%
%TO.N,LED1085_K*%
X136000000Y-95000000D03*
D19*
%TO.P,D2,2*%
%TO.N,LED1085_A*%
X138540000Y-95000000D03*
%TD*%
D18*
%TO.P,D4,1*%
%TO.N,LED1600_K*%
X174000000Y-95000000D03*
D19*
%TO.P,D4,2*%
%TO.N,LED1600_A*%
X176540000Y-95000000D03*
%TD*%
D10*
%TO.P,C1,1*%
%TO.N,PD_SIG*%
X135050000Y-84000000D03*
%TO.P,C1,2*%
%TO.N,TIA_OUT*%
X136950000Y-84000000D03*
%TD*%
D12*
%TO.P,R11,1*%
%TO.N,+3V3*%
X159087500Y-73000000D03*
%TO.P,R11,2*%
%TO.N,I2C_SCL*%
X160912500Y-73000000D03*
%TD*%
D20*
%TO.P,U6,1*%
%TO.N,N/C*%
X137525000Y-47095000D03*
%TO.P,U6,2*%
%TO.N,CP_PLUS*%
X137525000Y-48365000D03*
%TO.P,U6,3*%
%TO.N,GND*%
X137525000Y-49635000D03*
%TO.P,U6,4*%
%TO.N,CP_MINUS*%
X137525000Y-50905000D03*
%TO.P,U6,5*%
%TO.N,-3V3*%
X142475000Y-50905000D03*
%TO.P,U6,6*%
%TO.N,GND*%
X142475000Y-49635000D03*
%TO.P,U6,7*%
%TO.N,N/C*%
X142475000Y-48365000D03*
%TO.P,U6,8*%
%TO.N,+3V3*%
X142475000Y-47095000D03*
%TD*%
D12*
%TO.P,R10,1*%
%TO.N,+3V3*%
X147087500Y-73000000D03*
%TO.P,R10,2*%
%TO.N,I2C_SDA*%
X148912500Y-73000000D03*
%TD*%
D10*
%TO.P,C4,1*%
%TO.N,+3V3*%
X171050000Y-84000000D03*
%TO.P,C4,2*%
%TO.N,GND*%
X172950000Y-84000000D03*
%TD*%
%TO.P,C5,1*%
%TO.N,+5V*%
X183050000Y-84000000D03*
%TO.P,C5,2*%
%TO.N,GND*%
X184950000Y-84000000D03*
%TD*%
D18*
%TO.P,D3,1*%
%TO.N,LED1300_K*%
X164000000Y-95000000D03*
D19*
%TO.P,D3,2*%
%TO.N,LED1300_A*%
X166540000Y-95000000D03*
%TD*%
D12*
%TO.P,R14,1*%
%TO.N,CC1*%
X99087500Y-84000000D03*
%TO.P,R14,2*%
%TO.N,GND*%
X100912500Y-84000000D03*
%TD*%
D10*
%TO.P,C3,1*%
%TO.N,+3V3*%
X159050000Y-84000000D03*
%TO.P,C3,2*%
%TO.N,GND*%
X160950000Y-84000000D03*
%TD*%
%TO.P,C15,1*%
%TO.N,+5V*%
X205050000Y-106000000D03*
%TO.P,C15,2*%
%TO.N,GND*%
X206950000Y-106000000D03*
%TD*%
D12*
%TO.P,R16,1*%
%TO.N,+3V3*%
X123087500Y-84000000D03*
%TO.P,R16,2*%
%TO.N,PWR_LED*%
X124912500Y-84000000D03*
%TD*%
D27*
%TO.P,D6,1*%
%TO.N,GND*%
X183062500Y-106000000D03*
%TO.P,D6,2*%
%TO.N,PWR_LED*%
X184937500Y-106000000D03*
%TD*%
D28*
%TO.P,J3,A1*%
%TO.N,GND*%
X97750000Y-45955000D03*
%TO.P,J3,A4*%
%TO.N,+5V*%
X98550000Y-45955000D03*
D29*
%TO.P,J3,A5*%
%TO.N,CC1*%
X99750000Y-45955000D03*
%TO.P,J3,A6*%
%TO.N,USB_DP*%
X100750000Y-45955000D03*
%TO.P,J3,A7*%
%TO.N,USB_DM*%
X101250000Y-45955000D03*
%TO.P,J3,A8*%
%TO.N,N/C*%
X102250000Y-45955000D03*
D28*
%TO.P,J3,A9*%
%TO.N,+5V*%
X103450000Y-45955000D03*
%TO.P,J3,A12*%
%TO.N,GND*%
X104250000Y-45955000D03*
%TO.P,J3,B1*%
X104250000Y-45955000D03*
%TO.P,J3,B4*%
%TO.N,+5V*%
X103450000Y-45955000D03*
D29*
%TO.P,J3,B5*%
%TO.N,CC2*%
X102750000Y-45955000D03*
%TO.P,J3,B6*%
%TO.N,USB_DP*%
X101750000Y-45955000D03*
%TO.P,J3,B7*%
%TO.N,USB_DM*%
X100250000Y-45955000D03*
%TO.P,J3,B8*%
%TO.N,N/C*%
X99250000Y-45955000D03*
D28*
%TO.P,J3,B9*%
%TO.N,+5V*%
X98550000Y-45955000D03*
%TO.P,J3,B12*%
%TO.N,GND*%
X97750000Y-45955000D03*
D30*
%TO.P,J3,SH*%
X96680000Y-46870000D03*
D31*
X96680000Y-51050000D03*
D30*
X105320000Y-46870000D03*
D31*
X105320000Y-51050000D03*
%TD*%
D12*
%TO.P,R4,1*%
%TO.N,+3V3*%
X171087500Y-62000000D03*
%TO.P,R4,2*%
%TO.N,LED1600_A*%
X172912500Y-62000000D03*
%TD*%
D32*
%TO.N,EN*%
X185374300Y-77361000D03*
X187947900Y-97822000D03*
%TO.N,LED1085_K*%
X129282400Y-71734400D03*
%TO.N,+3V3*%
X161656900Y-56141000D03*
X159209700Y-65147600D03*
%TO.N,LED1300_A*%
X162132900Y-62177200D03*
%TO.N,IO0*%
X154683300Y-96123700D03*
X184177700Y-71382200D03*
%TO.N,GPIO17*%
X155673900Y-95929200D03*
X175477000Y-63661600D03*
%TO.N,GPIO27*%
X131643600Y-97822000D03*
X126959000Y-79999600D03*
%TO.N,I2C_SCL*%
X167609200Y-47681100D03*
X157466000Y-99658600D03*
X158433600Y-77004400D03*
%TO.N,I2C_SDA*%
X150169900Y-71013900D03*
X139857200Y-105989300D03*
X160540200Y-48153500D03*
%TO.N,ESP_RX*%
X112062000Y-48201500D03*
X126947300Y-104345600D03*
%TO.N,ESP_TX*%
X118360600Y-51836300D03*
X125916000Y-103762800D03*
%TO.N,GPIO22*%
X127028000Y-73966000D03*
X139854300Y-109379200D03*
%TO.N,GPIO23*%
X122962100Y-107749200D03*
X122028000Y-73246800D03*
%TO.N,LED910_K*%
X170758200Y-49156000D03*
%TO.N,LED910_A*%
X138317300Y-62177200D03*
%TO.N,CC2*%
X111034300Y-82391900D03*
X102633700Y-47641700D03*
%TO.N,V3_CH340*%
X197813600Y-93875400D03*
X158760600Y-65973200D03*
%TO.N,PD_SIG*%
X155455000Y-52151100D03*
X149547200Y-68118000D03*
X169402000Y-53266000D03*
%TO.N,TIA_OUT*%
X141086700Y-68910600D03*
X138924300Y-83741900D03*
X152277800Y-50518900D03*
%TO.N,LED1085_A*%
X140098800Y-64978000D03*
%TO.N,LED1600_K*%
X155880800Y-67335900D03*
X166116800Y-91881200D03*
%TO.N,LED1300_K*%
X153122000Y-68789400D03*
%TO.N,LED1600_A*%
X175548400Y-62769300D03*
%TO.N,CC1*%
X99330900Y-50295600D03*
X99126500Y-82391900D03*
%TD*%
%TO.N,EN*%
D33*
X177273500Y-77361000D02*
X185374300Y-77361000D01*
X157475900Y-113011700D02*
X157658700Y-112828900D01*
X172912500Y-73000000D02*
X177273500Y-77361000D01*
X111050000Y-106000000D02*
X118061700Y-113011700D01*
X192020000Y-101894100D02*
X192020000Y-103750000D01*
X157698300Y-112789300D02*
X157658700Y-112828900D01*
X157841500Y-113011700D02*
X182758300Y-113011700D01*
X157658700Y-112828900D02*
X157841500Y-113011700D01*
X187947900Y-97822000D02*
X192020000Y-101894100D01*
X182758300Y-113011700D02*
X192020000Y-103750000D01*
X158750000Y-109720000D02*
X157698300Y-109720000D01*
X199980000Y-103750000D02*
X192020000Y-103750000D01*
X118061700Y-113011700D02*
X157475900Y-113011700D01*
X157698300Y-109720000D02*
X157698300Y-112789300D01*
%TO.N,Q2_GATE*%
X99062500Y-71150000D02*
X99062500Y-62950000D01*
X100912500Y-73000000D02*
X99062500Y-71150000D01*
%TO.N,LED1085_K*%
X111500000Y-62000000D02*
X121234400Y-71734400D01*
X100937500Y-62000000D02*
X111500000Y-62000000D01*
X121234400Y-71734400D02*
X129282400Y-71734400D01*
%TO.N,+3V3*%
X185762600Y-106685900D02*
X181458500Y-110990000D01*
X148754800Y-47079400D02*
X148739200Y-47095000D01*
X156443300Y-70355800D02*
X159362300Y-67436800D01*
X194014600Y-96035400D02*
X185762600Y-96035400D01*
X170156400Y-56141000D02*
X170156400Y-49245800D01*
X135087500Y-62000000D02*
X136091300Y-60996200D01*
X158083700Y-60996200D02*
X159087500Y-62000000D01*
X171050000Y-73037500D02*
X171050000Y-82959500D01*
X171050000Y-82959500D02*
X160090500Y-82959500D01*
X148739200Y-48966200D02*
X149098000Y-49325000D01*
X148090400Y-82959600D02*
X147050000Y-84000000D01*
X160150600Y-71936900D02*
X170024400Y-71936900D01*
X131420000Y-47730000D02*
X130150000Y-49000000D01*
X124099500Y-82988000D02*
X131309500Y-82988000D01*
X100080500Y-96030500D02*
X99050000Y-97061000D01*
X147087500Y-60996200D02*
X158083700Y-60996200D01*
X171050000Y-82959500D02*
X171050000Y-84000000D01*
X169100000Y-49000000D02*
X169910600Y-49000000D01*
X159050000Y-84000000D02*
X158009600Y-82959600D01*
X182087500Y-73000000D02*
X183087500Y-73000000D01*
X130150000Y-49000000D02*
X123850000Y-49000000D01*
X184085400Y-96035400D02*
X183050000Y-95000000D01*
X159362300Y-65300200D02*
X159209700Y-65147600D01*
X169910600Y-49000000D02*
X170162100Y-48748500D01*
X99050000Y-97061000D02*
X99050000Y-106000000D01*
X182050000Y-95000000D02*
X171050000Y-84000000D01*
X122050000Y-84000000D02*
X111050000Y-95000000D01*
X142475000Y-47095000D02*
X141840000Y-47730000D01*
X170162100Y-47725200D02*
X169516300Y-47079400D01*
X159362300Y-67436800D02*
X159362300Y-65300200D01*
X171087500Y-62000000D02*
X182087500Y-73000000D01*
X160090500Y-82959500D02*
X159050000Y-84000000D01*
X170156400Y-61068900D02*
X170156400Y-56141000D01*
X171087500Y-62000000D02*
X170156400Y-61068900D01*
X123087500Y-84000000D02*
X124099500Y-82988000D01*
X185762600Y-96035400D02*
X185762600Y-106685900D01*
X156443300Y-70355800D02*
X159087500Y-73000000D01*
X159209700Y-65147600D02*
X159087500Y-65025400D01*
X148739200Y-47095000D02*
X148739200Y-48966200D01*
X147087500Y-60996200D02*
X147087500Y-62000000D01*
X170156400Y-56141000D02*
X161656900Y-56141000D01*
X171087500Y-73000000D02*
X171050000Y-73037500D01*
X141840000Y-47730000D02*
X131420000Y-47730000D01*
X99050000Y-95000000D02*
X100080500Y-96030500D01*
X148739200Y-47095000D02*
X142475000Y-47095000D01*
X110019500Y-96030500D02*
X111050000Y-95000000D01*
X147087500Y-73000000D02*
X149731700Y-70355800D01*
X149731700Y-70355800D02*
X156443300Y-70355800D01*
X100080500Y-96030500D02*
X110019500Y-96030500D01*
X149098000Y-49325000D02*
X149887500Y-49325000D01*
X145957200Y-85092800D02*
X147050000Y-84000000D01*
X159087500Y-65025400D02*
X159087500Y-62000000D01*
X195050000Y-95000000D02*
X194014600Y-96035400D01*
X170156400Y-49245800D02*
X169910600Y-49000000D01*
X181458500Y-110990000D02*
X158750000Y-110990000D01*
X185762600Y-96035400D02*
X184085400Y-96035400D01*
X133414300Y-85092800D02*
X145957200Y-85092800D01*
X170162100Y-48748500D02*
X170162100Y-47725200D01*
X136091300Y-60996200D02*
X147087500Y-60996200D01*
X159087500Y-73000000D02*
X160150600Y-71936900D01*
X158009600Y-82959600D02*
X148090400Y-82959600D01*
X170024400Y-71936900D02*
X171087500Y-73000000D01*
X123087500Y-84000000D02*
X122050000Y-84000000D01*
X131309500Y-82988000D02*
X133414300Y-85092800D01*
X183050000Y-95000000D02*
X182050000Y-95000000D01*
X169516300Y-47079400D02*
X148754800Y-47079400D01*
%TO.N,LED1300_A*%
X162132900Y-62177200D02*
X161089700Y-62177200D01*
X161089700Y-62177200D02*
X160912500Y-62000000D01*
%TO.N,IO0*%
X184177700Y-72265200D02*
X184177700Y-71382200D01*
X184912500Y-73000000D02*
X184177700Y-72265200D01*
X154309600Y-95750000D02*
X154683300Y-96123700D01*
X192020000Y-70750000D02*
X189770000Y-73000000D01*
X189770000Y-73000000D02*
X184912500Y-73000000D01*
X141250000Y-95750000D02*
X154309600Y-95750000D01*
X199980000Y-70750000D02*
X192020000Y-70750000D01*
%TO.N,GPIO17*%
X141250000Y-99560000D02*
X152097900Y-99560000D01*
X181425900Y-63661600D02*
X175477000Y-63661600D01*
X183087500Y-62000000D02*
X181425900Y-63661600D01*
X152097900Y-99560000D02*
X155673900Y-95984000D01*
X155673900Y-95984000D02*
X155673900Y-95929200D01*
%TO.N,Q1_GATE*%
X184912500Y-54800000D02*
X180062500Y-49950000D01*
X184912500Y-62000000D02*
X184912500Y-54800000D01*
%TO.N,GPIO27*%
X157698300Y-98290000D02*
X157698300Y-94834800D01*
X135335400Y-93425000D02*
X131643600Y-97116800D01*
X126959000Y-79999600D02*
X106087100Y-79999600D01*
X157698300Y-94834800D02*
X156288500Y-93425000D01*
X156288500Y-93425000D02*
X135335400Y-93425000D01*
X158750000Y-98290000D02*
X157698300Y-98290000D01*
X106087100Y-79999600D02*
X99087500Y-73000000D01*
X131643600Y-97116800D02*
X131643600Y-97822000D01*
%TO.N,I2C_SCL*%
X158433600Y-77004400D02*
X158433600Y-75478900D01*
X147067600Y-103370000D02*
X141250000Y-103370000D01*
X157466000Y-99658600D02*
X155949600Y-101175000D01*
X149262600Y-101175000D02*
X147067600Y-103370000D01*
X155949600Y-101175000D02*
X149262600Y-101175000D01*
X167609200Y-47681100D02*
X168781100Y-47681100D01*
X168781100Y-47681100D02*
X169100000Y-48000000D01*
X158433600Y-75478900D02*
X160912500Y-73000000D01*
%TO.N,I2C_SDA*%
X141250000Y-105910000D02*
X139936500Y-105910000D01*
X139936500Y-105910000D02*
X139857200Y-105989300D01*
X166536000Y-47510400D02*
X161183300Y-47510400D01*
X169100000Y-48500000D02*
X167525600Y-48500000D01*
X161183300Y-47510400D02*
X160540200Y-48153500D01*
X148912500Y-73000000D02*
X148912500Y-72271300D01*
X167525600Y-48500000D02*
X166536000Y-47510400D01*
X148912500Y-72271300D02*
X150169900Y-71013900D01*
%TO.N,ESP_RX*%
X110525000Y-46825000D02*
X110145100Y-46825000D01*
X125306800Y-104025200D02*
X125692400Y-104410800D01*
X111566200Y-48697300D02*
X112062000Y-48201500D01*
X125306800Y-103474700D02*
X125306800Y-104025200D01*
X109247700Y-47722400D02*
X109247700Y-48494100D01*
X133293500Y-103138100D02*
X125643400Y-103138100D01*
X109247700Y-48494100D02*
X109450900Y-48697300D01*
X109450900Y-48697300D02*
X111566200Y-48697300D01*
X141250000Y-107180000D02*
X137335400Y-107180000D01*
X126882100Y-104410800D02*
X126947300Y-104345600D01*
X125643400Y-103138100D02*
X125306800Y-103474700D01*
X137335400Y-107180000D02*
X133293500Y-103138100D01*
X125692400Y-104410800D02*
X126882100Y-104410800D01*
X110145100Y-46825000D02*
X109247700Y-47722400D01*
%TO.N,ESP_TX*%
X118360600Y-49304100D02*
X118360600Y-51836300D01*
X110525000Y-48095000D02*
X111127300Y-47492700D01*
X125934900Y-103743900D02*
X125916000Y-103762800D01*
X133053200Y-103743900D02*
X125934900Y-103743900D01*
X111127300Y-47492700D02*
X116549200Y-47492700D01*
X116549200Y-47492700D02*
X118360600Y-49304100D01*
X141250000Y-108450000D02*
X137759300Y-108450000D01*
X137759300Y-108450000D02*
X133053200Y-103743900D01*
%TO.N,GPIO22*%
X141250000Y-109720000D02*
X140198300Y-109720000D01*
X139854300Y-109379200D02*
X139857500Y-109379200D01*
X126974000Y-74020000D02*
X127028000Y-73966000D01*
X139857500Y-109379200D02*
X140198300Y-109720000D01*
X112107500Y-74020000D02*
X126974000Y-74020000D01*
X111087500Y-73000000D02*
X112107500Y-74020000D01*
%TO.N,GPIO23*%
X122274800Y-73000000D02*
X122028000Y-73246800D01*
X123087500Y-73000000D02*
X122274800Y-73000000D01*
X122962100Y-107749200D02*
X126202900Y-110990000D01*
X126202900Y-110990000D02*
X141250000Y-110990000D01*
%TO.N,Q4_GATE*%
X128879100Y-73000000D02*
X129897900Y-71981200D01*
X129897900Y-69785400D02*
X123062500Y-62950000D01*
X129897900Y-71981200D02*
X129897900Y-69785400D01*
X124912500Y-73000000D02*
X128879100Y-73000000D01*
%TO.N,LED910_K*%
X181937500Y-49000000D02*
X170914200Y-49000000D01*
X170914200Y-49000000D02*
X170758200Y-49156000D01*
%TO.N,LED910_A*%
X137089700Y-62177200D02*
X136912500Y-62000000D01*
X138317300Y-62177200D02*
X137089700Y-62177200D01*
%TO.N,CC2*%
X111087500Y-84000000D02*
X111034300Y-83946800D01*
X102633700Y-47641700D02*
X102750000Y-47525400D01*
X111034300Y-83946800D02*
X111034300Y-82391900D01*
X102750000Y-47525400D02*
X102750000Y-45955000D01*
%TO.N,Q3_GATE*%
X112912500Y-73000000D02*
X111062500Y-71150000D01*
X111062500Y-71150000D02*
X111062500Y-62950000D01*
%TO.N,V3_CH340*%
X110525000Y-49365000D02*
X110933600Y-49365000D01*
X128282300Y-57320600D02*
X136934900Y-65973200D01*
X110933600Y-49365000D02*
X113945300Y-52376700D01*
X136934900Y-65973200D02*
X158760600Y-65973200D01*
X197813600Y-93875400D02*
X203925400Y-93875400D01*
X203925400Y-93875400D02*
X205050000Y-95000000D01*
X113945300Y-52376700D02*
X113945300Y-54573000D01*
X116692900Y-57320600D02*
X128282300Y-57320600D01*
X113945300Y-54573000D02*
X116692900Y-57320600D01*
%TO.N,USB_DP*%
X106398300Y-48340000D02*
X108693300Y-50635000D01*
X101750000Y-45955000D02*
X101750000Y-46727100D01*
X101468600Y-47008500D02*
X101468600Y-47353600D01*
X101750000Y-46727100D02*
X101468600Y-47008500D01*
X100750000Y-46759000D02*
X100750000Y-45955000D01*
X102455000Y-48340000D02*
X106398300Y-48340000D01*
X100999500Y-47008500D02*
X100750000Y-46759000D01*
X101468600Y-47008500D02*
X100999500Y-47008500D01*
X108693300Y-50635000D02*
X110525000Y-50635000D01*
X101468600Y-47353600D02*
X102455000Y-48340000D01*
%TO.N,USB_DM*%
X100250000Y-45955000D02*
X100250000Y-45122200D01*
X108308600Y-51905000D02*
X110525000Y-51905000D01*
X100250000Y-46849300D02*
X102207300Y-48806600D01*
X100250000Y-45122200D02*
X100451200Y-44921000D01*
X102207300Y-48806600D02*
X105210200Y-48806600D01*
X100988800Y-44921000D02*
X101250000Y-45182200D01*
X101250000Y-45182200D02*
X101250000Y-45955000D01*
X100451200Y-44921000D02*
X100988800Y-44921000D01*
X100250000Y-45955000D02*
X100250000Y-46849300D01*
X105210200Y-48806600D02*
X108308600Y-51905000D01*
%TO.N,+5V*%
X128593700Y-56043700D02*
X154699300Y-56043700D01*
X160000000Y-61344400D02*
X160000000Y-62591700D01*
X123850000Y-51300000D02*
X118105000Y-45555000D01*
X115475000Y-45555000D02*
X114827100Y-44907100D01*
X154699300Y-56043700D02*
X160000000Y-61344400D01*
X103450000Y-44907100D02*
X103450000Y-45955000D01*
X205050000Y-106000000D02*
X195875600Y-96825600D01*
X98550000Y-45955000D02*
X98550000Y-45381000D01*
X195875600Y-94248800D02*
X186759500Y-85132700D01*
X160000000Y-62591700D02*
X161853200Y-64444900D01*
X123850000Y-51300000D02*
X128593700Y-56043700D01*
X99412700Y-44518300D02*
X103061200Y-44518300D01*
X195875600Y-96825600D02*
X195875600Y-94248800D01*
X172000000Y-72406800D02*
X172000000Y-73588300D01*
X164038100Y-64444900D02*
X172000000Y-72406800D01*
X161853200Y-64444900D02*
X164038100Y-64444900D01*
X182411700Y-84000000D02*
X183050000Y-84000000D01*
X118105000Y-45555000D02*
X115475000Y-45555000D01*
X98550000Y-45381000D02*
X99412700Y-44518300D01*
X184182700Y-85132700D02*
X183050000Y-84000000D01*
X172000000Y-73588300D02*
X182411700Y-84000000D01*
X186759500Y-85132700D02*
X184182700Y-85132700D01*
X103061200Y-44518300D02*
X103450000Y-44907100D01*
X114827100Y-44907100D02*
X103450000Y-44907100D01*
%TO.N,-3V3*%
X195118500Y-74068500D02*
X205050000Y-84000000D01*
X156354100Y-52773200D02*
X177649400Y-74068500D01*
X149887500Y-49975000D02*
X152685700Y-52773200D01*
X177649400Y-74068500D02*
X195118500Y-74068500D01*
X152685700Y-52773200D02*
X156354100Y-52773200D01*
X142475000Y-50905000D02*
X148957500Y-50905000D01*
X148957500Y-50905000D02*
X149887500Y-49975000D01*
%TO.N,PD_SIG*%
X155455000Y-52151100D02*
X153001600Y-52151100D01*
X153001600Y-52151100D02*
X151412000Y-50561500D01*
X139969500Y-68118000D02*
X135087500Y-73000000D01*
X135050000Y-84000000D02*
X135050000Y-73037500D01*
X151412000Y-49341900D02*
X150745100Y-48675000D01*
X135050000Y-73037500D02*
X135087500Y-73000000D01*
X169402000Y-53266000D02*
X168287100Y-52151100D01*
X168287100Y-52151100D02*
X155455000Y-52151100D01*
X149547200Y-68118000D02*
X139969500Y-68118000D01*
X150745100Y-48675000D02*
X149887500Y-48675000D01*
X151412000Y-50561500D02*
X151412000Y-49341900D01*
%TO.N,TIA_OUT*%
X154112500Y-49975000D02*
X159119400Y-49975000D01*
X153568600Y-50518900D02*
X152277800Y-50518900D01*
X141086700Y-68910600D02*
X141001900Y-68910600D01*
X138924300Y-83741900D02*
X137208100Y-83741900D01*
X154112500Y-49975000D02*
X153568600Y-50518900D01*
X141001900Y-68910600D02*
X136912500Y-73000000D01*
X159594400Y-49500000D02*
X164900000Y-49500000D01*
X159119400Y-49975000D02*
X159594400Y-49500000D01*
X137208100Y-83741900D02*
X136950000Y-84000000D01*
%TO.N,CP_PLUS*%
X140508100Y-55508000D02*
X136198700Y-51198600D01*
X136198700Y-49250700D02*
X137084400Y-48365000D01*
X177628400Y-76107700D02*
X157028700Y-55508000D01*
X137084400Y-48365000D02*
X137525000Y-48365000D01*
X136198700Y-51198600D02*
X136198700Y-49250700D01*
X157028700Y-55508000D02*
X140508100Y-55508000D01*
X195050000Y-84000000D02*
X187157700Y-76107700D01*
X187157700Y-76107700D02*
X177628400Y-76107700D01*
%TO.N,CP_MINUS*%
X177148500Y-74746100D02*
X155850500Y-53448100D01*
X140068100Y-53448100D02*
X137525000Y-50905000D01*
X196950000Y-84000000D02*
X187696100Y-74746100D01*
X155850500Y-53448100D02*
X140068100Y-53448100D01*
X187696100Y-74746100D02*
X177148500Y-74746100D01*
%TO.N,LED1085_A*%
X148912500Y-62000000D02*
X145934500Y-64978000D01*
X145934500Y-64978000D02*
X140098800Y-64978000D01*
%TO.N,LED1600_K*%
X172798300Y-95000000D02*
X169679500Y-91881200D01*
X174000000Y-95000000D02*
X172798300Y-95000000D01*
X169679500Y-91881200D02*
X166116800Y-91881200D01*
X155880800Y-67335900D02*
X130273400Y-67335900D01*
X130273400Y-67335900D02*
X124937500Y-62000000D01*
%TO.N,LED1300_K*%
X156512000Y-67593500D02*
X155316100Y-68789400D01*
X123500000Y-62000000D02*
X124105600Y-61394400D01*
X112937500Y-62000000D02*
X123500000Y-62000000D01*
X128444600Y-61394400D02*
X133504500Y-66454300D01*
X155316100Y-68789400D02*
X153122000Y-68789400D01*
X124105600Y-61394400D02*
X128444600Y-61394400D01*
X155873000Y-66454300D02*
X156512000Y-67093300D01*
X133504500Y-66454300D02*
X155873000Y-66454300D01*
X156512000Y-67093300D02*
X156512000Y-67593500D01*
%TO.N,LED1600_A*%
X173681800Y-62769300D02*
X172912500Y-62000000D01*
X175548400Y-62769300D02*
X173681800Y-62769300D01*
%TO.N,CC1*%
X99750000Y-45955000D02*
X99750000Y-49876500D01*
X99087500Y-82430900D02*
X99087500Y-84000000D01*
X99126500Y-82391900D02*
X99087500Y-82430900D01*
X99750000Y-49876500D02*
X99330900Y-50295600D01*
%TO.N,PWR_LED*%
X166960400Y-101860600D02*
X180798100Y-101860600D01*
X155004400Y-89904600D02*
X166960400Y-101860600D01*
X124912500Y-84000000D02*
X130817100Y-89904600D01*
X180798100Y-101860600D02*
X184937500Y-106000000D01*
X130817100Y-89904600D02*
X155004400Y-89904600D01*
%TD*%
%TA.AperFunction,Conductor*%
%TO.N,GND*%
G36*
X98949720Y-47145481D02*
G01*
X98977833Y-47146365D01*
X98982177Y-47148046D01*
X99024764Y-47165687D01*
X99063421Y-47170776D01*
X99118646Y-47197116D01*
X99147842Y-47250887D01*
X99149500Y-47268929D01*
X99149500Y-49438134D01*
X99130593Y-49496325D01*
X99088385Y-49529598D01*
X98951725Y-49586203D01*
X98951714Y-49586209D01*
X98820611Y-49673811D01*
X98820607Y-49673814D01*
X98709114Y-49785307D01*
X98709111Y-49785311D01*
X98621509Y-49916414D01*
X98621503Y-49916425D01*
X98561163Y-50062101D01*
X98561163Y-50062103D01*
X98530400Y-50216755D01*
X98530400Y-50374444D01*
X98547027Y-50458032D01*
X98557352Y-50509940D01*
X98561163Y-50529096D01*
X98561163Y-50529098D01*
X98621503Y-50674774D01*
X98621509Y-50674785D01*
X98662892Y-50736718D01*
X98709111Y-50805889D01*
X98820611Y-50917389D01*
X98874516Y-50953407D01*
X98951714Y-51004990D01*
X98951725Y-51004996D01*
X99005538Y-51027285D01*
X99097403Y-51065337D01*
X99252058Y-51096100D01*
X99252059Y-51096100D01*
X99409741Y-51096100D01*
X99409742Y-51096100D01*
X99564397Y-51065337D01*
X99710079Y-51004994D01*
X99841189Y-50917389D01*
X99952689Y-50805889D01*
X100040294Y-50674779D01*
X100100637Y-50529097D01*
X100131400Y-50374442D01*
X100132349Y-50369672D01*
X100133980Y-50369996D01*
X100155719Y-50320262D01*
X100159719Y-50316016D01*
X100230520Y-50245216D01*
X100304693Y-50116744D01*
X100309577Y-50108285D01*
X100350501Y-49955557D01*
X100350501Y-49797443D01*
X100350501Y-49791381D01*
X100350500Y-49791363D01*
X100350500Y-48038043D01*
X100369407Y-47979852D01*
X100418907Y-47943888D01*
X100480093Y-47943888D01*
X100519504Y-47968039D01*
X101726778Y-49175313D01*
X101726780Y-49175316D01*
X101838584Y-49287120D01*
X101890205Y-49316923D01*
X101975515Y-49366177D01*
X102128242Y-49407100D01*
X102128243Y-49407100D01*
X104920457Y-49407100D01*
X104978648Y-49426007D01*
X104990461Y-49436096D01*
X105159650Y-49605285D01*
X105187427Y-49659802D01*
X105177856Y-49720234D01*
X105134591Y-49763499D01*
X105108960Y-49772387D01*
X105028311Y-49788429D01*
X105028309Y-49788429D01*
X104846326Y-49863808D01*
X104846314Y-49863814D01*
X104682537Y-49973249D01*
X104682533Y-49973252D01*
X104543252Y-50112533D01*
X104543249Y-50112537D01*
X104433814Y-50276314D01*
X104433808Y-50276326D01*
X104358429Y-50458309D01*
X104358429Y-50458311D01*
X104320000Y-50651506D01*
X104320000Y-50799999D01*
X104320001Y-50800000D01*
X105020000Y-50800000D01*
X105020000Y-51300000D01*
X104320001Y-51300000D01*
X104320000Y-51300001D01*
X104320000Y-51448493D01*
X104358429Y-51641688D01*
X104358429Y-51641690D01*
X104433808Y-51823673D01*
X104433814Y-51823685D01*
X104543249Y-51987462D01*
X104543252Y-51987466D01*
X104682533Y-52126747D01*
X104682537Y-52126750D01*
X104846314Y-52236185D01*
X104846326Y-52236191D01*
X105028304Y-52311568D01*
X105028315Y-52311571D01*
X105070000Y-52319862D01*
X105070000Y-51516988D01*
X105079940Y-51534205D01*
X105135795Y-51590060D01*
X105204204Y-51629556D01*
X105280504Y-51650000D01*
X105359496Y-51650000D01*
X105435796Y-51629556D01*
X105504205Y-51590060D01*
X105560060Y-51534205D01*
X105570000Y-51516988D01*
X105570000Y-52319861D01*
X105611684Y-52311571D01*
X105611695Y-52311568D01*
X105793673Y-52236191D01*
X105793685Y-52236185D01*
X105957462Y-52126750D01*
X105957466Y-52126747D01*
X106096747Y-51987466D01*
X106096750Y-51987462D01*
X106206185Y-51823685D01*
X106206191Y-51823673D01*
X106281570Y-51641690D01*
X106281570Y-51641688D01*
X106319999Y-51448493D01*
X106320000Y-51448490D01*
X106320000Y-51300001D01*
X106319999Y-51300000D01*
X105620000Y-51300000D01*
X105620000Y-50800000D01*
X106313357Y-50800000D01*
X106371548Y-50818907D01*
X106383361Y-50828996D01*
X107828078Y-52273713D01*
X107828080Y-52273716D01*
X107939884Y-52385520D01*
X107939886Y-52385521D01*
X107939889Y-52385524D01*
X107939888Y-52385524D01*
X108026691Y-52435637D01*
X108026693Y-52435639D01*
X108026694Y-52435639D01*
X108049516Y-52448815D01*
X108076815Y-52464577D01*
X108229542Y-52505500D01*
X108229543Y-52505500D01*
X109077923Y-52505500D01*
X109136114Y-52524407D01*
X109172078Y-52573907D01*
X109172078Y-52635093D01*
X109163136Y-52654895D01*
X109098257Y-52764598D01*
X109098257Y-52764599D01*
X109098256Y-52764601D01*
X109098256Y-52764602D01*
X109093609Y-52780596D01*
X109052403Y-52922427D01*
X109052401Y-52922434D01*
X109049500Y-52959311D01*
X109049500Y-53390688D01*
X109052401Y-53427565D01*
X109052401Y-53427568D01*
X109052402Y-53427569D01*
X109098256Y-53585398D01*
X109181919Y-53726865D01*
X109195050Y-53739996D01*
X109195052Y-53739998D01*
X109222828Y-53794516D01*
X109213254Y-53854948D01*
X109195052Y-53880002D01*
X109181919Y-53893135D01*
X109098256Y-54034602D01*
X109052403Y-54192427D01*
X109052401Y-54192434D01*
X109049500Y-54229311D01*
X109049500Y-54660688D01*
X109052401Y-54697565D01*
X109052401Y-54697568D01*
X109052402Y-54697569D01*
X109098256Y-54855398D01*
X109181919Y-54996865D01*
X109298135Y-55113081D01*
X109439602Y-55196744D01*
X109597431Y-55242598D01*
X109634306Y-55245500D01*
X109634311Y-55245500D01*
X111415689Y-55245500D01*
X111415694Y-55245500D01*
X111452569Y-55242598D01*
X111610398Y-55196744D01*
X111751865Y-55113081D01*
X111868081Y-54996865D01*
X111951744Y-54855398D01*
X111997598Y-54697569D01*
X112000500Y-54660694D01*
X112000500Y-54229306D01*
X111997598Y-54192431D01*
X111951744Y-54034602D01*
X111868081Y-53893135D01*
X111854947Y-53880001D01*
X111827172Y-53825487D01*
X111836743Y-53765055D01*
X111854948Y-53739998D01*
X111868081Y-53726865D01*
X111951744Y-53585398D01*
X111997598Y-53427569D01*
X112000500Y-53390694D01*
X112000500Y-52959306D01*
X111997598Y-52922431D01*
X111951744Y-52764602D01*
X111868081Y-52623135D01*
X111854947Y-52610001D01*
X111827172Y-52555487D01*
X111836743Y-52495055D01*
X111854946Y-52469999D01*
X111868081Y-52456865D01*
X111951744Y-52315398D01*
X111997598Y-52157569D01*
X112000500Y-52120694D01*
X112000500Y-51689306D01*
X111997598Y-51652431D01*
X111951937Y-51495266D01*
X111953859Y-51434115D01*
X111991359Y-51385768D01*
X112050115Y-51368698D01*
X112107683Y-51389423D01*
X112117010Y-51397645D01*
X113315804Y-52596439D01*
X113343581Y-52650956D01*
X113344800Y-52666443D01*
X113344800Y-54487863D01*
X113344799Y-54487881D01*
X113344799Y-54493943D01*
X113344799Y-54652057D01*
X113367961Y-54738496D01*
X113385723Y-54804784D01*
X113385725Y-54804788D01*
X113414660Y-54854905D01*
X113414661Y-54854905D01*
X113464780Y-54941716D01*
X113576584Y-55053520D01*
X113576586Y-55053521D01*
X116212378Y-57689313D01*
X116212380Y-57689316D01*
X116324184Y-57801120D01*
X116324186Y-57801121D01*
X116324189Y-57801124D01*
X116324188Y-57801124D01*
X116410991Y-57851237D01*
X116410993Y-57851239D01*
X116410994Y-57851239D01*
X116433816Y-57864415D01*
X116461115Y-57880177D01*
X116613843Y-57921100D01*
X116771957Y-57921100D01*
X127992557Y-57921100D01*
X128050748Y-57940007D01*
X128062561Y-57950096D01*
X135797261Y-65684796D01*
X135825038Y-65739313D01*
X135815467Y-65799745D01*
X135772202Y-65843010D01*
X135727257Y-65853800D01*
X133794243Y-65853800D01*
X133736052Y-65834893D01*
X133724239Y-65824804D01*
X128925121Y-61025686D01*
X128925120Y-61025684D01*
X128813316Y-60913880D01*
X128726504Y-60863760D01*
X128726503Y-60863759D01*
X128679355Y-60836538D01*
X128676385Y-60834823D01*
X128523657Y-60793899D01*
X128365543Y-60793899D01*
X128359480Y-60793899D01*
X128359464Y-60793900D01*
X124370382Y-60793900D01*
X124312191Y-60774993D01*
X124276227Y-60725493D01*
X124275313Y-60722520D01*
X124251280Y-60639799D01*
X124251280Y-60639798D01*
X124167685Y-60498447D01*
X124051552Y-60382314D01*
X123910200Y-60298719D01*
X123752489Y-60252899D01*
X123715637Y-60250000D01*
X123312501Y-60250000D01*
X123312500Y-60250001D01*
X123312500Y-60951000D01*
X123293593Y-61009191D01*
X123244093Y-61045155D01*
X123213500Y-61050000D01*
X123062501Y-61050000D01*
X123062500Y-61050001D01*
X123062500Y-61201000D01*
X123043593Y-61259191D01*
X122994093Y-61295155D01*
X122963500Y-61300000D01*
X121827703Y-61300000D01*
X121824574Y-61303384D01*
X121812847Y-61352229D01*
X121766321Y-61391965D01*
X121728437Y-61399500D01*
X114035454Y-61399500D01*
X113977263Y-61380593D01*
X113965451Y-61370504D01*
X113926866Y-61331920D01*
X113926865Y-61331919D01*
X113785398Y-61248256D01*
X113627569Y-61202402D01*
X113627568Y-61202401D01*
X113627565Y-61202401D01*
X113604140Y-61200558D01*
X113590694Y-61199500D01*
X112284306Y-61199500D01*
X112271773Y-61200486D01*
X112247434Y-61202401D01*
X112247427Y-61202403D01*
X112089600Y-61248256D01*
X112025417Y-61286214D01*
X111975023Y-61300000D01*
X109827703Y-61300000D01*
X109824574Y-61303384D01*
X109812847Y-61352229D01*
X109766321Y-61391965D01*
X109728437Y-61399500D01*
X102035454Y-61399500D01*
X101977263Y-61380593D01*
X101965451Y-61370504D01*
X101926866Y-61331920D01*
X101926865Y-61331919D01*
X101785398Y-61248256D01*
X101627569Y-61202402D01*
X101627568Y-61202401D01*
X101627565Y-61202401D01*
X101604140Y-61200558D01*
X101590694Y-61199500D01*
X100284306Y-61199500D01*
X100271773Y-61200486D01*
X100247434Y-61202401D01*
X100247427Y-61202403D01*
X100089600Y-61248256D01*
X100025417Y-61286214D01*
X99975023Y-61300000D01*
X99312501Y-61300000D01*
X99312500Y-61300001D01*
X99312500Y-61849999D01*
X99312501Y-61850000D01*
X99600500Y-61850000D01*
X99615412Y-61854845D01*
X99631093Y-61854845D01*
X99643778Y-61864061D01*
X99658691Y-61868907D01*
X99667907Y-61881592D01*
X99680593Y-61890809D01*
X99685438Y-61905721D01*
X99694655Y-61918407D01*
X99699500Y-61949000D01*
X99699500Y-62050500D01*
X99680593Y-62108691D01*
X99631093Y-62144655D01*
X99600500Y-62149500D01*
X98409306Y-62149500D01*
X98396773Y-62150486D01*
X98372434Y-62152401D01*
X98372427Y-62152403D01*
X98214602Y-62198256D01*
X98073136Y-62281918D01*
X97956918Y-62398136D01*
X97873256Y-62539602D01*
X97827403Y-62697427D01*
X97827401Y-62697434D01*
X97824500Y-62734311D01*
X97824500Y-63165688D01*
X97827401Y-63202565D01*
X97827401Y-63202568D01*
X97827402Y-63202569D01*
X97873256Y-63360398D01*
X97956919Y-63501865D01*
X98073135Y-63618081D01*
X98214602Y-63701744D01*
X98372431Y-63747598D01*
X98372443Y-63747598D01*
X98377410Y-63748507D01*
X98377118Y-63750103D01*
X98427275Y-63770863D01*
X98459258Y-63823023D01*
X98462000Y-63846161D01*
X98462000Y-71064863D01*
X98461999Y-71064881D01*
X98461999Y-71070943D01*
X98461999Y-71229057D01*
X98502923Y-71381785D01*
X98503390Y-71382593D01*
X98503396Y-71382618D01*
X98503402Y-71382616D01*
X98581978Y-71518713D01*
X98581980Y-71518716D01*
X98693784Y-71630520D01*
X98693786Y-71630521D01*
X98709730Y-71646465D01*
X98737507Y-71700982D01*
X98727936Y-71761414D01*
X98684671Y-71804679D01*
X98670866Y-71810444D01*
X98505663Y-71865187D01*
X98356347Y-71957285D01*
X98232285Y-72081347D01*
X98140187Y-72230663D01*
X98085000Y-72397205D01*
X98074500Y-72499983D01*
X98074500Y-73500016D01*
X98084999Y-73602788D01*
X98085000Y-73602795D01*
X98085001Y-73602797D01*
X98127982Y-73732506D01*
X98140187Y-73769336D01*
X98232285Y-73918652D01*
X98232286Y-73918653D01*
X98232288Y-73918656D01*
X98356344Y-74042712D01*
X98356346Y-74042713D01*
X98356347Y-74042714D01*
X98402469Y-74071162D01*
X98505666Y-74134814D01*
X98672203Y-74189999D01*
X98774991Y-74200500D01*
X99397756Y-74200499D01*
X99455947Y-74219406D01*
X99467760Y-74229495D01*
X105606578Y-80368313D01*
X105606580Y-80368316D01*
X105718384Y-80480120D01*
X105718386Y-80480121D01*
X105718389Y-80480124D01*
X105718388Y-80480124D01*
X105805191Y-80530237D01*
X105805193Y-80530239D01*
X105805194Y-80530239D01*
X105828016Y-80543415D01*
X105855315Y-80559177D01*
X106008042Y-80600100D01*
X106008043Y-80600100D01*
X126387348Y-80600100D01*
X126444647Y-80618717D01*
X126444668Y-80618687D01*
X126444775Y-80618759D01*
X126445539Y-80619007D01*
X126448044Y-80620943D01*
X126579814Y-80708990D01*
X126579825Y-80708996D01*
X126633638Y-80731285D01*
X126725503Y-80769337D01*
X126880158Y-80800100D01*
X126880159Y-80800100D01*
X127037841Y-80800100D01*
X127037842Y-80800100D01*
X127192497Y-80769337D01*
X127338179Y-80708994D01*
X127469289Y-80621389D01*
X127580789Y-80509889D01*
X127668394Y-80378779D01*
X127728737Y-80233097D01*
X127759500Y-80078442D01*
X127759500Y-79920758D01*
X127728737Y-79766103D01*
X127668394Y-79620421D01*
X127668393Y-79620419D01*
X127668390Y-79620414D01*
X127633017Y-79567476D01*
X127580789Y-79489311D01*
X127469289Y-79377811D01*
X127417059Y-79342912D01*
X127338185Y-79290209D01*
X127338174Y-79290203D01*
X127192497Y-79229863D01*
X127037844Y-79199100D01*
X127037842Y-79199100D01*
X126880158Y-79199100D01*
X126880155Y-79199100D01*
X126725503Y-79229863D01*
X126725501Y-79229863D01*
X126579825Y-79290203D01*
X126579814Y-79290209D01*
X126478073Y-79358191D01*
X126448711Y-79377811D01*
X126448709Y-79377812D01*
X126444668Y-79380513D01*
X126443748Y-79379136D01*
X126393168Y-79398929D01*
X126387348Y-79399100D01*
X106376843Y-79399100D01*
X106318652Y-79380193D01*
X106306839Y-79370104D01*
X101290269Y-74353534D01*
X101262492Y-74299017D01*
X101272063Y-74238585D01*
X101315328Y-74195320D01*
X101329118Y-74189561D01*
X101494334Y-74134814D01*
X101643656Y-74042712D01*
X101767712Y-73918656D01*
X101859814Y-73769334D01*
X101914999Y-73602797D01*
X101925500Y-73500009D01*
X101925499Y-72499992D01*
X101925499Y-72499991D01*
X101925499Y-72499983D01*
X101915000Y-72397211D01*
X101914999Y-72397209D01*
X101914999Y-72397203D01*
X101859814Y-72230666D01*
X101767712Y-72081344D01*
X101643656Y-71957288D01*
X101643653Y-71957286D01*
X101643652Y-71957285D01*
X101494336Y-71865187D01*
X101494335Y-71865186D01*
X101494334Y-71865186D01*
X101327797Y-71810001D01*
X101327794Y-71810000D01*
X101225017Y-71799500D01*
X100602243Y-71799500D01*
X100544052Y-71780593D01*
X100532239Y-71770504D01*
X99691996Y-70930261D01*
X99664219Y-70875744D01*
X99663000Y-70860257D01*
X99663000Y-63846161D01*
X99681907Y-63787970D01*
X99731407Y-63752006D01*
X99747639Y-63748779D01*
X99747590Y-63748507D01*
X99752555Y-63747599D01*
X99752569Y-63747598D01*
X99910398Y-63701744D01*
X100051865Y-63618081D01*
X100168081Y-63501865D01*
X100251744Y-63360398D01*
X100297598Y-63202569D01*
X100300500Y-63165694D01*
X100300500Y-62899500D01*
X100319407Y-62841309D01*
X100368907Y-62805345D01*
X100399500Y-62800500D01*
X101590689Y-62800500D01*
X101590694Y-62800500D01*
X101627569Y-62797598D01*
X101785398Y-62751744D01*
X101926865Y-62668081D01*
X101946158Y-62648787D01*
X101965451Y-62629496D01*
X102019968Y-62601719D01*
X102035454Y-62600500D01*
X109727933Y-62600500D01*
X109786124Y-62619407D01*
X109822088Y-62668907D01*
X109826628Y-62707266D01*
X109824500Y-62734311D01*
X109824500Y-63165688D01*
X109827401Y-63202565D01*
X109827401Y-63202568D01*
X109827402Y-63202569D01*
X109873256Y-63360398D01*
X109956919Y-63501865D01*
X110073135Y-63618081D01*
X110214602Y-63701744D01*
X110372431Y-63747598D01*
X110372443Y-63747598D01*
X110377410Y-63748507D01*
X110377118Y-63750103D01*
X110427275Y-63770863D01*
X110459258Y-63823023D01*
X110462000Y-63846161D01*
X110462000Y-71064863D01*
X110461999Y-71064881D01*
X110461999Y-71070943D01*
X110461999Y-71229057D01*
X110502923Y-71381785D01*
X110503390Y-71382593D01*
X110503396Y-71382618D01*
X110503402Y-71382616D01*
X110581978Y-71518713D01*
X110581980Y-71518716D01*
X110693784Y-71630520D01*
X110693786Y-71630521D01*
X110709730Y-71646465D01*
X110737507Y-71700982D01*
X110727936Y-71761414D01*
X110684671Y-71804679D01*
X110670866Y-71810444D01*
X110505663Y-71865187D01*
X110356347Y-71957285D01*
X110232285Y-72081347D01*
X110140187Y-72230663D01*
X110085000Y-72397205D01*
X110074500Y-72499983D01*
X110074500Y-73500016D01*
X110084999Y-73602788D01*
X110085000Y-73602795D01*
X110085001Y-73602797D01*
X110127982Y-73732506D01*
X110140187Y-73769336D01*
X110232285Y-73918652D01*
X110232286Y-73918653D01*
X110232288Y-73918656D01*
X110356344Y-74042712D01*
X110356346Y-74042713D01*
X110356347Y-74042714D01*
X110402469Y-74071162D01*
X110505666Y-74134814D01*
X110672203Y-74189999D01*
X110774991Y-74200500D01*
X111397756Y-74200499D01*
X111455947Y-74219406D01*
X111467760Y-74229495D01*
X111626978Y-74388713D01*
X111626980Y-74388716D01*
X111738784Y-74500520D01*
X111811436Y-74542465D01*
X111875711Y-74579575D01*
X111875712Y-74579575D01*
X111875715Y-74579577D01*
X112028443Y-74620501D01*
X112028445Y-74620501D01*
X112192620Y-74620501D01*
X112192636Y-74620500D01*
X126536635Y-74620500D01*
X126591636Y-74637184D01*
X126648821Y-74675394D01*
X126794503Y-74735737D01*
X126949158Y-74766500D01*
X126949159Y-74766500D01*
X127106841Y-74766500D01*
X127106842Y-74766500D01*
X127261497Y-74735737D01*
X127407179Y-74675394D01*
X127538289Y-74587789D01*
X127649789Y-74476289D01*
X127737394Y-74345179D01*
X127797737Y-74199497D01*
X127828500Y-74044842D01*
X127828500Y-73887158D01*
X127797737Y-73732503D01*
X127797733Y-73732494D01*
X127796444Y-73728243D01*
X127797643Y-73667069D01*
X127834569Y-73618283D01*
X127891180Y-73600500D01*
X128793964Y-73600500D01*
X128793980Y-73600501D01*
X128800043Y-73600501D01*
X128958155Y-73600501D01*
X128958157Y-73600501D01*
X129110885Y-73559577D01*
X129182865Y-73518019D01*
X129247816Y-73480520D01*
X129359620Y-73368716D01*
X129359621Y-73368713D01*
X130378420Y-72349916D01*
X130457477Y-72212984D01*
X130498401Y-72060257D01*
X130498401Y-71902142D01*
X130498401Y-71896080D01*
X130498400Y-71896062D01*
X130498400Y-69706344D01*
X130498400Y-69706343D01*
X130457477Y-69553616D01*
X130378420Y-69416684D01*
X130266616Y-69304880D01*
X130266613Y-69304878D01*
X124308990Y-63347255D01*
X124281213Y-63292738D01*
X124283925Y-63249631D01*
X124289775Y-63229495D01*
X124297598Y-63202569D01*
X124300500Y-63165694D01*
X124300500Y-62899500D01*
X124319407Y-62841309D01*
X124368907Y-62805345D01*
X124399500Y-62800500D01*
X124847757Y-62800500D01*
X124905948Y-62819407D01*
X124917761Y-62829496D01*
X129792878Y-67704613D01*
X129792880Y-67704616D01*
X129904684Y-67816420D01*
X129904686Y-67816421D01*
X129904689Y-67816424D01*
X129904688Y-67816424D01*
X129991491Y-67866537D01*
X129991493Y-67866539D01*
X129991494Y-67866539D01*
X130014316Y-67879715D01*
X130041615Y-67895477D01*
X130194343Y-67936400D01*
X130352457Y-67936400D01*
X139062856Y-67936400D01*
X139121047Y-67955307D01*
X139157011Y-68004807D01*
X139157011Y-68065993D01*
X139132860Y-68105404D01*
X135467759Y-71770504D01*
X135413242Y-71798281D01*
X135397755Y-71799500D01*
X134774983Y-71799500D01*
X134672211Y-71809999D01*
X134672199Y-71810002D01*
X134505663Y-71865187D01*
X134356347Y-71957285D01*
X134232285Y-72081347D01*
X134140187Y-72230663D01*
X134085000Y-72397205D01*
X134074500Y-72499983D01*
X134074500Y-73500016D01*
X134084999Y-73602788D01*
X134085000Y-73602795D01*
X134085001Y-73602797D01*
X134127982Y-73732506D01*
X134140187Y-73769336D01*
X134232285Y-73918652D01*
X134232286Y-73918653D01*
X134232288Y-73918656D01*
X134356344Y-74042712D01*
X134402472Y-74071163D01*
X134442073Y-74117803D01*
X134449500Y-74155424D01*
X134449500Y-82804154D01*
X134430593Y-82862345D01*
X134402473Y-82888414D01*
X134331348Y-82932284D01*
X134207285Y-83056347D01*
X134115187Y-83205663D01*
X134060000Y-83372205D01*
X134049500Y-83474983D01*
X134049500Y-83474990D01*
X134049500Y-83474991D01*
X134049500Y-83981093D01*
X134049501Y-84393300D01*
X134030594Y-84451491D01*
X133981094Y-84487455D01*
X133950501Y-84492300D01*
X133704044Y-84492300D01*
X133645853Y-84473393D01*
X133634040Y-84463304D01*
X131790021Y-82619286D01*
X131790020Y-82619284D01*
X131678216Y-82507480D01*
X131629026Y-82479080D01*
X131588997Y-82455969D01*
X131588994Y-82455968D01*
X131541288Y-82428424D01*
X131541285Y-82428423D01*
X131388557Y-82387499D01*
X131230443Y-82387499D01*
X131224380Y-82387499D01*
X131224364Y-82387500D01*
X124178557Y-82387500D01*
X124020443Y-82387500D01*
X123973699Y-82400025D01*
X123867713Y-82428423D01*
X123820004Y-82455969D01*
X123820003Y-82455968D01*
X123730784Y-82507479D01*
X123618979Y-82619283D01*
X123618980Y-82619284D01*
X123618978Y-82619286D01*
X123618977Y-82619286D01*
X123467758Y-82770504D01*
X123413242Y-82798281D01*
X123397755Y-82799500D01*
X122774983Y-82799500D01*
X122672211Y-82809999D01*
X122672199Y-82810002D01*
X122505663Y-82865187D01*
X122356347Y-82957285D01*
X122232285Y-83081347D01*
X122140187Y-83230663D01*
X122140186Y-83230665D01*
X122140186Y-83230666D01*
X122106726Y-83331641D01*
X122070476Y-83380930D01*
X122012752Y-83399500D01*
X121970943Y-83399500D01*
X121877469Y-83424545D01*
X121818210Y-83440424D01*
X121773428Y-83466280D01*
X121681284Y-83519479D01*
X121569479Y-83631283D01*
X121569480Y-83631284D01*
X121569478Y-83631286D01*
X111452460Y-93748303D01*
X111397943Y-93776080D01*
X111372395Y-93776786D01*
X111350017Y-93774500D01*
X110749983Y-93774500D01*
X110647211Y-93784999D01*
X110647199Y-93785002D01*
X110480663Y-93840187D01*
X110331347Y-93932285D01*
X110207285Y-94056347D01*
X110115187Y-94205663D01*
X110060000Y-94372205D01*
X110049500Y-94474983D01*
X110049500Y-95110257D01*
X110030593Y-95168448D01*
X110020504Y-95180260D01*
X109799762Y-95401003D01*
X109745245Y-95428781D01*
X109729758Y-95430000D01*
X102049000Y-95430000D01*
X101990809Y-95411093D01*
X101954845Y-95361593D01*
X101950000Y-95331000D01*
X101950000Y-95250001D01*
X101949999Y-95250000D01*
X101049000Y-95250000D01*
X100990809Y-95231093D01*
X100954845Y-95181593D01*
X100950000Y-95151000D01*
X100950000Y-95000001D01*
X100949999Y-95000000D01*
X100799000Y-95000000D01*
X100740809Y-94981093D01*
X100704845Y-94931593D01*
X100700000Y-94901000D01*
X100700000Y-93775001D01*
X101200000Y-93775001D01*
X101200000Y-94749999D01*
X101200001Y-94750000D01*
X101949998Y-94750000D01*
X101949999Y-94749999D01*
X101949999Y-94475013D01*
X101939507Y-94372312D01*
X101939504Y-94372300D01*
X101884356Y-94205875D01*
X101792319Y-94056659D01*
X101668340Y-93932680D01*
X101519124Y-93840643D01*
X101352693Y-93785493D01*
X101249987Y-93775000D01*
X101200001Y-93775000D01*
X101200000Y-93775001D01*
X100700000Y-93775001D01*
X100700000Y-93774999D01*
X100650015Y-93775000D01*
X100650012Y-93775001D01*
X100547312Y-93785492D01*
X100547300Y-93785495D01*
X100380875Y-93840643D01*
X100231659Y-93932680D01*
X100107680Y-94056659D01*
X100084553Y-94094154D01*
X100037911Y-94133754D01*
X99976901Y-94138377D01*
X99924825Y-94106255D01*
X99916032Y-94094152D01*
X99892714Y-94056347D01*
X99892713Y-94056346D01*
X99892712Y-94056344D01*
X99768656Y-93932288D01*
X99768653Y-93932286D01*
X99768652Y-93932285D01*
X99619336Y-93840187D01*
X99619335Y-93840186D01*
X99619334Y-93840186D01*
X99452797Y-93785001D01*
X99452794Y-93785000D01*
X99350016Y-93774500D01*
X98749983Y-93774500D01*
X98647211Y-93784999D01*
X98647199Y-93785002D01*
X98480663Y-93840187D01*
X98331347Y-93932285D01*
X98207285Y-94056347D01*
X98115187Y-94205663D01*
X98060000Y-94372205D01*
X98049500Y-94474983D01*
X98049500Y-95525016D01*
X98059999Y-95627788D01*
X98060000Y-95627795D01*
X98060001Y-95627797D01*
X98115116Y-95794124D01*
X98115187Y-95794336D01*
X98207285Y-95943652D01*
X98207286Y-95943653D01*
X98207288Y-95943656D01*
X98331344Y-96067712D01*
X98480666Y-96159814D01*
X98647203Y-96214999D01*
X98749991Y-96225500D01*
X98797256Y-96225499D01*
X98855445Y-96244405D01*
X98891410Y-96293904D01*
X98891411Y-96355090D01*
X98867260Y-96394502D01*
X98681286Y-96580477D01*
X98681286Y-96580478D01*
X98681284Y-96580480D01*
X98681283Y-96580479D01*
X98569479Y-96692284D01*
X98522185Y-96774199D01*
X98522186Y-96774200D01*
X98490423Y-96829215D01*
X98449499Y-96981943D01*
X98449499Y-96981945D01*
X98449499Y-97148031D01*
X98449500Y-97148044D01*
X98449500Y-104804154D01*
X98430593Y-104862345D01*
X98402473Y-104888414D01*
X98331348Y-104932284D01*
X98207285Y-105056347D01*
X98115187Y-105205663D01*
X98060000Y-105372205D01*
X98049500Y-105474983D01*
X98049500Y-106525016D01*
X98059999Y-106627788D01*
X98060000Y-106627795D01*
X98060001Y-106627797D01*
X98115116Y-106794124D01*
X98115187Y-106794336D01*
X98207285Y-106943652D01*
X98207286Y-106943653D01*
X98207288Y-106943656D01*
X98331344Y-107067712D01*
X98480666Y-107159814D01*
X98647203Y-107214999D01*
X98749991Y-107225500D01*
X99350008Y-107225499D01*
X99350016Y-107225499D01*
X99452788Y-107215000D01*
X99452788Y-107214999D01*
X99452797Y-107214999D01*
X99619334Y-107159814D01*
X99768656Y-107067712D01*
X99892712Y-106943656D01*
X99916033Y-106905846D01*
X99962672Y-106866246D01*
X100023682Y-106861622D01*
X100075759Y-106893741D01*
X100084553Y-106905846D01*
X100107679Y-106943339D01*
X100231659Y-107067319D01*
X100380875Y-107159356D01*
X100547306Y-107214506D01*
X100650013Y-107224999D01*
X100700000Y-107224998D01*
X100700000Y-106250001D01*
X101200000Y-106250001D01*
X101200000Y-107224998D01*
X101200001Y-107224999D01*
X101249986Y-107224999D01*
X101352687Y-107214507D01*
X101352699Y-107214504D01*
X101519124Y-107159356D01*
X101668340Y-107067319D01*
X101792319Y-106943340D01*
X101884356Y-106794124D01*
X101939506Y-106627693D01*
X101950000Y-106524987D01*
X101950000Y-106250001D01*
X101949999Y-106250000D01*
X101200001Y-106250000D01*
X101200000Y-106250001D01*
X100700000Y-106250001D01*
X100700000Y-104775001D01*
X101200000Y-104775001D01*
X101200000Y-105749999D01*
X101200001Y-105750000D01*
X101949998Y-105750000D01*
X101949999Y-105749999D01*
X101949999Y-105475013D01*
X101939507Y-105372312D01*
X101939504Y-105372300D01*
X101884356Y-105205875D01*
X101792319Y-105056659D01*
X101668340Y-104932680D01*
X101519124Y-104840643D01*
X101352693Y-104785493D01*
X101249987Y-104775000D01*
X101200001Y-104775000D01*
X101200000Y-104775001D01*
X100700000Y-104775001D01*
X100700000Y-104774999D01*
X100650015Y-104775000D01*
X100650012Y-104775001D01*
X100547312Y-104785492D01*
X100547300Y-104785495D01*
X100380875Y-104840643D01*
X100231659Y-104932680D01*
X100107680Y-105056659D01*
X100084553Y-105094154D01*
X100037911Y-105133754D01*
X99976901Y-105138377D01*
X99924825Y-105106255D01*
X99916032Y-105094152D01*
X99892714Y-105056347D01*
X99892713Y-105056346D01*
X99892712Y-105056344D01*
X99768656Y-104932288D01*
X99768653Y-104932286D01*
X99768651Y-104932284D01*
X99697527Y-104888414D01*
X99657926Y-104841773D01*
X99650500Y-104804154D01*
X99650500Y-97350743D01*
X99669407Y-97292552D01*
X99679496Y-97280739D01*
X100300239Y-96659996D01*
X100354756Y-96632219D01*
X100370243Y-96631000D01*
X109934364Y-96631000D01*
X109934380Y-96631001D01*
X109940443Y-96631001D01*
X110098555Y-96631001D01*
X110098557Y-96631001D01*
X110251285Y-96590077D01*
X110251287Y-96590075D01*
X110251289Y-96590075D01*
X110268193Y-96580314D01*
X110308189Y-96557223D01*
X110388216Y-96511020D01*
X110500020Y-96399216D01*
X110500021Y-96399213D01*
X110647540Y-96251693D01*
X110702055Y-96223918D01*
X110727599Y-96223212D01*
X110749991Y-96225500D01*
X111350008Y-96225499D01*
X111350016Y-96225499D01*
X111452788Y-96215000D01*
X111452788Y-96214999D01*
X111452797Y-96214999D01*
X111619334Y-96159814D01*
X111768656Y-96067712D01*
X111892712Y-95943656D01*
X111916033Y-95905846D01*
X111962672Y-95866246D01*
X112023682Y-95861622D01*
X112075759Y-95893741D01*
X112084553Y-95905846D01*
X112107679Y-95943339D01*
X112231659Y-96067319D01*
X112380875Y-96159356D01*
X112547306Y-96214506D01*
X112650013Y-96224999D01*
X112700000Y-96224998D01*
X112700000Y-95250001D01*
X113200000Y-95250001D01*
X113200000Y-96224998D01*
X113200001Y-96224999D01*
X113249986Y-96224999D01*
X113352687Y-96214507D01*
X113352699Y-96214504D01*
X113519124Y-96159356D01*
X113668340Y-96067319D01*
X113792319Y-95943340D01*
X113884356Y-95794124D01*
X113939506Y-95627693D01*
X113950000Y-95524987D01*
X113950000Y-95250001D01*
X113949999Y-95250000D01*
X113200001Y-95250000D01*
X113200000Y-95250001D01*
X112700000Y-95250001D01*
X112700000Y-95099000D01*
X112718907Y-95040809D01*
X112768407Y-95004845D01*
X112799000Y-95000000D01*
X112949999Y-95000000D01*
X112950000Y-94999999D01*
X112950000Y-94849000D01*
X112968907Y-94790809D01*
X113018407Y-94754845D01*
X113049000Y-94750000D01*
X113949998Y-94750000D01*
X113949999Y-94749999D01*
X113949999Y-94475013D01*
X113939507Y-94372312D01*
X113939504Y-94372300D01*
X113884357Y-94205877D01*
X113819945Y-94101449D01*
X113819944Y-94101447D01*
X113792319Y-94056659D01*
X113787787Y-94052127D01*
X122599500Y-94052127D01*
X122599501Y-95947872D01*
X122600983Y-95961658D01*
X122605908Y-96007480D01*
X122605909Y-96007485D01*
X122656202Y-96142329D01*
X122735212Y-96247872D01*
X122742454Y-96257546D01*
X122742457Y-96257548D01*
X122742458Y-96257549D01*
X122857670Y-96343797D01*
X122992511Y-96394089D01*
X122992512Y-96394089D01*
X122992517Y-96394091D01*
X123052127Y-96400500D01*
X124947872Y-96400499D01*
X125007483Y-96394091D01*
X125101154Y-96359154D01*
X125142329Y-96343797D01*
X125142329Y-96343796D01*
X125142331Y-96343796D01*
X125257546Y-96257546D01*
X125343796Y-96142331D01*
X125387195Y-96025969D01*
X125425245Y-95978056D01*
X125484192Y-95961658D01*
X125541519Y-95983039D01*
X125549947Y-95990554D01*
X125627635Y-96068242D01*
X125805978Y-96197815D01*
X126002394Y-96297895D01*
X126212049Y-96366015D01*
X126299140Y-96379809D01*
X126429775Y-96400500D01*
X126429778Y-96400500D01*
X126650225Y-96400500D01*
X126759086Y-96383257D01*
X126867951Y-96366015D01*
X127077606Y-96297895D01*
X127274022Y-96197815D01*
X127452365Y-96068242D01*
X127608242Y-95912365D01*
X127737815Y-95734022D01*
X127837895Y-95537606D01*
X127906015Y-95327951D01*
X127931278Y-95168447D01*
X127940500Y-95110225D01*
X127940500Y-94889774D01*
X127906015Y-94672051D01*
X127906015Y-94672049D01*
X127837895Y-94462394D01*
X127737815Y-94265978D01*
X127608242Y-94087635D01*
X127452365Y-93931758D01*
X127274022Y-93802185D01*
X127274021Y-93802184D01*
X127274019Y-93802183D01*
X127156802Y-93742458D01*
X127077606Y-93702105D01*
X127077602Y-93702104D01*
X127077599Y-93702102D01*
X126867948Y-93633984D01*
X126650225Y-93599500D01*
X126650222Y-93599500D01*
X126429778Y-93599500D01*
X126429775Y-93599500D01*
X126212051Y-93633984D01*
X126002400Y-93702102D01*
X125805980Y-93802183D01*
X125729610Y-93857669D01*
X125627635Y-93931758D01*
X125627633Y-93931759D01*
X125627630Y-93931762D01*
X125549956Y-94009436D01*
X125495439Y-94037213D01*
X125435007Y-94027641D01*
X125391743Y-93984377D01*
X125387195Y-93974028D01*
X125343797Y-93857670D01*
X125257549Y-93742458D01*
X125257548Y-93742457D01*
X125257546Y-93742454D01*
X125257541Y-93742450D01*
X125142329Y-93656202D01*
X125007488Y-93605910D01*
X125007483Y-93605909D01*
X125007481Y-93605908D01*
X125007477Y-93605908D01*
X124976249Y-93602550D01*
X124947873Y-93599500D01*
X124947870Y-93599500D01*
X123052133Y-93599500D01*
X123052129Y-93599500D01*
X123052128Y-93599501D01*
X123044949Y-93600272D01*
X122992519Y-93605908D01*
X122992514Y-93605909D01*
X122857670Y-93656202D01*
X122742458Y-93742450D01*
X122742450Y-93742458D01*
X122656202Y-93857670D01*
X122605910Y-93992511D01*
X122605909Y-93992517D01*
X122599500Y-94052127D01*
X113787787Y-94052127D01*
X113668340Y-93932680D01*
X113519124Y-93840643D01*
X113352693Y-93785493D01*
X113352694Y-93785493D01*
X113343146Y-93784518D01*
X113287179Y-93759794D01*
X113256433Y-93706895D01*
X113262652Y-93646027D01*
X113283200Y-93616033D01*
X122047729Y-84851504D01*
X122102244Y-84823729D01*
X122162676Y-84833300D01*
X122201992Y-84869538D01*
X122232285Y-84918652D01*
X122232286Y-84918653D01*
X122232288Y-84918656D01*
X122356344Y-85042712D01*
X122356346Y-85042713D01*
X122356347Y-85042714D01*
X122396876Y-85067712D01*
X122505666Y-85134814D01*
X122672203Y-85189999D01*
X122774991Y-85200500D01*
X123400008Y-85200499D01*
X123400016Y-85200499D01*
X123502788Y-85190000D01*
X123502788Y-85189999D01*
X123502797Y-85189999D01*
X123669334Y-85134814D01*
X123818656Y-85042712D01*
X123929998Y-84931369D01*
X123984513Y-84903594D01*
X124044945Y-84913165D01*
X124070000Y-84931368D01*
X124181344Y-85042712D01*
X124181346Y-85042713D01*
X124181347Y-85042714D01*
X124221876Y-85067712D01*
X124330666Y-85134814D01*
X124497203Y-85189999D01*
X124599991Y-85200500D01*
X125222756Y-85200499D01*
X125280947Y-85219406D01*
X125292760Y-85229495D01*
X130336578Y-90273313D01*
X130336580Y-90273316D01*
X130448384Y-90385120D01*
X130585316Y-90464177D01*
X130697119Y-90494134D01*
X130738042Y-90505100D01*
X130738043Y-90505100D01*
X154714657Y-90505100D01*
X154772848Y-90524007D01*
X154784661Y-90534096D01*
X158881061Y-94630496D01*
X158908838Y-94685013D01*
X158899267Y-94745445D01*
X158856002Y-94788710D01*
X158811057Y-94799500D01*
X158386491Y-94799500D01*
X158383923Y-94798665D01*
X158381315Y-94799365D01*
X158355053Y-94789285D01*
X158328300Y-94780593D01*
X158326712Y-94778408D01*
X158324193Y-94777441D01*
X158308876Y-94753859D01*
X158292336Y-94731093D01*
X158290866Y-94726129D01*
X158289962Y-94722756D01*
X158289961Y-94722755D01*
X158289960Y-94722749D01*
X158257877Y-94603015D01*
X158196778Y-94497189D01*
X158178820Y-94466084D01*
X158067016Y-94354280D01*
X158067013Y-94354278D01*
X156769021Y-93056286D01*
X156769020Y-93056284D01*
X156657216Y-92944480D01*
X156570404Y-92894360D01*
X156570403Y-92894359D01*
X156520288Y-92865425D01*
X156520285Y-92865423D01*
X156367557Y-92824499D01*
X156209443Y-92824499D01*
X156203380Y-92824499D01*
X156203364Y-92824500D01*
X135420537Y-92824500D01*
X135420521Y-92824499D01*
X135414458Y-92824499D01*
X135256343Y-92824499D01*
X135256340Y-92824499D01*
X135103619Y-92865421D01*
X135103618Y-92865421D01*
X134966684Y-92944480D01*
X131274886Y-96636278D01*
X131274884Y-96636280D01*
X131274883Y-96636279D01*
X131163080Y-96748082D01*
X131116238Y-96829216D01*
X131084024Y-96885012D01*
X131084023Y-96885014D01*
X131084023Y-96885015D01*
X131043099Y-97037743D01*
X131043099Y-97037745D01*
X131043099Y-97203831D01*
X131043100Y-97203844D01*
X131043100Y-97250347D01*
X131024482Y-97307647D01*
X131024513Y-97307668D01*
X131024440Y-97307776D01*
X131024193Y-97308538D01*
X131022255Y-97311046D01*
X130934209Y-97442814D01*
X130934203Y-97442825D01*
X130873863Y-97588501D01*
X130873863Y-97588503D01*
X130843100Y-97743155D01*
X130843100Y-97900844D01*
X130873863Y-98055496D01*
X130873863Y-98055498D01*
X130934203Y-98201174D01*
X130934209Y-98201185D01*
X130986912Y-98280059D01*
X131021811Y-98332289D01*
X131133311Y-98443789D01*
X131211476Y-98496017D01*
X131264414Y-98531390D01*
X131264425Y-98531396D01*
X131318238Y-98553685D01*
X131410103Y-98591737D01*
X131564758Y-98622500D01*
X131564759Y-98622500D01*
X131722441Y-98622500D01*
X131722442Y-98622500D01*
X131877097Y-98591737D01*
X132022779Y-98531394D01*
X132153889Y-98443789D01*
X132265389Y-98332289D01*
X132352994Y-98201179D01*
X132413337Y-98055497D01*
X132444100Y-97900842D01*
X132444100Y-97743158D01*
X132413337Y-97588503D01*
X132352995Y-97442823D01*
X132352995Y-97442822D01*
X132323559Y-97398769D01*
X132306950Y-97339881D01*
X132328127Y-97282477D01*
X132335861Y-97273772D01*
X134430497Y-95179137D01*
X134485013Y-95151361D01*
X134545445Y-95160932D01*
X134588710Y-95204197D01*
X134599500Y-95249142D01*
X134599501Y-95600500D01*
X134599501Y-95947872D01*
X134600983Y-95961658D01*
X134605908Y-96007480D01*
X134605909Y-96007485D01*
X134656202Y-96142329D01*
X134735212Y-96247872D01*
X134742454Y-96257546D01*
X134742457Y-96257548D01*
X134742458Y-96257549D01*
X134857670Y-96343797D01*
X134992511Y-96394089D01*
X134992512Y-96394089D01*
X134992517Y-96394091D01*
X135052127Y-96400500D01*
X136947872Y-96400499D01*
X137007483Y-96394091D01*
X137101154Y-96359154D01*
X137142329Y-96343797D01*
X137142329Y-96343796D01*
X137142331Y-96343796D01*
X137257546Y-96257546D01*
X137343796Y-96142331D01*
X137387195Y-96025969D01*
X137425245Y-95978056D01*
X137484192Y-95961658D01*
X137541519Y-95983039D01*
X137549947Y-95990554D01*
X137627635Y-96068242D01*
X137805978Y-96197815D01*
X138002394Y-96297895D01*
X138212049Y-96366015D01*
X138299140Y-96379809D01*
X138429775Y-96400500D01*
X138429778Y-96400500D01*
X138650225Y-96400500D01*
X138759086Y-96383257D01*
X138867951Y-96366015D01*
X139077606Y-96297895D01*
X139274022Y-96197815D01*
X139452365Y-96068242D01*
X139608242Y-95912365D01*
X139737815Y-95734022D01*
X139812293Y-95587851D01*
X139855555Y-95544591D01*
X139915987Y-95535019D01*
X139970503Y-95562796D01*
X139998281Y-95617313D01*
X139999500Y-95632800D01*
X139999500Y-96247866D01*
X139999500Y-96247869D01*
X139999501Y-96247872D01*
X140000541Y-96257546D01*
X140005909Y-96307483D01*
X140021917Y-96350405D01*
X140024536Y-96411534D01*
X140021917Y-96419595D01*
X140005908Y-96462516D01*
X140001570Y-96502874D01*
X140000168Y-96515919D01*
X139999500Y-96522129D01*
X139999500Y-97517866D01*
X139999501Y-97517870D01*
X140005909Y-97577483D01*
X140021917Y-97620405D01*
X140024536Y-97681534D01*
X140021917Y-97689595D01*
X140005908Y-97732516D01*
X139999500Y-97792129D01*
X139999500Y-98787866D01*
X139999501Y-98787870D01*
X140005909Y-98847483D01*
X140021917Y-98890405D01*
X140024536Y-98951534D01*
X140021917Y-98959595D01*
X140005908Y-99002516D01*
X139999500Y-99062129D01*
X139999500Y-100057866D01*
X139999501Y-100057870D01*
X140005909Y-100117483D01*
X140021917Y-100160405D01*
X140024536Y-100221534D01*
X140021917Y-100229595D01*
X140005908Y-100272516D01*
X139999500Y-100332129D01*
X139999500Y-101327866D01*
X139999501Y-101327870D01*
X140005909Y-101387483D01*
X140021917Y-101430405D01*
X140024536Y-101491534D01*
X140021917Y-101499595D01*
X140005908Y-101542516D01*
X139999500Y-101602127D01*
X139999500Y-102597866D01*
X139999500Y-102597869D01*
X139999501Y-102597872D01*
X140004259Y-102642133D01*
X140005909Y-102657483D01*
X140021917Y-102700405D01*
X140024536Y-102761534D01*
X140021917Y-102769595D01*
X140005908Y-102812516D01*
X139999500Y-102872129D01*
X139999500Y-103867866D01*
X139999501Y-103867870D01*
X140005909Y-103927483D01*
X140021917Y-103970405D01*
X140024536Y-104031534D01*
X140021917Y-104039595D01*
X140005908Y-104082516D01*
X140000541Y-104132436D01*
X139999500Y-104142127D01*
X139999500Y-104618656D01*
X139999501Y-105089800D01*
X139980594Y-105147991D01*
X139931094Y-105183955D01*
X139900501Y-105188800D01*
X139778355Y-105188800D01*
X139623703Y-105219563D01*
X139623701Y-105219563D01*
X139478025Y-105279903D01*
X139478014Y-105279909D01*
X139346911Y-105367511D01*
X139346907Y-105367514D01*
X139235414Y-105479007D01*
X139235411Y-105479011D01*
X139147809Y-105610114D01*
X139147803Y-105610125D01*
X139087463Y-105755801D01*
X139087463Y-105755803D01*
X139056700Y-105910455D01*
X139056700Y-106068144D01*
X139087463Y-106222796D01*
X139087463Y-106222798D01*
X139147803Y-106368474D01*
X139147809Y-106368485D01*
X139185905Y-106425498D01*
X139202514Y-106484386D01*
X139181337Y-106541789D01*
X139130464Y-106575783D01*
X139103590Y-106579500D01*
X137625144Y-106579500D01*
X137566953Y-106560593D01*
X137555140Y-106550504D01*
X133774021Y-102769386D01*
X133774020Y-102769384D01*
X133662216Y-102657580D01*
X133575404Y-102607460D01*
X133575403Y-102607459D01*
X133532206Y-102582519D01*
X133525285Y-102578523D01*
X133372557Y-102537599D01*
X133214443Y-102537599D01*
X133208380Y-102537599D01*
X133208364Y-102537600D01*
X125722457Y-102537600D01*
X125564342Y-102537600D01*
X125470869Y-102562645D01*
X125411610Y-102578524D01*
X125361495Y-102607459D01*
X125274684Y-102657579D01*
X125162879Y-102769383D01*
X125162880Y-102769384D01*
X125162878Y-102769386D01*
X124938086Y-102994178D01*
X124938084Y-102994180D01*
X124938083Y-102994179D01*
X124826280Y-103105982D01*
X124781050Y-103184322D01*
X124781051Y-103184323D01*
X124747223Y-103242915D01*
X124706299Y-103395643D01*
X124706299Y-103395645D01*
X124706299Y-103561731D01*
X124706300Y-103561744D01*
X124706300Y-103940063D01*
X124706299Y-103940081D01*
X124706299Y-103946143D01*
X124706299Y-104104257D01*
X124730198Y-104193446D01*
X124747223Y-104256985D01*
X124747224Y-104256987D01*
X124756520Y-104273087D01*
X124756521Y-104273090D01*
X124826279Y-104393915D01*
X124938083Y-104505720D01*
X124938084Y-104505720D01*
X124938085Y-104505721D01*
X124938084Y-104505721D01*
X125132864Y-104700500D01*
X125323684Y-104891320D01*
X125460616Y-104970377D01*
X125460618Y-104970377D01*
X125460619Y-104970378D01*
X125536979Y-104990839D01*
X125613340Y-105011300D01*
X125613342Y-105011301D01*
X125613343Y-105011301D01*
X125777521Y-105011301D01*
X125777537Y-105011300D01*
X126472697Y-105011300D01*
X126527698Y-105027984D01*
X126568121Y-105054994D01*
X126713803Y-105115337D01*
X126868458Y-105146100D01*
X126868459Y-105146100D01*
X127026141Y-105146100D01*
X127026142Y-105146100D01*
X127180797Y-105115337D01*
X127326479Y-105054994D01*
X127457589Y-104967389D01*
X127569089Y-104855889D01*
X127656694Y-104724779D01*
X127717037Y-104579097D01*
X127747800Y-104424442D01*
X127747871Y-104424086D01*
X127777768Y-104370702D01*
X127833333Y-104345086D01*
X127844969Y-104344400D01*
X132763457Y-104344400D01*
X132821648Y-104363307D01*
X132833461Y-104373396D01*
X137278778Y-108818713D01*
X137278780Y-108818716D01*
X137390584Y-108930520D01*
X137527516Y-109009577D01*
X137639319Y-109039534D01*
X137680242Y-109050500D01*
X137680243Y-109050500D01*
X138982868Y-109050500D01*
X139041059Y-109069407D01*
X139077023Y-109118907D01*
X139079966Y-109168814D01*
X139053800Y-109300355D01*
X139053800Y-109458044D01*
X139084563Y-109612696D01*
X139084563Y-109612698D01*
X139144903Y-109758374D01*
X139144909Y-109758385D01*
X139197612Y-109837259D01*
X139232511Y-109889489D01*
X139344011Y-110000989D01*
X139422176Y-110053217D01*
X139475114Y-110088590D01*
X139475125Y-110088596D01*
X139528938Y-110110885D01*
X139620803Y-110148937D01*
X139775458Y-110179700D01*
X139778281Y-110179978D01*
X139780218Y-110180647D01*
X139780228Y-110180649D01*
X139780227Y-110180650D01*
X139821754Y-110194990D01*
X139828083Y-110199019D01*
X139829584Y-110200520D01*
X139838777Y-110205827D01*
X139840600Y-110206988D01*
X139858764Y-110229009D01*
X139877874Y-110250233D01*
X139878108Y-110252460D01*
X139879533Y-110254188D01*
X139881284Y-110282677D01*
X139884270Y-110311083D01*
X139883149Y-110313023D01*
X139883287Y-110315258D01*
X139867957Y-110339336D01*
X139853677Y-110364071D01*
X139851630Y-110364982D01*
X139850428Y-110366871D01*
X139823880Y-110377337D01*
X139797782Y-110388958D01*
X139793890Y-110389161D01*
X139793507Y-110389313D01*
X139793084Y-110389203D01*
X139787433Y-110389500D01*
X126492643Y-110389500D01*
X126434452Y-110370593D01*
X126422639Y-110360504D01*
X123790936Y-107728801D01*
X123763585Y-107675120D01*
X123763549Y-107675128D01*
X123763523Y-107674999D01*
X123763159Y-107674284D01*
X123762755Y-107671140D01*
X123762600Y-107670360D01*
X123762600Y-107670358D01*
X123731837Y-107515703D01*
X123671494Y-107370021D01*
X123671493Y-107370019D01*
X123671490Y-107370014D01*
X123604009Y-107269023D01*
X123583889Y-107238911D01*
X123472389Y-107127411D01*
X123420159Y-107092512D01*
X123341285Y-107039809D01*
X123341274Y-107039803D01*
X123195597Y-106979463D01*
X123040944Y-106948700D01*
X123040942Y-106948700D01*
X122883258Y-106948700D01*
X122883255Y-106948700D01*
X122728603Y-106979463D01*
X122728601Y-106979463D01*
X122582925Y-107039803D01*
X122582914Y-107039809D01*
X122451811Y-107127411D01*
X122451807Y-107127414D01*
X122340314Y-107238907D01*
X122340311Y-107238911D01*
X122252709Y-107370014D01*
X122252703Y-107370025D01*
X122192363Y-107515701D01*
X122192363Y-107515703D01*
X122161600Y-107670355D01*
X122161600Y-107828044D01*
X122192363Y-107982696D01*
X122192363Y-107982698D01*
X122252703Y-108128374D01*
X122252709Y-108128385D01*
X122305412Y-108207259D01*
X122340311Y-108259489D01*
X122451811Y-108370989D01*
X122529976Y-108423217D01*
X122582914Y-108458590D01*
X122582925Y-108458596D01*
X122636738Y-108480885D01*
X122728603Y-108518937D01*
X122858566Y-108544788D01*
X122888028Y-108550649D01*
X122887703Y-108552280D01*
X122937438Y-108574019D01*
X122941701Y-108578036D01*
X125722378Y-111358713D01*
X125722380Y-111358716D01*
X125834184Y-111470520D01*
X125834186Y-111470521D01*
X125834189Y-111470524D01*
X125834188Y-111470524D01*
X125920991Y-111520637D01*
X125920993Y-111520639D01*
X125920994Y-111520639D01*
X125943816Y-111533815D01*
X125971115Y-111549577D01*
X126123842Y-111590500D01*
X126123843Y-111590500D01*
X139907738Y-111590500D01*
X139965929Y-111609407D01*
X140001893Y-111658907D01*
X140006171Y-111700083D01*
X139999500Y-111762130D01*
X139999501Y-112312200D01*
X139980594Y-112370391D01*
X139931094Y-112406355D01*
X139900501Y-112411200D01*
X118351443Y-112411200D01*
X118293252Y-112392293D01*
X118281439Y-112382204D01*
X113283207Y-107383972D01*
X113255430Y-107329455D01*
X113265001Y-107269023D01*
X113308266Y-107225758D01*
X113343153Y-107215480D01*
X113352695Y-107214505D01*
X113352699Y-107214504D01*
X113519124Y-107159356D01*
X113668340Y-107067319D01*
X113792319Y-106943340D01*
X113884356Y-106794124D01*
X113939506Y-106627693D01*
X113950000Y-106524987D01*
X113950000Y-106250001D01*
X113949999Y-106250000D01*
X113049000Y-106250000D01*
X112990809Y-106231093D01*
X112954845Y-106181593D01*
X112950000Y-106151000D01*
X112950000Y-106000001D01*
X112949999Y-106000000D01*
X112799000Y-106000000D01*
X112740809Y-105981093D01*
X112704845Y-105931593D01*
X112700000Y-105901000D01*
X112700000Y-104775001D01*
X113200000Y-104775001D01*
X113200000Y-105749999D01*
X113200001Y-105750000D01*
X113949998Y-105750000D01*
X113949999Y-105749999D01*
X113949999Y-105475013D01*
X113939507Y-105372312D01*
X113939504Y-105372300D01*
X113884356Y-105205875D01*
X113792319Y-105056659D01*
X113668340Y-104932680D01*
X113519124Y-104840643D01*
X113352693Y-104785493D01*
X113249987Y-104775000D01*
X113200001Y-104775000D01*
X113200000Y-104775001D01*
X112700000Y-104775001D01*
X112700000Y-104774999D01*
X112650015Y-104775000D01*
X112650012Y-104775001D01*
X112547312Y-104785492D01*
X112547300Y-104785495D01*
X112380875Y-104840643D01*
X112231659Y-104932680D01*
X112107680Y-105056659D01*
X112084553Y-105094154D01*
X112037911Y-105133754D01*
X111976901Y-105138377D01*
X111924825Y-105106255D01*
X111916032Y-105094152D01*
X111892714Y-105056347D01*
X111892713Y-105056346D01*
X111892712Y-105056344D01*
X111768656Y-104932288D01*
X111768653Y-104932286D01*
X111768652Y-104932285D01*
X111619336Y-104840187D01*
X111619335Y-104840186D01*
X111619334Y-104840186D01*
X111452797Y-104785001D01*
X111452794Y-104785000D01*
X111350016Y-104774500D01*
X110749983Y-104774500D01*
X110647211Y-104784999D01*
X110647199Y-104785002D01*
X110480663Y-104840187D01*
X110331347Y-104932285D01*
X110207285Y-105056347D01*
X110115187Y-105205663D01*
X110060000Y-105372205D01*
X110049500Y-105474983D01*
X110049500Y-106525016D01*
X110059999Y-106627788D01*
X110060000Y-106627795D01*
X110060001Y-106627797D01*
X110115116Y-106794124D01*
X110115187Y-106794336D01*
X110207285Y-106943652D01*
X110207286Y-106943653D01*
X110207288Y-106943656D01*
X110331344Y-107067712D01*
X110480666Y-107159814D01*
X110647203Y-107214999D01*
X110749991Y-107225500D01*
X111350008Y-107225499D01*
X111350011Y-107225499D01*
X111359294Y-107224550D01*
X111372392Y-107223212D01*
X111432203Y-107236105D01*
X111452460Y-107251695D01*
X117581178Y-113380413D01*
X117581180Y-113380416D01*
X117692984Y-113492220D01*
X117692986Y-113492221D01*
X117692989Y-113492224D01*
X117692988Y-113492224D01*
X117779791Y-113542337D01*
X117779793Y-113542339D01*
X117779794Y-113542339D01*
X117802616Y-113555515D01*
X117829915Y-113571277D01*
X117982642Y-113612200D01*
X117982643Y-113612200D01*
X125901000Y-113612200D01*
X125959191Y-113631107D01*
X125995155Y-113680607D01*
X126000000Y-113711200D01*
X126000000Y-119400500D01*
X125981093Y-119458691D01*
X125931593Y-119494655D01*
X125901000Y-119499500D01*
X95599500Y-119499500D01*
X95541309Y-119480593D01*
X95505345Y-119431093D01*
X95500500Y-119400500D01*
X95500500Y-83499983D01*
X98074500Y-83499983D01*
X98074500Y-84500016D01*
X98084999Y-84602788D01*
X98085000Y-84602795D01*
X98085001Y-84602797D01*
X98140116Y-84769124D01*
X98140187Y-84769336D01*
X98232285Y-84918652D01*
X98232286Y-84918653D01*
X98232288Y-84918656D01*
X98356344Y-85042712D01*
X98356346Y-85042713D01*
X98356347Y-85042714D01*
X98396876Y-85067712D01*
X98505666Y-85134814D01*
X98672203Y-85189999D01*
X98774991Y-85200500D01*
X99400008Y-85200499D01*
X99400016Y-85200499D01*
X99502788Y-85190000D01*
X99502788Y-85189999D01*
X99502797Y-85189999D01*
X99669334Y-85134814D01*
X99818656Y-85042712D01*
X99930351Y-84931016D01*
X99984866Y-84903240D01*
X100045298Y-84912811D01*
X100070357Y-84931017D01*
X100181659Y-85042319D01*
X100330875Y-85134356D01*
X100497306Y-85189506D01*
X100600013Y-85199999D01*
X100662499Y-85199998D01*
X100662500Y-85199998D01*
X100662500Y-84250001D01*
X101162500Y-84250001D01*
X101162500Y-85199998D01*
X101162501Y-85199999D01*
X101224986Y-85199999D01*
X101327687Y-85189507D01*
X101327699Y-85189504D01*
X101494124Y-85134356D01*
X101643340Y-85042319D01*
X101767319Y-84918340D01*
X101859356Y-84769124D01*
X101914506Y-84602693D01*
X101925000Y-84499987D01*
X101925000Y-84250001D01*
X101924999Y-84250000D01*
X101162501Y-84250000D01*
X101162500Y-84250001D01*
X100662500Y-84250001D01*
X100662500Y-82800001D01*
X101162500Y-82800001D01*
X101162500Y-83749999D01*
X101162501Y-83750000D01*
X101924998Y-83750000D01*
X101924999Y-83749999D01*
X101924999Y-83500028D01*
X101924997Y-83499997D01*
X101924996Y-83499983D01*
X110074500Y-83499983D01*
X110074500Y-84500016D01*
X110084999Y-84602788D01*
X110085000Y-84602795D01*
X110085001Y-84602797D01*
X110140116Y-84769124D01*
X110140187Y-84769336D01*
X110232285Y-84918652D01*
X110232286Y-84918653D01*
X110232288Y-84918656D01*
X110356344Y-85042712D01*
X110356346Y-85042713D01*
X110356347Y-85042714D01*
X110396876Y-85067712D01*
X110505666Y-85134814D01*
X110672203Y-85189999D01*
X110774991Y-85200500D01*
X111400008Y-85200499D01*
X111400016Y-85200499D01*
X111502788Y-85190000D01*
X111502788Y-85189999D01*
X111502797Y-85189999D01*
X111669334Y-85134814D01*
X111818656Y-85042712D01*
X111930351Y-84931016D01*
X111984866Y-84903240D01*
X112045298Y-84912811D01*
X112070357Y-84931017D01*
X112181659Y-85042319D01*
X112330875Y-85134356D01*
X112497306Y-85189506D01*
X112600013Y-85199999D01*
X112662499Y-85199998D01*
X112662500Y-85199998D01*
X112662500Y-84250001D01*
X113162500Y-84250001D01*
X113162500Y-85199998D01*
X113162501Y-85199999D01*
X113224986Y-85199999D01*
X113327687Y-85189507D01*
X113327699Y-85189504D01*
X113494124Y-85134356D01*
X113643340Y-85042319D01*
X113767319Y-84918340D01*
X113859356Y-84769124D01*
X113914506Y-84602693D01*
X113925000Y-84499987D01*
X113925000Y-84250001D01*
X113924999Y-84250000D01*
X113162501Y-84250000D01*
X113162500Y-84250001D01*
X112662500Y-84250001D01*
X112662500Y-82800001D01*
X113162500Y-82800001D01*
X113162500Y-83749999D01*
X113162501Y-83750000D01*
X113924998Y-83750000D01*
X113924999Y-83749999D01*
X113924999Y-83500013D01*
X113914507Y-83397312D01*
X113914504Y-83397300D01*
X113859356Y-83230875D01*
X113767319Y-83081659D01*
X113643340Y-82957680D01*
X113494124Y-82865643D01*
X113327693Y-82810493D01*
X113224987Y-82800000D01*
X113162501Y-82800000D01*
X113162500Y-82800001D01*
X112662500Y-82800001D01*
X112662500Y-82799999D01*
X112600014Y-82800000D01*
X112600013Y-82800001D01*
X112497312Y-82810492D01*
X112497300Y-82810495D01*
X112330875Y-82865643D01*
X112181658Y-82957681D01*
X112181655Y-82957683D01*
X112070356Y-83068982D01*
X112015840Y-83096759D01*
X111955408Y-83087187D01*
X111930352Y-83068984D01*
X111818656Y-82957288D01*
X111818653Y-82957286D01*
X111818652Y-82957285D01*
X111764845Y-82924097D01*
X111725243Y-82877456D01*
X111720620Y-82816445D01*
X111734501Y-82784835D01*
X111743694Y-82771079D01*
X111804037Y-82625397D01*
X111834800Y-82470742D01*
X111834800Y-82313058D01*
X111804037Y-82158403D01*
X111743694Y-82012721D01*
X111743693Y-82012719D01*
X111743690Y-82012714D01*
X111708317Y-81959776D01*
X111656089Y-81881611D01*
X111544589Y-81770111D01*
X111492359Y-81735212D01*
X111413485Y-81682509D01*
X111413474Y-81682503D01*
X111267797Y-81622163D01*
X111113144Y-81591400D01*
X111113142Y-81591400D01*
X110955458Y-81591400D01*
X110955455Y-81591400D01*
X110800803Y-81622163D01*
X110800801Y-81622163D01*
X110655125Y-81682503D01*
X110655114Y-81682509D01*
X110524011Y-81770111D01*
X110524007Y-81770114D01*
X110412514Y-81881607D01*
X110412511Y-81881611D01*
X110324909Y-82012714D01*
X110324903Y-82012725D01*
X110264563Y-82158401D01*
X110264563Y-82158403D01*
X110233800Y-82313055D01*
X110233800Y-82470744D01*
X110254308Y-82573845D01*
X110263347Y-82619286D01*
X110264563Y-82625396D01*
X110264563Y-82625398D01*
X110324903Y-82771074D01*
X110324909Y-82771085D01*
X110366944Y-82833993D01*
X110383553Y-82892881D01*
X110362376Y-82950284D01*
X110354633Y-82958998D01*
X110232286Y-83081345D01*
X110140187Y-83230663D01*
X110085000Y-83397205D01*
X110074500Y-83499983D01*
X101924996Y-83499983D01*
X101914507Y-83397312D01*
X101914504Y-83397300D01*
X101859356Y-83230875D01*
X101767319Y-83081659D01*
X101643340Y-82957680D01*
X101494124Y-82865643D01*
X101327693Y-82810493D01*
X101224987Y-82800000D01*
X101162501Y-82800000D01*
X101162500Y-82800001D01*
X100662500Y-82800001D01*
X100662500Y-82799999D01*
X100600014Y-82800000D01*
X100600013Y-82800001D01*
X100497312Y-82810492D01*
X100497300Y-82810495D01*
X100330875Y-82865643D01*
X100181658Y-82957681D01*
X100181655Y-82957683D01*
X100070356Y-83068982D01*
X100056498Y-83076042D01*
X100045530Y-83087069D01*
X100029924Y-83089582D01*
X100015840Y-83096759D01*
X100000477Y-83094325D01*
X99985123Y-83096799D01*
X99971085Y-83089670D01*
X99955408Y-83087187D01*
X99930533Y-83069165D01*
X99818656Y-82957288D01*
X99817105Y-82956331D01*
X99811789Y-82951043D01*
X99800271Y-82928584D01*
X99786286Y-82907585D01*
X99786523Y-82901775D01*
X99783869Y-82896600D01*
X99787751Y-82871664D01*
X99788780Y-82846450D01*
X99792948Y-82838283D01*
X99793282Y-82836143D01*
X99794841Y-82834575D01*
X99799290Y-82825860D01*
X99835894Y-82771079D01*
X99896237Y-82625397D01*
X99927000Y-82470742D01*
X99927000Y-82313058D01*
X99896237Y-82158403D01*
X99835894Y-82012721D01*
X99835893Y-82012719D01*
X99835890Y-82012714D01*
X99800517Y-81959776D01*
X99748289Y-81881611D01*
X99636789Y-81770111D01*
X99584559Y-81735212D01*
X99505685Y-81682509D01*
X99505674Y-81682503D01*
X99359997Y-81622163D01*
X99205344Y-81591400D01*
X99205342Y-81591400D01*
X99047658Y-81591400D01*
X99047655Y-81591400D01*
X98893003Y-81622163D01*
X98893001Y-81622163D01*
X98747325Y-81682503D01*
X98747314Y-81682509D01*
X98616211Y-81770111D01*
X98616207Y-81770114D01*
X98504714Y-81881607D01*
X98504711Y-81881611D01*
X98417109Y-82012714D01*
X98417103Y-82012725D01*
X98356763Y-82158401D01*
X98356763Y-82158403D01*
X98326000Y-82313055D01*
X98326000Y-82470744D01*
X98346508Y-82573845D01*
X98355547Y-82619286D01*
X98356763Y-82625396D01*
X98356763Y-82625398D01*
X98417104Y-82771076D01*
X98417104Y-82771077D01*
X98430441Y-82791036D01*
X98447050Y-82849925D01*
X98425872Y-82907328D01*
X98400100Y-82930298D01*
X98356347Y-82957285D01*
X98232285Y-83081347D01*
X98140187Y-83230663D01*
X98085000Y-83397205D01*
X98074500Y-83499983D01*
X95500500Y-83499983D01*
X95500500Y-61300000D01*
X97827704Y-61300000D01*
X97827899Y-61302486D01*
X97827901Y-61302493D01*
X97873719Y-61460200D01*
X97873719Y-61460201D01*
X97957314Y-61601552D01*
X98073447Y-61717685D01*
X98214799Y-61801280D01*
X98372510Y-61847100D01*
X98409363Y-61850000D01*
X98812499Y-61850000D01*
X98812500Y-61849999D01*
X98812500Y-61300001D01*
X98812499Y-61300000D01*
X97827704Y-61300000D01*
X95500500Y-61300000D01*
X95500500Y-60800000D01*
X97827704Y-60800000D01*
X98812499Y-60800000D01*
X98812500Y-60799999D01*
X98812500Y-60250001D01*
X99312500Y-60250001D01*
X99312500Y-60799999D01*
X99312501Y-60800000D01*
X100297295Y-60800000D01*
X109827704Y-60800000D01*
X110812499Y-60800000D01*
X110812500Y-60799999D01*
X110812500Y-60250001D01*
X111312500Y-60250001D01*
X111312500Y-60799999D01*
X111312501Y-60800000D01*
X112297295Y-60800000D01*
X121827704Y-60800000D01*
X122812499Y-60800000D01*
X122812500Y-60799999D01*
X122812500Y-60250001D01*
X122812499Y-60250000D01*
X122409363Y-60250000D01*
X122372510Y-60252899D01*
X122214799Y-60298719D01*
X122214798Y-60298719D01*
X122073447Y-60382314D01*
X121957314Y-60498447D01*
X121873719Y-60639798D01*
X121873719Y-60639799D01*
X121827901Y-60797506D01*
X121827899Y-60797513D01*
X121827704Y-60800000D01*
X112297295Y-60800000D01*
X112297100Y-60797513D01*
X112297098Y-60797506D01*
X112251280Y-60639799D01*
X112251280Y-60639798D01*
X112167685Y-60498447D01*
X112051552Y-60382314D01*
X111910200Y-60298719D01*
X111752489Y-60252899D01*
X111715637Y-60250000D01*
X111312501Y-60250000D01*
X111312500Y-60250001D01*
X110812500Y-60250001D01*
X110812499Y-60250000D01*
X110409363Y-60250000D01*
X110372510Y-60252899D01*
X110214799Y-60298719D01*
X110214798Y-60298719D01*
X110073447Y-60382314D01*
X109957314Y-60498447D01*
X109873719Y-60639798D01*
X109873719Y-60639799D01*
X109827901Y-60797506D01*
X109827899Y-60797513D01*
X109827704Y-60800000D01*
X100297295Y-60800000D01*
X100297100Y-60797513D01*
X100297098Y-60797506D01*
X100251280Y-60639799D01*
X100251280Y-60639798D01*
X100167685Y-60498447D01*
X100051552Y-60382314D01*
X99910200Y-60298719D01*
X99752489Y-60252899D01*
X99715637Y-60250000D01*
X99312501Y-60250000D01*
X99312500Y-60250001D01*
X98812500Y-60250001D01*
X98812499Y-60250000D01*
X98409363Y-60250000D01*
X98372510Y-60252899D01*
X98214799Y-60298719D01*
X98214798Y-60298719D01*
X98073447Y-60382314D01*
X97957314Y-60498447D01*
X97873719Y-60639798D01*
X97873719Y-60639799D01*
X97827901Y-60797506D01*
X97827899Y-60797513D01*
X97827704Y-60800000D01*
X95500500Y-60800000D01*
X95500500Y-51551249D01*
X95519407Y-51493058D01*
X95568907Y-51457094D01*
X95630093Y-51457094D01*
X95679593Y-51493058D01*
X95696598Y-51531935D01*
X95718429Y-51641688D01*
X95718429Y-51641690D01*
X95793808Y-51823673D01*
X95793814Y-51823685D01*
X95903249Y-51987462D01*
X95903252Y-51987466D01*
X96042533Y-52126747D01*
X96042537Y-52126750D01*
X96206314Y-52236185D01*
X96206326Y-52236191D01*
X96388304Y-52311568D01*
X96388315Y-52311571D01*
X96430000Y-52319862D01*
X96430000Y-51516988D01*
X96439940Y-51534205D01*
X96495795Y-51590060D01*
X96564204Y-51629556D01*
X96640504Y-51650000D01*
X96719496Y-51650000D01*
X96795796Y-51629556D01*
X96864205Y-51590060D01*
X96920060Y-51534205D01*
X96930000Y-51516988D01*
X96930000Y-52319861D01*
X96971684Y-52311571D01*
X96971695Y-52311568D01*
X97153673Y-52236191D01*
X97153685Y-52236185D01*
X97317462Y-52126750D01*
X97317466Y-52126747D01*
X97456747Y-51987466D01*
X97456750Y-51987462D01*
X97566185Y-51823685D01*
X97566191Y-51823673D01*
X97641570Y-51641690D01*
X97641570Y-51641688D01*
X97679999Y-51448493D01*
X97680000Y-51448490D01*
X97680000Y-51300001D01*
X97679999Y-51300000D01*
X96980000Y-51300000D01*
X96980000Y-50800000D01*
X97679999Y-50800000D01*
X97680000Y-50799999D01*
X97680000Y-50651509D01*
X97679999Y-50651506D01*
X97641570Y-50458311D01*
X97641570Y-50458309D01*
X97566191Y-50276326D01*
X97566185Y-50276314D01*
X97456750Y-50112537D01*
X97456747Y-50112533D01*
X97317466Y-49973252D01*
X97317462Y-49973249D01*
X97153685Y-49863814D01*
X97153673Y-49863808D01*
X96971691Y-49788429D01*
X96930000Y-49780136D01*
X96930000Y-50583011D01*
X96920060Y-50565795D01*
X96864205Y-50509940D01*
X96795796Y-50470444D01*
X96719496Y-50450000D01*
X96640504Y-50450000D01*
X96564204Y-50470444D01*
X96495795Y-50509940D01*
X96439940Y-50565795D01*
X96430000Y-50583011D01*
X96430000Y-49780136D01*
X96388308Y-49788429D01*
X96206326Y-49863808D01*
X96206314Y-49863814D01*
X96042537Y-49973249D01*
X96042533Y-49973252D01*
X95903252Y-50112533D01*
X95903249Y-50112537D01*
X95793814Y-50276314D01*
X95793808Y-50276326D01*
X95718429Y-50458309D01*
X95718429Y-50458311D01*
X95696598Y-50568064D01*
X95666701Y-50621448D01*
X95611136Y-50647064D01*
X95551127Y-50635127D01*
X95509594Y-50590197D01*
X95500500Y-50548750D01*
X95500500Y-47621249D01*
X95519407Y-47563058D01*
X95568907Y-47527094D01*
X95630093Y-47527094D01*
X95679593Y-47563058D01*
X95696598Y-47601935D01*
X95718429Y-47711688D01*
X95718429Y-47711690D01*
X95793808Y-47893673D01*
X95793814Y-47893685D01*
X95903249Y-48057462D01*
X95903252Y-48057466D01*
X96042533Y-48196747D01*
X96042537Y-48196750D01*
X96206314Y-48306185D01*
X96206326Y-48306191D01*
X96388304Y-48381568D01*
X96388315Y-48381571D01*
X96430000Y-48389862D01*
X96430000Y-47586988D01*
X96439940Y-47604205D01*
X96495795Y-47660060D01*
X96564204Y-47699556D01*
X96640504Y-47720000D01*
X96719496Y-47720000D01*
X96795796Y-47699556D01*
X96864205Y-47660060D01*
X96920060Y-47604205D01*
X96930000Y-47586988D01*
X96930000Y-48389861D01*
X96971684Y-48381571D01*
X96971695Y-48381568D01*
X97153673Y-48306191D01*
X97153685Y-48306185D01*
X97317462Y-48196750D01*
X97317466Y-48196747D01*
X97456747Y-48057466D01*
X97456750Y-48057462D01*
X97566185Y-47893685D01*
X97566187Y-47893681D01*
X97574980Y-47872451D01*
X97614715Y-47825924D01*
X97674209Y-47811638D01*
X97730738Y-47835050D01*
X97736436Y-47840316D01*
X97756635Y-47860515D01*
X97756637Y-47860516D01*
X97756639Y-47860518D01*
X97887861Y-47936279D01*
X97887859Y-47936279D01*
X97887863Y-47936280D01*
X97887865Y-47936281D01*
X98034234Y-47975500D01*
X98034236Y-47975500D01*
X98185764Y-47975500D01*
X98185766Y-47975500D01*
X98332135Y-47936281D01*
X98332137Y-47936279D01*
X98332139Y-47936279D01*
X98463360Y-47860518D01*
X98463360Y-47860517D01*
X98463365Y-47860515D01*
X98570515Y-47753365D01*
X98572746Y-47749501D01*
X98646279Y-47622139D01*
X98646279Y-47622137D01*
X98646281Y-47622135D01*
X98685500Y-47475766D01*
X98685500Y-47324234D01*
X98680246Y-47304625D01*
X98683449Y-47243525D01*
X98721954Y-47195975D01*
X98753273Y-47182618D01*
X98762306Y-47180500D01*
X98765694Y-47180500D01*
X98802569Y-47177598D01*
X98919190Y-47143715D01*
X98921699Y-47143127D01*
X98949720Y-47145481D01*
G37*
%TD.AperFunction*%
%TA.AperFunction,Conductor*%
G36*
X209458691Y-40519407D02*
G01*
X209494655Y-40568907D01*
X209499500Y-40599500D01*
X209499500Y-119400500D01*
X209480593Y-119458691D01*
X209431093Y-119494655D01*
X209400500Y-119499500D01*
X174099000Y-119499500D01*
X174040809Y-119480593D01*
X174004845Y-119431093D01*
X174000000Y-119400500D01*
X174000000Y-113711200D01*
X174018907Y-113653009D01*
X174068407Y-113617045D01*
X174099000Y-113612200D01*
X182673164Y-113612200D01*
X182673180Y-113612201D01*
X182679243Y-113612201D01*
X182837356Y-113612201D01*
X182837357Y-113612201D01*
X182990085Y-113571277D01*
X183040204Y-113542339D01*
X183127016Y-113492220D01*
X183238820Y-113380416D01*
X183238821Y-113380413D01*
X188119234Y-108500001D01*
X190745001Y-108500001D01*
X190745001Y-108699986D01*
X190755492Y-108802687D01*
X190755495Y-108802699D01*
X190810643Y-108969124D01*
X190902680Y-109118340D01*
X191026659Y-109242319D01*
X191175875Y-109334356D01*
X191342306Y-109389506D01*
X191445013Y-109399999D01*
X191769998Y-109399999D01*
X191770000Y-109399998D01*
X191770000Y-108500001D01*
X192270000Y-108500001D01*
X192270000Y-109399998D01*
X192270001Y-109399999D01*
X192594986Y-109399999D01*
X192697687Y-109389507D01*
X192697699Y-109389504D01*
X192864124Y-109334356D01*
X193013340Y-109242319D01*
X193137319Y-109118340D01*
X193229356Y-108969124D01*
X193284506Y-108802693D01*
X193295000Y-108699987D01*
X193295000Y-108500001D01*
X198705001Y-108500001D01*
X198705001Y-108699986D01*
X198715492Y-108802687D01*
X198715495Y-108802699D01*
X198770643Y-108969124D01*
X198862680Y-109118340D01*
X198986659Y-109242319D01*
X199135875Y-109334356D01*
X199302306Y-109389506D01*
X199405013Y-109399999D01*
X199729998Y-109399999D01*
X199730000Y-109399998D01*
X199730000Y-108500001D01*
X200230000Y-108500001D01*
X200230000Y-109399998D01*
X200230001Y-109399999D01*
X200554986Y-109399999D01*
X200657687Y-109389507D01*
X200657699Y-109389504D01*
X200824124Y-109334356D01*
X200973340Y-109242319D01*
X201097319Y-109118340D01*
X201189356Y-108969124D01*
X201244506Y-108802693D01*
X201255000Y-108699987D01*
X201255000Y-108500001D01*
X201254999Y-108500000D01*
X200230001Y-108500000D01*
X200230000Y-108500001D01*
X199730000Y-108500001D01*
X199729999Y-108500000D01*
X198705002Y-108500000D01*
X198705001Y-108500001D01*
X193295000Y-108500001D01*
X193294999Y-108500000D01*
X192270001Y-108500000D01*
X192270000Y-108500001D01*
X191770000Y-108500001D01*
X191769999Y-108500000D01*
X190745002Y-108500000D01*
X190745001Y-108500001D01*
X188119234Y-108500001D01*
X188819223Y-107800012D01*
X190745000Y-107800012D01*
X190745000Y-107999999D01*
X190745001Y-108000000D01*
X191769999Y-108000000D01*
X191770000Y-107999999D01*
X191770000Y-107100001D01*
X192270000Y-107100001D01*
X192270000Y-107999999D01*
X192270001Y-108000000D01*
X193294998Y-108000000D01*
X193294999Y-107999999D01*
X193294999Y-107800013D01*
X193294999Y-107800012D01*
X198705000Y-107800012D01*
X198705000Y-107999999D01*
X198705001Y-108000000D01*
X199729999Y-108000000D01*
X199730000Y-107999999D01*
X199730000Y-107100001D01*
X200230000Y-107100001D01*
X200230000Y-107999999D01*
X200230001Y-108000000D01*
X201254998Y-108000000D01*
X201254999Y-107999999D01*
X201254999Y-107800013D01*
X201244507Y-107697312D01*
X201244504Y-107697300D01*
X201189356Y-107530875D01*
X201097319Y-107381659D01*
X200973340Y-107257680D01*
X200824124Y-107165643D01*
X200657693Y-107110493D01*
X200554987Y-107100000D01*
X200230001Y-107100000D01*
X200230000Y-107100001D01*
X199730000Y-107100001D01*
X199729999Y-107100000D01*
X199405013Y-107100000D01*
X199302312Y-107110492D01*
X199302300Y-107110495D01*
X199135875Y-107165643D01*
X198986659Y-107257680D01*
X198862680Y-107381659D01*
X198770643Y-107530875D01*
X198715493Y-107697306D01*
X198705000Y-107800012D01*
X193294999Y-107800012D01*
X193284507Y-107697312D01*
X193284504Y-107697300D01*
X193229356Y-107530875D01*
X193137319Y-107381659D01*
X193013340Y-107257680D01*
X192864124Y-107165643D01*
X192697693Y-107110493D01*
X192594987Y-107100000D01*
X192270001Y-107100000D01*
X192270000Y-107100001D01*
X191770000Y-107100001D01*
X191769999Y-107100000D01*
X191445013Y-107100000D01*
X191342312Y-107110492D01*
X191342300Y-107110495D01*
X191175875Y-107165643D01*
X191026659Y-107257680D01*
X190902680Y-107381659D01*
X190810643Y-107530875D01*
X190755493Y-107697306D01*
X190745000Y-107800012D01*
X188819223Y-107800012D01*
X191689740Y-104929495D01*
X191744257Y-104901718D01*
X191759744Y-104900499D01*
X192595016Y-104900499D01*
X192697788Y-104890000D01*
X192697788Y-104889999D01*
X192697797Y-104889999D01*
X192864334Y-104834814D01*
X193013656Y-104742712D01*
X193137712Y-104618656D01*
X193229814Y-104469334D01*
X193246705Y-104418359D01*
X193282956Y-104369070D01*
X193340680Y-104350500D01*
X198659320Y-104350500D01*
X198717511Y-104369407D01*
X198753295Y-104418360D01*
X198770185Y-104469332D01*
X198770188Y-104469338D01*
X198862285Y-104618652D01*
X198862286Y-104618653D01*
X198862288Y-104618656D01*
X198986344Y-104742712D01*
X198986346Y-104742713D01*
X198986347Y-104742714D01*
X199008850Y-104756594D01*
X199135666Y-104834814D01*
X199302203Y-104889999D01*
X199404991Y-104900500D01*
X200555008Y-104900499D01*
X200555016Y-104900499D01*
X200657788Y-104890000D01*
X200657788Y-104889999D01*
X200657797Y-104889999D01*
X200824334Y-104834814D01*
X200973656Y-104742712D01*
X201097712Y-104618656D01*
X201189814Y-104469334D01*
X201244999Y-104302797D01*
X201255500Y-104200009D01*
X201255499Y-103299992D01*
X201255499Y-103299988D01*
X201255427Y-103298574D01*
X201255499Y-103298306D01*
X201255499Y-103297472D01*
X201255724Y-103297472D01*
X201271352Y-103239497D01*
X201318960Y-103201064D01*
X201380067Y-103197954D01*
X201424303Y-103223538D01*
X204020504Y-105819739D01*
X204048281Y-105874256D01*
X204049500Y-105889743D01*
X204049500Y-106525016D01*
X204059999Y-106627788D01*
X204060000Y-106627795D01*
X204060001Y-106627797D01*
X204115116Y-106794124D01*
X204115187Y-106794336D01*
X204207285Y-106943652D01*
X204207286Y-106943653D01*
X204207288Y-106943656D01*
X204331344Y-107067712D01*
X204480666Y-107159814D01*
X204647203Y-107214999D01*
X204749991Y-107225500D01*
X205350008Y-107225499D01*
X205350016Y-107225499D01*
X205452788Y-107215000D01*
X205452788Y-107214999D01*
X205452797Y-107214999D01*
X205619334Y-107159814D01*
X205768656Y-107067712D01*
X205892712Y-106943656D01*
X205916033Y-106905846D01*
X205962672Y-106866246D01*
X206023682Y-106861622D01*
X206075759Y-106893741D01*
X206084553Y-106905846D01*
X206107679Y-106943339D01*
X206231659Y-107067319D01*
X206380875Y-107159356D01*
X206547306Y-107214506D01*
X206650013Y-107224999D01*
X206700000Y-107224998D01*
X206700000Y-106250001D01*
X207200000Y-106250001D01*
X207200000Y-107224998D01*
X207200001Y-107224999D01*
X207249986Y-107224999D01*
X207352687Y-107214507D01*
X207352699Y-107214504D01*
X207519124Y-107159356D01*
X207668340Y-107067319D01*
X207792319Y-106943340D01*
X207884356Y-106794124D01*
X207939506Y-106627693D01*
X207950000Y-106524987D01*
X207950000Y-106250001D01*
X207949999Y-106250000D01*
X207200001Y-106250000D01*
X207200000Y-106250001D01*
X206700000Y-106250001D01*
X206700000Y-104775001D01*
X207200000Y-104775001D01*
X207200000Y-105749999D01*
X207200001Y-105750000D01*
X207949998Y-105750000D01*
X207949999Y-105749999D01*
X207949999Y-105475013D01*
X207939507Y-105372312D01*
X207939504Y-105372300D01*
X207884356Y-105205875D01*
X207792319Y-105056659D01*
X207668340Y-104932680D01*
X207519124Y-104840643D01*
X207352693Y-104785493D01*
X207249987Y-104775000D01*
X207200001Y-104775000D01*
X207200000Y-104775001D01*
X206700000Y-104775001D01*
X206700000Y-104774999D01*
X206650015Y-104775000D01*
X206650012Y-104775001D01*
X206547312Y-104785492D01*
X206547300Y-104785495D01*
X206380875Y-104840643D01*
X206231659Y-104932680D01*
X206107680Y-105056659D01*
X206084553Y-105094154D01*
X206037911Y-105133754D01*
X205976901Y-105138377D01*
X205924825Y-105106255D01*
X205916032Y-105094152D01*
X205892714Y-105056347D01*
X205892713Y-105056346D01*
X205892712Y-105056344D01*
X205768656Y-104932288D01*
X205768653Y-104932286D01*
X205768652Y-104932285D01*
X205619336Y-104840187D01*
X205619335Y-104840186D01*
X205619334Y-104840186D01*
X205452797Y-104785001D01*
X205452794Y-104785000D01*
X205350016Y-104774500D01*
X204749987Y-104774500D01*
X204727598Y-104776787D01*
X204667787Y-104763888D01*
X204647538Y-104748303D01*
X196505096Y-96605861D01*
X196477319Y-96551344D01*
X196476100Y-96535857D01*
X196476100Y-96316861D01*
X196495007Y-96258670D01*
X196544507Y-96222706D01*
X196585163Y-96218374D01*
X196650014Y-96224999D01*
X196700000Y-96224998D01*
X196700000Y-95250001D01*
X197200000Y-95250001D01*
X197200000Y-96224998D01*
X197200001Y-96224999D01*
X197249986Y-96224999D01*
X197352687Y-96214507D01*
X197352699Y-96214504D01*
X197519124Y-96159356D01*
X197668340Y-96067319D01*
X197792319Y-95943340D01*
X197884356Y-95794124D01*
X197939506Y-95627693D01*
X197950000Y-95524987D01*
X197950000Y-95250001D01*
X197949999Y-95250000D01*
X197200001Y-95250000D01*
X197200000Y-95250001D01*
X196700000Y-95250001D01*
X196700000Y-93796555D01*
X197013100Y-93796555D01*
X197013100Y-93954244D01*
X197019094Y-93984377D01*
X197043337Y-94106255D01*
X197043863Y-94108896D01*
X197043863Y-94108898D01*
X197104203Y-94254574D01*
X197104209Y-94254585D01*
X197154787Y-94330279D01*
X197183315Y-94372974D01*
X197200000Y-94427975D01*
X197200000Y-94749999D01*
X197200001Y-94750000D01*
X197949998Y-94750000D01*
X197949999Y-94749999D01*
X197949999Y-94745698D01*
X197968906Y-94687507D01*
X198018406Y-94651543D01*
X198029681Y-94648601D01*
X198047097Y-94645137D01*
X198192779Y-94584794D01*
X198323889Y-94497189D01*
X198323890Y-94497187D01*
X198327932Y-94494487D01*
X198328851Y-94495863D01*
X198379432Y-94476071D01*
X198385252Y-94475900D01*
X203635657Y-94475900D01*
X203693848Y-94494807D01*
X203705661Y-94504896D01*
X204020504Y-94819739D01*
X204048281Y-94874256D01*
X204049500Y-94889743D01*
X204049500Y-95525016D01*
X204059999Y-95627788D01*
X204060000Y-95627795D01*
X204060001Y-95627797D01*
X204115116Y-95794124D01*
X204115187Y-95794336D01*
X204207285Y-95943652D01*
X204207286Y-95943653D01*
X204207288Y-95943656D01*
X204331344Y-96067712D01*
X204480666Y-96159814D01*
X204647203Y-96214999D01*
X204749991Y-96225500D01*
X205350008Y-96225499D01*
X205350016Y-96225499D01*
X205452788Y-96215000D01*
X205452788Y-96214999D01*
X205452797Y-96214999D01*
X205619334Y-96159814D01*
X205768656Y-96067712D01*
X205892712Y-95943656D01*
X205916033Y-95905846D01*
X205962672Y-95866246D01*
X206023682Y-95861622D01*
X206075759Y-95893741D01*
X206084553Y-95905846D01*
X206107679Y-95943339D01*
X206231659Y-96067319D01*
X206380875Y-96159356D01*
X206547306Y-96214506D01*
X206650013Y-96224999D01*
X206700000Y-96224998D01*
X206700000Y-95250001D01*
X207200000Y-95250001D01*
X207200000Y-96224998D01*
X207200001Y-96224999D01*
X207249986Y-96224999D01*
X207352687Y-96214507D01*
X207352699Y-96214504D01*
X207519124Y-96159356D01*
X207668340Y-96067319D01*
X207792319Y-95943340D01*
X207884356Y-95794124D01*
X207939506Y-95627693D01*
X207950000Y-95524987D01*
X207950000Y-95250001D01*
X207949999Y-95250000D01*
X207200001Y-95250000D01*
X207200000Y-95250001D01*
X206700000Y-95250001D01*
X206700000Y-93775001D01*
X207200000Y-93775001D01*
X207200000Y-94749999D01*
X207200001Y-94750000D01*
X207949998Y-94750000D01*
X207949999Y-94749999D01*
X207949999Y-94475013D01*
X207939507Y-94372312D01*
X207939504Y-94372300D01*
X207884356Y-94205875D01*
X207792319Y-94056659D01*
X207668340Y-93932680D01*
X207519124Y-93840643D01*
X207352693Y-93785493D01*
X207249987Y-93775000D01*
X207200001Y-93775000D01*
X207200000Y-93775001D01*
X206700000Y-93775001D01*
X206700000Y-93774999D01*
X206650015Y-93775000D01*
X206650012Y-93775001D01*
X206547312Y-93785492D01*
X206547300Y-93785495D01*
X206380875Y-93840643D01*
X206231659Y-93932680D01*
X206107680Y-94056659D01*
X206084553Y-94094154D01*
X206037911Y-94133754D01*
X205976901Y-94138377D01*
X205924825Y-94106255D01*
X205916032Y-94094152D01*
X205892714Y-94056347D01*
X205892713Y-94056346D01*
X205892712Y-94056344D01*
X205768656Y-93932288D01*
X205768653Y-93932286D01*
X205768652Y-93932285D01*
X205619336Y-93840187D01*
X205619335Y-93840186D01*
X205619334Y-93840186D01*
X205452797Y-93785001D01*
X205452794Y-93785000D01*
X205350016Y-93774500D01*
X204749987Y-93774500D01*
X204727598Y-93776787D01*
X204667787Y-93763888D01*
X204647538Y-93748303D01*
X204405921Y-93506686D01*
X204405920Y-93506684D01*
X204294116Y-93394880D01*
X204207304Y-93344760D01*
X204207303Y-93344759D01*
X204157188Y-93315825D01*
X204157185Y-93315823D01*
X204004457Y-93274899D01*
X203846343Y-93274899D01*
X203840280Y-93274899D01*
X203840264Y-93274900D01*
X198385252Y-93274900D01*
X198327952Y-93256282D01*
X198327932Y-93256313D01*
X198327824Y-93256240D01*
X198327061Y-93255993D01*
X198324555Y-93254056D01*
X198192785Y-93166009D01*
X198192774Y-93166003D01*
X198047097Y-93105663D01*
X197892444Y-93074900D01*
X197892442Y-93074900D01*
X197734758Y-93074900D01*
X197734755Y-93074900D01*
X197580103Y-93105663D01*
X197580101Y-93105663D01*
X197434425Y-93166003D01*
X197434414Y-93166009D01*
X197303311Y-93253611D01*
X197303307Y-93253614D01*
X197191814Y-93365107D01*
X197191811Y-93365111D01*
X197104209Y-93496214D01*
X197104203Y-93496225D01*
X197043863Y-93641901D01*
X197043863Y-93641903D01*
X197013100Y-93796555D01*
X196700000Y-93796555D01*
X196700000Y-93774999D01*
X196650015Y-93775000D01*
X196650012Y-93775001D01*
X196547312Y-93785492D01*
X196547300Y-93785495D01*
X196390622Y-93837413D01*
X196367163Y-93837549D01*
X196343996Y-93841219D01*
X196337136Y-93837724D01*
X196329438Y-93837769D01*
X196289479Y-93813442D01*
X196240859Y-93764823D01*
X196240858Y-93764823D01*
X187240021Y-84763986D01*
X187240020Y-84763984D01*
X187128216Y-84652180D01*
X187128213Y-84652178D01*
X187038704Y-84600500D01*
X187038701Y-84600499D01*
X186991288Y-84573124D01*
X186991285Y-84573123D01*
X186838557Y-84532199D01*
X186680443Y-84532199D01*
X186674380Y-84532199D01*
X186674364Y-84532200D01*
X186049000Y-84532200D01*
X185990809Y-84513293D01*
X185954845Y-84463793D01*
X185950000Y-84433200D01*
X185950000Y-84250001D01*
X185949999Y-84250000D01*
X185049000Y-84250000D01*
X184990809Y-84231093D01*
X184954845Y-84181593D01*
X184950000Y-84151000D01*
X184950000Y-84000001D01*
X184949999Y-84000000D01*
X184799000Y-84000000D01*
X184740809Y-83981093D01*
X184704845Y-83931593D01*
X184700000Y-83901000D01*
X184700000Y-82775001D01*
X185200000Y-82775001D01*
X185200000Y-83749999D01*
X185200001Y-83750000D01*
X185949998Y-83750000D01*
X185949999Y-83749999D01*
X185949999Y-83475011D01*
X185939507Y-83372312D01*
X185939504Y-83372300D01*
X185884356Y-83205875D01*
X185792319Y-83056659D01*
X185668340Y-82932680D01*
X185519124Y-82840643D01*
X185352693Y-82785493D01*
X185249987Y-82775000D01*
X185200001Y-82775000D01*
X185200000Y-82775001D01*
X184700000Y-82775001D01*
X184700000Y-82774999D01*
X184650015Y-82775000D01*
X184650012Y-82775001D01*
X184547312Y-82785492D01*
X184547300Y-82785495D01*
X184380875Y-82840643D01*
X184231659Y-82932680D01*
X184107680Y-83056659D01*
X184084553Y-83094154D01*
X184037911Y-83133754D01*
X183976901Y-83138377D01*
X183924825Y-83106255D01*
X183916032Y-83094152D01*
X183892714Y-83056347D01*
X183892713Y-83056346D01*
X183892712Y-83056344D01*
X183768656Y-82932288D01*
X183768653Y-82932286D01*
X183768652Y-82932285D01*
X183619336Y-82840187D01*
X183619335Y-82840186D01*
X183619334Y-82840186D01*
X183452797Y-82785001D01*
X183452794Y-82785000D01*
X183350016Y-82774500D01*
X182749983Y-82774500D01*
X182647211Y-82784999D01*
X182647199Y-82785002D01*
X182480663Y-82840187D01*
X182331345Y-82932286D01*
X182326823Y-82935863D01*
X182325849Y-82934631D01*
X182277739Y-82959126D01*
X182217310Y-82949535D01*
X182192279Y-82931344D01*
X177391439Y-78130504D01*
X177363662Y-78075987D01*
X177373233Y-78015555D01*
X177416498Y-77972290D01*
X177461443Y-77961500D01*
X184802648Y-77961500D01*
X184859947Y-77980117D01*
X184859968Y-77980087D01*
X184860075Y-77980159D01*
X184860839Y-77980407D01*
X184863344Y-77982343D01*
X184995114Y-78070390D01*
X184995125Y-78070396D01*
X185048938Y-78092685D01*
X185140803Y-78130737D01*
X185295458Y-78161500D01*
X185295459Y-78161500D01*
X185453141Y-78161500D01*
X185453142Y-78161500D01*
X185607797Y-78130737D01*
X185753479Y-78070394D01*
X185884589Y-77982789D01*
X185996089Y-77871289D01*
X186083694Y-77740179D01*
X186144037Y-77594497D01*
X186174800Y-77439842D01*
X186174800Y-77282158D01*
X186144037Y-77127503D01*
X186083694Y-76981821D01*
X186083690Y-76981813D01*
X186003767Y-76862202D01*
X185987158Y-76803314D01*
X186008335Y-76745910D01*
X186059209Y-76711917D01*
X186086082Y-76708200D01*
X186867957Y-76708200D01*
X186926148Y-76727107D01*
X186937961Y-76737196D01*
X194020504Y-83819740D01*
X194048281Y-83874257D01*
X194049500Y-83889744D01*
X194049500Y-84525016D01*
X194059999Y-84627788D01*
X194060000Y-84627795D01*
X194060001Y-84627797D01*
X194115116Y-84794124D01*
X194115187Y-84794336D01*
X194207285Y-84943652D01*
X194207286Y-84943653D01*
X194207288Y-84943656D01*
X194331344Y-85067712D01*
X194480666Y-85159814D01*
X194647203Y-85214999D01*
X194749991Y-85225500D01*
X195350008Y-85225499D01*
X195350016Y-85225499D01*
X195452788Y-85215000D01*
X195452788Y-85214999D01*
X195452797Y-85214999D01*
X195619334Y-85159814D01*
X195768656Y-85067712D01*
X195892712Y-84943656D01*
X195915739Y-84906322D01*
X195962380Y-84866722D01*
X196023390Y-84862098D01*
X196075466Y-84894218D01*
X196084261Y-84906323D01*
X196107285Y-84943652D01*
X196107286Y-84943653D01*
X196107288Y-84943656D01*
X196231344Y-85067712D01*
X196380666Y-85159814D01*
X196547203Y-85214999D01*
X196649991Y-85225500D01*
X197250008Y-85225499D01*
X197250016Y-85225499D01*
X197352788Y-85215000D01*
X197352788Y-85214999D01*
X197352797Y-85214999D01*
X197519334Y-85159814D01*
X197668656Y-85067712D01*
X197792712Y-84943656D01*
X197884814Y-84794334D01*
X197939999Y-84627797D01*
X197950500Y-84525009D01*
X197950499Y-83474992D01*
X197950499Y-83474991D01*
X197950499Y-83474983D01*
X197940000Y-83372211D01*
X197939999Y-83372209D01*
X197939999Y-83372203D01*
X197884814Y-83205666D01*
X197792712Y-83056344D01*
X197668656Y-82932288D01*
X197668653Y-82932286D01*
X197668652Y-82932285D01*
X197519336Y-82840187D01*
X197519335Y-82840186D01*
X197519334Y-82840186D01*
X197352797Y-82785001D01*
X197352794Y-82785000D01*
X197250016Y-82774500D01*
X196649987Y-82774500D01*
X196627598Y-82776787D01*
X196567787Y-82763888D01*
X196547538Y-82748303D01*
X189299236Y-75500001D01*
X190745001Y-75500001D01*
X190745001Y-75699986D01*
X190755492Y-75802687D01*
X190755495Y-75802699D01*
X190810643Y-75969124D01*
X190902680Y-76118340D01*
X191026659Y-76242319D01*
X191175875Y-76334356D01*
X191342306Y-76389506D01*
X191445013Y-76399999D01*
X191769998Y-76399999D01*
X191770000Y-76399998D01*
X191770000Y-75500001D01*
X192270000Y-75500001D01*
X192270000Y-76399998D01*
X192270001Y-76399999D01*
X192594986Y-76399999D01*
X192697687Y-76389507D01*
X192697699Y-76389504D01*
X192864124Y-76334356D01*
X193013340Y-76242319D01*
X193137319Y-76118340D01*
X193229356Y-75969124D01*
X193284506Y-75802693D01*
X193295000Y-75699987D01*
X193295000Y-75500001D01*
X193294999Y-75500000D01*
X192270001Y-75500000D01*
X192270000Y-75500001D01*
X191770000Y-75500001D01*
X191769999Y-75500000D01*
X190745002Y-75500000D01*
X190745001Y-75500001D01*
X189299236Y-75500001D01*
X188637239Y-74838004D01*
X188609462Y-74783487D01*
X188619033Y-74723055D01*
X188662298Y-74679790D01*
X188707243Y-74669000D01*
X190648756Y-74669000D01*
X190706947Y-74687907D01*
X190742911Y-74737407D01*
X190747243Y-74778064D01*
X190745000Y-74800014D01*
X190745000Y-74999999D01*
X190745001Y-75000000D01*
X193294998Y-75000000D01*
X193294999Y-74999999D01*
X193294999Y-74800015D01*
X193292756Y-74778063D01*
X193305650Y-74718252D01*
X193351238Y-74677443D01*
X193391243Y-74669000D01*
X194828757Y-74669000D01*
X194886948Y-74687907D01*
X194898761Y-74697996D01*
X204020504Y-83819739D01*
X204048281Y-83874256D01*
X204049500Y-83889743D01*
X204049500Y-84525016D01*
X204059999Y-84627788D01*
X204060000Y-84627795D01*
X204060001Y-84627797D01*
X204115116Y-84794124D01*
X204115187Y-84794336D01*
X204207285Y-84943652D01*
X204207286Y-84943653D01*
X204207288Y-84943656D01*
X204331344Y-85067712D01*
X204480666Y-85159814D01*
X204647203Y-85214999D01*
X204749991Y-85225500D01*
X205350008Y-85225499D01*
X205350016Y-85225499D01*
X205452788Y-85215000D01*
X205452788Y-85214999D01*
X205452797Y-85214999D01*
X205619334Y-85159814D01*
X205768656Y-85067712D01*
X205892712Y-84943656D01*
X205916033Y-84905846D01*
X205962672Y-84866246D01*
X206023682Y-84861622D01*
X206075759Y-84893741D01*
X206084553Y-84905846D01*
X206107679Y-84943339D01*
X206231659Y-85067319D01*
X206380875Y-85159356D01*
X206547306Y-85214506D01*
X206650013Y-85224999D01*
X206700000Y-85224998D01*
X206700000Y-84250001D01*
X207200000Y-84250001D01*
X207200000Y-85224998D01*
X207200001Y-85224999D01*
X207249986Y-85224999D01*
X207352687Y-85214507D01*
X207352699Y-85214504D01*
X207519124Y-85159356D01*
X207668340Y-85067319D01*
X207792319Y-84943340D01*
X207884356Y-84794124D01*
X207939506Y-84627693D01*
X207950000Y-84524987D01*
X207950000Y-84250001D01*
X207949999Y-84250000D01*
X207200001Y-84250000D01*
X207200000Y-84250001D01*
X206700000Y-84250001D01*
X206700000Y-82775001D01*
X207200000Y-82775001D01*
X207200000Y-83749999D01*
X207200001Y-83750000D01*
X207949998Y-83750000D01*
X207949999Y-83749999D01*
X207949999Y-83475011D01*
X207939507Y-83372312D01*
X207939504Y-83372300D01*
X207884356Y-83205875D01*
X207792319Y-83056659D01*
X207668340Y-82932680D01*
X207519124Y-82840643D01*
X207352693Y-82785493D01*
X207249987Y-82775000D01*
X207200001Y-82775000D01*
X207200000Y-82775001D01*
X206700000Y-82775001D01*
X206700000Y-82774999D01*
X206650015Y-82775000D01*
X206650012Y-82775001D01*
X206547312Y-82785492D01*
X206547300Y-82785495D01*
X206380875Y-82840643D01*
X206231659Y-82932680D01*
X206107680Y-83056659D01*
X206084553Y-83094154D01*
X206037911Y-83133754D01*
X205976901Y-83138377D01*
X205924825Y-83106255D01*
X205916032Y-83094152D01*
X205892714Y-83056347D01*
X205892713Y-83056346D01*
X205892712Y-83056344D01*
X205768656Y-82932288D01*
X205768653Y-82932286D01*
X205768652Y-82932285D01*
X205619336Y-82840187D01*
X205619335Y-82840186D01*
X205619334Y-82840186D01*
X205452797Y-82785001D01*
X205452794Y-82785000D01*
X205350016Y-82774500D01*
X204749987Y-82774500D01*
X204727598Y-82776787D01*
X204667787Y-82763888D01*
X204647538Y-82748303D01*
X197399236Y-75500001D01*
X198705001Y-75500001D01*
X198705001Y-75699986D01*
X198715492Y-75802687D01*
X198715495Y-75802699D01*
X198770643Y-75969124D01*
X198862680Y-76118340D01*
X198986659Y-76242319D01*
X199135875Y-76334356D01*
X199302306Y-76389506D01*
X199405013Y-76399999D01*
X199729998Y-76399999D01*
X199730000Y-76399998D01*
X199730000Y-75500001D01*
X200230000Y-75500001D01*
X200230000Y-76399998D01*
X200230001Y-76399999D01*
X200554986Y-76399999D01*
X200657687Y-76389507D01*
X200657699Y-76389504D01*
X200824124Y-76334356D01*
X200973340Y-76242319D01*
X201097319Y-76118340D01*
X201189356Y-75969124D01*
X201244506Y-75802693D01*
X201255000Y-75699987D01*
X201255000Y-75500001D01*
X201254999Y-75500000D01*
X200230001Y-75500000D01*
X200230000Y-75500001D01*
X199730000Y-75500001D01*
X199729999Y-75500000D01*
X198705002Y-75500000D01*
X198705001Y-75500001D01*
X197399236Y-75500001D01*
X196699247Y-74800012D01*
X198705000Y-74800012D01*
X198705000Y-74999999D01*
X198705001Y-75000000D01*
X199729999Y-75000000D01*
X199730000Y-74999999D01*
X199730000Y-74100001D01*
X200230000Y-74100001D01*
X200230000Y-74999999D01*
X200230001Y-75000000D01*
X201254998Y-75000000D01*
X201254999Y-74999999D01*
X201254999Y-74800013D01*
X201244507Y-74697312D01*
X201244504Y-74697300D01*
X201189356Y-74530875D01*
X201097319Y-74381659D01*
X200973340Y-74257680D01*
X200824124Y-74165643D01*
X200657693Y-74110493D01*
X200554987Y-74100000D01*
X200230001Y-74100000D01*
X200230000Y-74100001D01*
X199730000Y-74100001D01*
X199729999Y-74100000D01*
X199405013Y-74100000D01*
X199302312Y-74110492D01*
X199302300Y-74110495D01*
X199135875Y-74165643D01*
X198986659Y-74257680D01*
X198862680Y-74381659D01*
X198770643Y-74530875D01*
X198715493Y-74697306D01*
X198705000Y-74800012D01*
X196699247Y-74800012D01*
X195599021Y-73699786D01*
X195599020Y-73699784D01*
X195487216Y-73587980D01*
X195400404Y-73537860D01*
X195400403Y-73537859D01*
X195350288Y-73508925D01*
X195350285Y-73508923D01*
X195197557Y-73467999D01*
X195039443Y-73467999D01*
X195033380Y-73467999D01*
X195033364Y-73468000D01*
X190390242Y-73468000D01*
X190332051Y-73449093D01*
X190296087Y-73399593D01*
X190296087Y-73338407D01*
X190320238Y-73298996D01*
X191689739Y-71929495D01*
X191744256Y-71901718D01*
X191759743Y-71900499D01*
X192595016Y-71900499D01*
X192697788Y-71890000D01*
X192697788Y-71889999D01*
X192697797Y-71889999D01*
X192864334Y-71834814D01*
X193013656Y-71742712D01*
X193137712Y-71618656D01*
X193229814Y-71469334D01*
X193246705Y-71418359D01*
X193282956Y-71369070D01*
X193340680Y-71350500D01*
X198659320Y-71350500D01*
X198717511Y-71369407D01*
X198753295Y-71418360D01*
X198770185Y-71469332D01*
X198770188Y-71469338D01*
X198862285Y-71618652D01*
X198862286Y-71618653D01*
X198862288Y-71618656D01*
X198986344Y-71742712D01*
X199135666Y-71834814D01*
X199302203Y-71889999D01*
X199404991Y-71900500D01*
X200555008Y-71900499D01*
X200555016Y-71900499D01*
X200657788Y-71890000D01*
X200657788Y-71889999D01*
X200657797Y-71889999D01*
X200824334Y-71834814D01*
X200973656Y-71742712D01*
X201097712Y-71618656D01*
X201189814Y-71469334D01*
X201244999Y-71302797D01*
X201255500Y-71200009D01*
X201255499Y-70299992D01*
X201255499Y-70299991D01*
X201255499Y-70299983D01*
X201245000Y-70197211D01*
X201244999Y-70197209D01*
X201244999Y-70197203D01*
X201189814Y-70030666D01*
X201097712Y-69881344D01*
X200973656Y-69757288D01*
X200973653Y-69757286D01*
X200973652Y-69757285D01*
X200824336Y-69665187D01*
X200824335Y-69665186D01*
X200824334Y-69665186D01*
X200657797Y-69610001D01*
X200657794Y-69610000D01*
X200555016Y-69599500D01*
X199404983Y-69599500D01*
X199302211Y-69609999D01*
X199302199Y-69610002D01*
X199135663Y-69665187D01*
X198986347Y-69757285D01*
X198862285Y-69881347D01*
X198770188Y-70030661D01*
X198770185Y-70030667D01*
X198753295Y-70081640D01*
X198717044Y-70130930D01*
X198659320Y-70149500D01*
X193340680Y-70149500D01*
X193282489Y-70130593D01*
X193246705Y-70081640D01*
X193239420Y-70059656D01*
X193229814Y-70030666D01*
X193137712Y-69881344D01*
X193013656Y-69757288D01*
X193013653Y-69757286D01*
X193013652Y-69757285D01*
X192864336Y-69665187D01*
X192864335Y-69665186D01*
X192864334Y-69665186D01*
X192697797Y-69610001D01*
X192697794Y-69610000D01*
X192595016Y-69599500D01*
X191444983Y-69599500D01*
X191342211Y-69609999D01*
X191342199Y-69610002D01*
X191175663Y-69665187D01*
X191026347Y-69757285D01*
X190902285Y-69881347D01*
X190810187Y-70030663D01*
X190755000Y-70197205D01*
X190744500Y-70299983D01*
X190744500Y-71135255D01*
X190725593Y-71193446D01*
X190715503Y-71205259D01*
X189839418Y-72081347D01*
X189550261Y-72370504D01*
X189495744Y-72398281D01*
X189480257Y-72399500D01*
X185987248Y-72399500D01*
X185929057Y-72380593D01*
X185893273Y-72331641D01*
X185859814Y-72230666D01*
X185767712Y-72081344D01*
X185643656Y-71957288D01*
X185643653Y-71957286D01*
X185643652Y-71957285D01*
X185494336Y-71865187D01*
X185494335Y-71865186D01*
X185494334Y-71865186D01*
X185327797Y-71810001D01*
X185327794Y-71810000D01*
X185225017Y-71799500D01*
X185225009Y-71799500D01*
X185019467Y-71799500D01*
X184961276Y-71780593D01*
X184925312Y-71731093D01*
X184925312Y-71669907D01*
X184928003Y-71662615D01*
X184947437Y-71615697D01*
X184978200Y-71461042D01*
X184978200Y-71303358D01*
X184947437Y-71148703D01*
X184896202Y-71025009D01*
X184887096Y-71003025D01*
X184887090Y-71003014D01*
X184837690Y-70929083D01*
X184799489Y-70871911D01*
X184687989Y-70760411D01*
X184635759Y-70725512D01*
X184556885Y-70672809D01*
X184556874Y-70672803D01*
X184411197Y-70612463D01*
X184256544Y-70581700D01*
X184256542Y-70581700D01*
X184098858Y-70581700D01*
X184098855Y-70581700D01*
X183944203Y-70612463D01*
X183944201Y-70612463D01*
X183798525Y-70672803D01*
X183798514Y-70672809D01*
X183667411Y-70760411D01*
X183667407Y-70760414D01*
X183555914Y-70871907D01*
X183555911Y-70871911D01*
X183468309Y-71003014D01*
X183468303Y-71003025D01*
X183407963Y-71148701D01*
X183407963Y-71148703D01*
X183377200Y-71303355D01*
X183377200Y-71461044D01*
X183407962Y-71615695D01*
X183427397Y-71662616D01*
X183432196Y-71723613D01*
X183400226Y-71775781D01*
X183343698Y-71799195D01*
X183335932Y-71799500D01*
X182774983Y-71799500D01*
X182672211Y-71809999D01*
X182672199Y-71810002D01*
X182505663Y-71865187D01*
X182356347Y-71957285D01*
X182232285Y-72081347D01*
X182216297Y-72107268D01*
X182169655Y-72146869D01*
X182108644Y-72151491D01*
X182062033Y-72125298D01*
X173459373Y-63522638D01*
X173431596Y-63468121D01*
X173441167Y-63407689D01*
X173484432Y-63364424D01*
X173544864Y-63354853D01*
X173554990Y-63357004D01*
X173602742Y-63369800D01*
X173602743Y-63369800D01*
X174598228Y-63369800D01*
X174656419Y-63388707D01*
X174692383Y-63438207D01*
X174695326Y-63488114D01*
X174676500Y-63582755D01*
X174676500Y-63740444D01*
X174707263Y-63895096D01*
X174707263Y-63895098D01*
X174767603Y-64040774D01*
X174767609Y-64040785D01*
X174791264Y-64076186D01*
X174855211Y-64171889D01*
X174966711Y-64283389D01*
X175044876Y-64335617D01*
X175097814Y-64370990D01*
X175097825Y-64370996D01*
X175151638Y-64393285D01*
X175243503Y-64431337D01*
X175398158Y-64462100D01*
X175398159Y-64462100D01*
X175555841Y-64462100D01*
X175555842Y-64462100D01*
X175710497Y-64431337D01*
X175856179Y-64370994D01*
X175987289Y-64283389D01*
X175987290Y-64283387D01*
X175991332Y-64280687D01*
X175992251Y-64282063D01*
X176042832Y-64262271D01*
X176048652Y-64262100D01*
X181340764Y-64262100D01*
X181340780Y-64262101D01*
X181346843Y-64262101D01*
X181504955Y-64262101D01*
X181504957Y-64262101D01*
X181657685Y-64221177D01*
X181657687Y-64221175D01*
X181657689Y-64221175D01*
X181680052Y-64208263D01*
X181733335Y-64177500D01*
X181794616Y-64142120D01*
X181906420Y-64030316D01*
X181906421Y-64030313D01*
X182707240Y-63229493D01*
X182761755Y-63201718D01*
X182777229Y-63200499D01*
X183400008Y-63200499D01*
X183400016Y-63200499D01*
X183502788Y-63190000D01*
X183502788Y-63189999D01*
X183502797Y-63189999D01*
X183669334Y-63134814D01*
X183818656Y-63042712D01*
X183929998Y-62931369D01*
X183984513Y-62903594D01*
X184044945Y-62913165D01*
X184070000Y-62931368D01*
X184181344Y-63042712D01*
X184181346Y-63042713D01*
X184181347Y-63042714D01*
X184211156Y-63061100D01*
X184330666Y-63134814D01*
X184497203Y-63189999D01*
X184599991Y-63200500D01*
X185225008Y-63200499D01*
X185225016Y-63200499D01*
X185327788Y-63190000D01*
X185327788Y-63189999D01*
X185327797Y-63189999D01*
X185494334Y-63134814D01*
X185643656Y-63042712D01*
X185767712Y-62918656D01*
X185859814Y-62769334D01*
X185914999Y-62602797D01*
X185925500Y-62500009D01*
X185925499Y-61499992D01*
X185925499Y-61499991D01*
X185925499Y-61499983D01*
X185915000Y-61397211D01*
X185914999Y-61397209D01*
X185914999Y-61397203D01*
X185859814Y-61230666D01*
X185767712Y-61081344D01*
X185643656Y-60957288D01*
X185643653Y-60957286D01*
X185643651Y-60957284D01*
X185560027Y-60905704D01*
X185520426Y-60859063D01*
X185513000Y-60821444D01*
X185513000Y-57913385D01*
X197699500Y-57913385D01*
X197699500Y-58086614D01*
X197726597Y-58257702D01*
X197726598Y-58257706D01*
X197780123Y-58422438D01*
X197780125Y-58422441D01*
X197858636Y-58576530D01*
X197858768Y-58576788D01*
X197960586Y-58716928D01*
X198083072Y-58839414D01*
X198223212Y-58941232D01*
X198377555Y-59019873D01*
X198377557Y-59019873D01*
X198377558Y-59019874D01*
X198377561Y-59019876D01*
X198542293Y-59073401D01*
X198542297Y-59073402D01*
X198713386Y-59100500D01*
X198713389Y-59100500D01*
X199286614Y-59100500D01*
X199457702Y-59073402D01*
X199457706Y-59073401D01*
X199622438Y-59019876D01*
X199622440Y-59019874D01*
X199622445Y-59019873D01*
X199776788Y-58941232D01*
X199783591Y-58936289D01*
X203497262Y-58936289D01*
X203497262Y-58936290D01*
X203503469Y-58940800D01*
X203503475Y-58940804D01*
X203657751Y-59019411D01*
X203822420Y-59072915D01*
X203993425Y-59100000D01*
X204166575Y-59100000D01*
X204337579Y-59072915D01*
X204502248Y-59019411D01*
X204656523Y-58940804D01*
X204656530Y-58940800D01*
X204662736Y-58936290D01*
X204079999Y-58353553D01*
X203497262Y-58936289D01*
X199783591Y-58936289D01*
X199916928Y-58839414D01*
X200039414Y-58716928D01*
X200141232Y-58576788D01*
X200219873Y-58422445D01*
X200219874Y-58422440D01*
X200219876Y-58422438D01*
X200273401Y-58257706D01*
X200273402Y-58257702D01*
X200300500Y-58086614D01*
X200300500Y-57913424D01*
X202980000Y-57913424D01*
X202980000Y-58086575D01*
X203007084Y-58257579D01*
X203060588Y-58422248D01*
X203139196Y-58576524D01*
X203143708Y-58582735D01*
X203726445Y-57999999D01*
X203680368Y-57953922D01*
X203730000Y-57953922D01*
X203730000Y-58046078D01*
X203753852Y-58135095D01*
X203799930Y-58214905D01*
X203865095Y-58280070D01*
X203944905Y-58326148D01*
X204033922Y-58350000D01*
X204126078Y-58350000D01*
X204215095Y-58326148D01*
X204294905Y-58280070D01*
X204360070Y-58214905D01*
X204406148Y-58135095D01*
X204430000Y-58046078D01*
X204430000Y-57999999D01*
X204433553Y-57999999D01*
X205016290Y-58582736D01*
X205020800Y-58576530D01*
X205020804Y-58576523D01*
X205099411Y-58422248D01*
X205152915Y-58257579D01*
X205180000Y-58086575D01*
X205180000Y-57913424D01*
X205152915Y-57742420D01*
X205099411Y-57577751D01*
X205020804Y-57423475D01*
X205020800Y-57423469D01*
X205016290Y-57417262D01*
X205016289Y-57417262D01*
X204433553Y-57999999D01*
X204430000Y-57999999D01*
X204430000Y-57953922D01*
X204406148Y-57864905D01*
X204360070Y-57785095D01*
X204294905Y-57719930D01*
X204215095Y-57673852D01*
X204126078Y-57650000D01*
X204033922Y-57650000D01*
X203944905Y-57673852D01*
X203865095Y-57719930D01*
X203799930Y-57785095D01*
X203753852Y-57864905D01*
X203730000Y-57953922D01*
X203680368Y-57953922D01*
X203143708Y-57417262D01*
X203139194Y-57423478D01*
X203060588Y-57577751D01*
X203007084Y-57742420D01*
X202980000Y-57913424D01*
X200300500Y-57913424D01*
X200300500Y-57913385D01*
X200273402Y-57742297D01*
X200273401Y-57742293D01*
X200219876Y-57577561D01*
X200219874Y-57577558D01*
X200219873Y-57577557D01*
X200219873Y-57577555D01*
X200141232Y-57423212D01*
X200039414Y-57283072D01*
X199916928Y-57160586D01*
X199783587Y-57063708D01*
X203497262Y-57063708D01*
X204079999Y-57646445D01*
X204662736Y-57063708D01*
X204656524Y-57059196D01*
X204502248Y-56980588D01*
X204337579Y-56927084D01*
X204166575Y-56900000D01*
X203993425Y-56900000D01*
X203822420Y-56927084D01*
X203657751Y-56980588D01*
X203503478Y-57059194D01*
X203497262Y-57063708D01*
X199783587Y-57063708D01*
X199776788Y-57058768D01*
X199776787Y-57058767D01*
X199776785Y-57058766D01*
X199622441Y-56980125D01*
X199622438Y-56980123D01*
X199457706Y-56926598D01*
X199457702Y-56926597D01*
X199286614Y-56899500D01*
X199286611Y-56899500D01*
X198713389Y-56899500D01*
X198713386Y-56899500D01*
X198542297Y-56926597D01*
X198542293Y-56926598D01*
X198377561Y-56980123D01*
X198377558Y-56980125D01*
X198223214Y-57058766D01*
X198083073Y-57160585D01*
X197960585Y-57283073D01*
X197858766Y-57423214D01*
X197780125Y-57577558D01*
X197780123Y-57577561D01*
X197726598Y-57742293D01*
X197726597Y-57742297D01*
X197699500Y-57913385D01*
X185513000Y-57913385D01*
X185513000Y-54887045D01*
X185513001Y-54887032D01*
X185513001Y-54720942D01*
X185513000Y-54720940D01*
X185506738Y-54697572D01*
X185472077Y-54568216D01*
X185393020Y-54431284D01*
X181308989Y-50347254D01*
X181281213Y-50292738D01*
X181283925Y-50249631D01*
X181285208Y-50245216D01*
X181297598Y-50202569D01*
X181300500Y-50165694D01*
X181300500Y-49899500D01*
X181319407Y-49841309D01*
X181368907Y-49805345D01*
X181399500Y-49800500D01*
X182590689Y-49800500D01*
X182590694Y-49800500D01*
X182627569Y-49797598D01*
X182785398Y-49751744D01*
X182926865Y-49668081D01*
X183043081Y-49551865D01*
X183126744Y-49410398D01*
X183172598Y-49252569D01*
X183175500Y-49215694D01*
X183175500Y-48784306D01*
X183172598Y-48747431D01*
X183126744Y-48589602D01*
X183043081Y-48448135D01*
X182926865Y-48331919D01*
X182785398Y-48248256D01*
X182627569Y-48202402D01*
X182627568Y-48202401D01*
X182627565Y-48202401D01*
X182604140Y-48200558D01*
X182590694Y-48199500D01*
X181284306Y-48199500D01*
X181271773Y-48200486D01*
X181247434Y-48202401D01*
X181247427Y-48202403D01*
X181089600Y-48248256D01*
X181025417Y-48286214D01*
X180975023Y-48300000D01*
X178827703Y-48300000D01*
X178824574Y-48303384D01*
X178812847Y-48352229D01*
X178766321Y-48391965D01*
X178728437Y-48399500D01*
X171043346Y-48399500D01*
X171021532Y-48397067D01*
X171013279Y-48395202D01*
X170991697Y-48386263D01*
X170841076Y-48356302D01*
X170839786Y-48356011D01*
X170814546Y-48341007D01*
X170788901Y-48326645D01*
X170788340Y-48325429D01*
X170787191Y-48324746D01*
X170775589Y-48297769D01*
X170763286Y-48271079D01*
X170763154Y-48268853D01*
X170763019Y-48268538D01*
X170763111Y-48268126D01*
X170762600Y-48259444D01*
X170762600Y-47800000D01*
X178827704Y-47800000D01*
X179812499Y-47800000D01*
X179812500Y-47799999D01*
X179812500Y-47250001D01*
X180312500Y-47250001D01*
X180312500Y-47799999D01*
X180312501Y-47800000D01*
X181297295Y-47800000D01*
X181297100Y-47797513D01*
X181297098Y-47797506D01*
X181251280Y-47639799D01*
X181251280Y-47639798D01*
X181167685Y-47498447D01*
X181051552Y-47382314D01*
X180910200Y-47298719D01*
X180752489Y-47252899D01*
X180715637Y-47250000D01*
X180312501Y-47250000D01*
X180312500Y-47250001D01*
X179812500Y-47250001D01*
X179812499Y-47250000D01*
X179409363Y-47250000D01*
X179372510Y-47252899D01*
X179214799Y-47298719D01*
X179214798Y-47298719D01*
X179073447Y-47382314D01*
X178957314Y-47498447D01*
X178873719Y-47639798D01*
X178873719Y-47639799D01*
X178827901Y-47797506D01*
X178827899Y-47797513D01*
X178827704Y-47800000D01*
X170762600Y-47800000D01*
X170762600Y-47646143D01*
X170756167Y-47622135D01*
X170750754Y-47601935D01*
X170721677Y-47493415D01*
X170673468Y-47409915D01*
X170642620Y-47356484D01*
X170530816Y-47244680D01*
X170530813Y-47244678D01*
X169996821Y-46710686D01*
X169996820Y-46710684D01*
X169885016Y-46598880D01*
X169879498Y-46595694D01*
X169788463Y-46543135D01*
X169788460Y-46543134D01*
X169748087Y-46519824D01*
X169748086Y-46519823D01*
X169748085Y-46519823D01*
X169595357Y-46478899D01*
X169437243Y-46478899D01*
X169431180Y-46478899D01*
X169431164Y-46478900D01*
X148839937Y-46478900D01*
X148839921Y-46478899D01*
X148833858Y-46478899D01*
X148675743Y-46478899D01*
X148675740Y-46478899D01*
X148630112Y-46491126D01*
X148604488Y-46494500D01*
X143810454Y-46494500D01*
X143752263Y-46475593D01*
X143740451Y-46465504D01*
X143701866Y-46426920D01*
X143701865Y-46426919D01*
X143560398Y-46343256D01*
X143402569Y-46297402D01*
X143402568Y-46297401D01*
X143402565Y-46297401D01*
X143379140Y-46295558D01*
X143365694Y-46294500D01*
X141584306Y-46294500D01*
X141571773Y-46295486D01*
X141547434Y-46297401D01*
X141547427Y-46297403D01*
X141389602Y-46343256D01*
X141248136Y-46426918D01*
X141131918Y-46543136D01*
X141048256Y-46684602D01*
X141002403Y-46842427D01*
X141002401Y-46842434D01*
X140999500Y-46879311D01*
X140999500Y-47030500D01*
X140980593Y-47088691D01*
X140931093Y-47124655D01*
X140900500Y-47129500D01*
X139099500Y-47129500D01*
X139041309Y-47110593D01*
X139005345Y-47061093D01*
X139000500Y-47030500D01*
X139000500Y-46879311D01*
X139000026Y-46873293D01*
X138997598Y-46842431D01*
X138951744Y-46684602D01*
X138868081Y-46543135D01*
X138751865Y-46426919D01*
X138610398Y-46343256D01*
X138452569Y-46297402D01*
X138452568Y-46297401D01*
X138452565Y-46297401D01*
X138429140Y-46295558D01*
X138415694Y-46294500D01*
X136634306Y-46294500D01*
X136621773Y-46295486D01*
X136597434Y-46297401D01*
X136597427Y-46297403D01*
X136439602Y-46343256D01*
X136298136Y-46426918D01*
X136181918Y-46543136D01*
X136098256Y-46684602D01*
X136052403Y-46842427D01*
X136052401Y-46842434D01*
X136049500Y-46879311D01*
X136049500Y-47030500D01*
X136030593Y-47088691D01*
X135981093Y-47124655D01*
X135950500Y-47129500D01*
X131592985Y-47129500D01*
X131534794Y-47110593D01*
X131505236Y-47076338D01*
X131489699Y-47046595D01*
X131489698Y-47046593D01*
X131361109Y-46888891D01*
X131203407Y-46760302D01*
X131203405Y-46760301D01*
X131203404Y-46760300D01*
X131023047Y-46666090D01*
X130827420Y-46610114D01*
X130787624Y-46606576D01*
X130708037Y-46599500D01*
X130708033Y-46599500D01*
X129591967Y-46599500D01*
X129485491Y-46608966D01*
X129472582Y-46610114D01*
X129472581Y-46610114D01*
X129472576Y-46610115D01*
X129276953Y-46666090D01*
X129096595Y-46760300D01*
X128938894Y-46888888D01*
X128938888Y-46888894D01*
X128810300Y-47046595D01*
X128716090Y-47226952D01*
X128660114Y-47422579D01*
X128660114Y-47422582D01*
X128650049Y-47535796D01*
X128649500Y-47541966D01*
X128649500Y-48300500D01*
X128630593Y-48358691D01*
X128581093Y-48394655D01*
X128550500Y-48399500D01*
X125398482Y-48399500D01*
X125340291Y-48380593D01*
X125304327Y-48331093D01*
X125302409Y-48324394D01*
X125301642Y-48321312D01*
X125301641Y-48321307D01*
X125217030Y-48150704D01*
X125097722Y-48002278D01*
X125003873Y-47926840D01*
X124970365Y-47875647D01*
X124973347Y-47814534D01*
X125003875Y-47772517D01*
X125097361Y-47697371D01*
X125097368Y-47697364D01*
X125216606Y-47549026D01*
X125216608Y-47549023D01*
X125301168Y-47378522D01*
X125347102Y-47193821D01*
X125349999Y-47151115D01*
X125350000Y-47151096D01*
X125350000Y-46950001D01*
X125349999Y-46950000D01*
X122350001Y-46950000D01*
X122350000Y-46950001D01*
X122350000Y-47151115D01*
X122352897Y-47193821D01*
X122352896Y-47193821D01*
X122398831Y-47378522D01*
X122483391Y-47549023D01*
X122483393Y-47549026D01*
X122602631Y-47697364D01*
X122602639Y-47697372D01*
X122696124Y-47772517D01*
X122729633Y-47823711D01*
X122726652Y-47884823D01*
X122696125Y-47926840D01*
X122602285Y-48002271D01*
X122602276Y-48002280D01*
X122482970Y-48150703D01*
X122398359Y-48321307D01*
X122352400Y-48506109D01*
X122352399Y-48506114D01*
X122349500Y-48548859D01*
X122349500Y-48711257D01*
X122330593Y-48769448D01*
X122281093Y-48805412D01*
X122219907Y-48805412D01*
X122180496Y-48781261D01*
X119648119Y-46248884D01*
X122350000Y-46248884D01*
X122350000Y-46449999D01*
X122350001Y-46450000D01*
X123599999Y-46450000D01*
X123600000Y-46449999D01*
X123600000Y-45450001D01*
X124100000Y-45450001D01*
X124100000Y-46449999D01*
X124100001Y-46450000D01*
X125349999Y-46450000D01*
X125350000Y-46449999D01*
X125350000Y-46248903D01*
X125349999Y-46248884D01*
X125347102Y-46206178D01*
X125347103Y-46206178D01*
X125301168Y-46021477D01*
X125216608Y-45850976D01*
X125216606Y-45850973D01*
X125097368Y-45702635D01*
X125097364Y-45702631D01*
X124949026Y-45583393D01*
X124949023Y-45583391D01*
X124778522Y-45498831D01*
X124593821Y-45452897D01*
X124551115Y-45450000D01*
X124100001Y-45450000D01*
X124100000Y-45450001D01*
X123600000Y-45450001D01*
X123599999Y-45450000D01*
X123148884Y-45450000D01*
X123106178Y-45452897D01*
X122921477Y-45498831D01*
X122750976Y-45583391D01*
X122750973Y-45583393D01*
X122602635Y-45702631D01*
X122602631Y-45702635D01*
X122483393Y-45850973D01*
X122483391Y-45850976D01*
X122398831Y-46021477D01*
X122352897Y-46206178D01*
X122350000Y-46248884D01*
X119648119Y-46248884D01*
X118585521Y-45186286D01*
X118585520Y-45186284D01*
X118473716Y-45074480D01*
X118473713Y-45074478D01*
X118370290Y-45014767D01*
X118370287Y-45014766D01*
X118336787Y-44995424D01*
X118336786Y-44995423D01*
X118336785Y-44995423D01*
X118184057Y-44954499D01*
X118025943Y-44954499D01*
X118019880Y-44954499D01*
X118019864Y-44954500D01*
X116810454Y-44954500D01*
X116752263Y-44935593D01*
X116740451Y-44925504D01*
X116701866Y-44886920D01*
X116701865Y-44886919D01*
X116560398Y-44803256D01*
X116402569Y-44757402D01*
X116402568Y-44757401D01*
X116402565Y-44757401D01*
X116379140Y-44755558D01*
X116365694Y-44754500D01*
X116365689Y-44754500D01*
X115564743Y-44754500D01*
X115506552Y-44735593D01*
X115494739Y-44725504D01*
X115307621Y-44538386D01*
X115307620Y-44538384D01*
X115195816Y-44426580D01*
X115195813Y-44426578D01*
X115082962Y-44361423D01*
X115082958Y-44361422D01*
X115058885Y-44347523D01*
X114906157Y-44306599D01*
X114748043Y-44306599D01*
X114741980Y-44306599D01*
X114741964Y-44306600D01*
X103739743Y-44306600D01*
X103681552Y-44287693D01*
X103669739Y-44277604D01*
X103541721Y-44149586D01*
X103541720Y-44149584D01*
X103429916Y-44037780D01*
X103343104Y-43987660D01*
X103343103Y-43987659D01*
X103292988Y-43958725D01*
X103292985Y-43958723D01*
X103140257Y-43917799D01*
X102982143Y-43917799D01*
X102976080Y-43917799D01*
X102976064Y-43917800D01*
X99497836Y-43917800D01*
X99497820Y-43917799D01*
X99491757Y-43917799D01*
X99333643Y-43917799D01*
X99180915Y-43958723D01*
X99180913Y-43958723D01*
X99180909Y-43958725D01*
X99130795Y-43987659D01*
X99043984Y-44037779D01*
X98932179Y-44149583D01*
X98932180Y-44149584D01*
X98379624Y-44702140D01*
X98333708Y-44728161D01*
X98325656Y-44730180D01*
X98297431Y-44732402D01*
X98174983Y-44767976D01*
X98173192Y-44768426D01*
X98159234Y-44767470D01*
X98121484Y-44767470D01*
X98002493Y-44732900D01*
X98000000Y-44732702D01*
X98000000Y-44819046D01*
X97981093Y-44877237D01*
X97971004Y-44889049D01*
X97881920Y-44978133D01*
X97798256Y-45119602D01*
X97752403Y-45277427D01*
X97752401Y-45277434D01*
X97749500Y-45314311D01*
X97749500Y-45856000D01*
X97744655Y-45870911D01*
X97744655Y-45886593D01*
X97735438Y-45899278D01*
X97730593Y-45914191D01*
X97717907Y-45923407D01*
X97708691Y-45936093D01*
X97693778Y-45940938D01*
X97681093Y-45950155D01*
X97650500Y-45955000D01*
X97599000Y-45955000D01*
X97540809Y-45936093D01*
X97504845Y-45886593D01*
X97500000Y-45856000D01*
X97500000Y-44732703D01*
X97499999Y-44732702D01*
X97497508Y-44732900D01*
X97339798Y-44778719D01*
X97198447Y-44862314D01*
X97082314Y-44978447D01*
X96998719Y-45119798D01*
X96998719Y-45119799D01*
X96952900Y-45277510D01*
X96951678Y-45293037D01*
X96930000Y-45345371D01*
X96930000Y-46153011D01*
X96920060Y-46135795D01*
X96864205Y-46079940D01*
X96795796Y-46040444D01*
X96719496Y-46020000D01*
X96640504Y-46020000D01*
X96564204Y-46040444D01*
X96495795Y-46079940D01*
X96439940Y-46135795D01*
X96430000Y-46153011D01*
X96430000Y-45350136D01*
X96388308Y-45358429D01*
X96206326Y-45433808D01*
X96206314Y-45433814D01*
X96042537Y-45543249D01*
X96042533Y-45543252D01*
X95903252Y-45682533D01*
X95903249Y-45682537D01*
X95793814Y-45846314D01*
X95793808Y-45846326D01*
X95718429Y-46028309D01*
X95718429Y-46028311D01*
X95696598Y-46138064D01*
X95666701Y-46191448D01*
X95611136Y-46217064D01*
X95551127Y-46205127D01*
X95509594Y-46160197D01*
X95500500Y-46118750D01*
X95500500Y-40599500D01*
X95519407Y-40541309D01*
X95568907Y-40505345D01*
X95599500Y-40500500D01*
X209400500Y-40500500D01*
X209458691Y-40519407D01*
G37*
%TD.AperFunction*%
%TA.AperFunction,Conductor*%
G36*
X160169503Y-95918938D02*
G01*
X166479878Y-102229313D01*
X166479880Y-102229316D01*
X166591684Y-102341120D01*
X166728616Y-102420177D01*
X166831218Y-102447669D01*
X166881342Y-102461100D01*
X166881343Y-102461100D01*
X180508357Y-102461100D01*
X180566548Y-102480007D01*
X180578361Y-102490096D01*
X182729910Y-104641645D01*
X182757687Y-104696162D01*
X182748116Y-104756594D01*
X182704851Y-104799859D01*
X182669978Y-104810135D01*
X182667334Y-104810405D01*
X182667329Y-104810406D01*
X182502287Y-104865095D01*
X182354311Y-104956368D01*
X182231368Y-105079311D01*
X182140095Y-105227287D01*
X182085406Y-105392329D01*
X182075000Y-105494183D01*
X182075000Y-105749999D01*
X182075001Y-105750000D01*
X182963500Y-105750000D01*
X183021691Y-105768907D01*
X183057655Y-105818407D01*
X183062500Y-105849000D01*
X183062500Y-105999999D01*
X183062501Y-106000000D01*
X183213500Y-106000000D01*
X183271691Y-106018907D01*
X183307655Y-106068407D01*
X183312500Y-106099000D01*
X183312500Y-107199999D01*
X183312501Y-107200000D01*
X183355816Y-107200000D01*
X183457670Y-107189593D01*
X183622712Y-107134904D01*
X183770688Y-107043631D01*
X183893633Y-106920686D01*
X183915445Y-106885324D01*
X183962086Y-106845722D01*
X184023096Y-106841099D01*
X184075172Y-106873219D01*
X184083963Y-106885318D01*
X184105974Y-106921003D01*
X184228997Y-107044026D01*
X184324214Y-107102757D01*
X184363813Y-107149395D01*
X184368436Y-107210406D01*
X184342243Y-107257019D01*
X181238761Y-110360504D01*
X181184244Y-110388281D01*
X181168757Y-110389500D01*
X160092262Y-110389500D01*
X160034071Y-110370593D01*
X159998107Y-110321093D01*
X159993829Y-110279917D01*
X159994091Y-110277483D01*
X160000500Y-110217873D01*
X160000499Y-109222128D01*
X159994091Y-109162517D01*
X159978081Y-109119594D01*
X159975461Y-109058468D01*
X159978076Y-109050420D01*
X159994091Y-109007483D01*
X160000500Y-108947873D01*
X160000499Y-107952128D01*
X159994091Y-107892517D01*
X159978081Y-107849594D01*
X159975461Y-107788468D01*
X159978076Y-107780420D01*
X159994091Y-107737483D01*
X160000500Y-107677873D01*
X160000499Y-106682128D01*
X159994091Y-106622517D01*
X159978081Y-106579594D01*
X159975461Y-106518468D01*
X159978076Y-106510420D01*
X159994091Y-106467483D01*
X160000500Y-106407873D01*
X160000500Y-106250001D01*
X182075000Y-106250001D01*
X182075000Y-106505816D01*
X182085406Y-106607670D01*
X182140095Y-106772712D01*
X182231368Y-106920688D01*
X182354311Y-107043631D01*
X182502287Y-107134904D01*
X182667329Y-107189593D01*
X182769184Y-107200000D01*
X182812499Y-107200000D01*
X182812500Y-107199999D01*
X182812500Y-106250001D01*
X182812499Y-106250000D01*
X182075001Y-106250000D01*
X182075000Y-106250001D01*
X160000500Y-106250001D01*
X160000499Y-105901000D01*
X160000499Y-105412133D01*
X160000499Y-105412128D01*
X159994091Y-105352517D01*
X159978081Y-105309594D01*
X159975461Y-105248468D01*
X159978076Y-105240420D01*
X159994091Y-105197483D01*
X160000500Y-105137873D01*
X160000499Y-104142128D01*
X159994091Y-104082517D01*
X159978081Y-104039594D01*
X159975461Y-103978468D01*
X159978076Y-103970420D01*
X159994091Y-103927483D01*
X160000500Y-103867873D01*
X160000499Y-102872128D01*
X159994091Y-102812517D01*
X159978081Y-102769594D01*
X159975461Y-102708468D01*
X159978076Y-102700420D01*
X159994091Y-102657483D01*
X160000500Y-102597873D01*
X160000499Y-101602128D01*
X160000498Y-101602123D01*
X159994220Y-101543716D01*
X159994091Y-101542517D01*
X159978081Y-101499594D01*
X159975461Y-101438468D01*
X159978076Y-101430420D01*
X159994091Y-101387483D01*
X160000500Y-101327873D01*
X160000499Y-100332128D01*
X159994091Y-100272517D01*
X159978081Y-100229594D01*
X159975461Y-100168468D01*
X159978076Y-100160420D01*
X159994091Y-100117483D01*
X160000500Y-100057873D01*
X160000499Y-99062128D01*
X159994091Y-99002517D01*
X159978081Y-98959594D01*
X159975461Y-98898468D01*
X159978076Y-98890420D01*
X159994091Y-98847483D01*
X160000500Y-98787873D01*
X160000499Y-97792128D01*
X159994091Y-97732517D01*
X159978081Y-97689594D01*
X159975461Y-97628468D01*
X159978076Y-97620420D01*
X159994091Y-97577483D01*
X160000500Y-97517873D01*
X160000499Y-96522128D01*
X159994091Y-96462517D01*
X159978081Y-96419594D01*
X159975461Y-96358468D01*
X159978076Y-96350420D01*
X159994091Y-96307483D01*
X160000500Y-96247873D01*
X160000499Y-95988940D01*
X160019406Y-95930752D01*
X160068906Y-95894788D01*
X160130091Y-95894787D01*
X160169503Y-95918938D01*
G37*
%TD.AperFunction*%
%TA.AperFunction,Conductor*%
G36*
X170008691Y-83578907D02*
G01*
X170044655Y-83628407D01*
X170049500Y-83659000D01*
X170049500Y-84525016D01*
X170059999Y-84627788D01*
X170060000Y-84627795D01*
X170060001Y-84627797D01*
X170115116Y-84794124D01*
X170115187Y-84794336D01*
X170207285Y-84943652D01*
X170207286Y-84943653D01*
X170207288Y-84943656D01*
X170331344Y-85067712D01*
X170480666Y-85159814D01*
X170647203Y-85214999D01*
X170749991Y-85225500D01*
X171350008Y-85225499D01*
X171350011Y-85225499D01*
X171359294Y-85224550D01*
X171372392Y-85223212D01*
X171432203Y-85236105D01*
X171452460Y-85251695D01*
X181569478Y-95368713D01*
X181569480Y-95368716D01*
X181681284Y-95480520D01*
X181681286Y-95480521D01*
X181746565Y-95518210D01*
X181746569Y-95518212D01*
X181746576Y-95518216D01*
X181818215Y-95559577D01*
X181970943Y-95600500D01*
X181979468Y-95600500D01*
X182037659Y-95619407D01*
X182073441Y-95668358D01*
X182115186Y-95794334D01*
X182115187Y-95794336D01*
X182207285Y-95943652D01*
X182207286Y-95943653D01*
X182207288Y-95943656D01*
X182331344Y-96067712D01*
X182480666Y-96159814D01*
X182647203Y-96214999D01*
X182749991Y-96225500D01*
X183350008Y-96225499D01*
X183350011Y-96225499D01*
X183358500Y-96224631D01*
X183372391Y-96223212D01*
X183432201Y-96236105D01*
X183452458Y-96251695D01*
X183585764Y-96385000D01*
X183716684Y-96515920D01*
X183853616Y-96594977D01*
X183853618Y-96594977D01*
X183853619Y-96594978D01*
X183929979Y-96615439D01*
X184006340Y-96635900D01*
X184006342Y-96635901D01*
X184006343Y-96635901D01*
X184170521Y-96635901D01*
X184170537Y-96635900D01*
X185063100Y-96635900D01*
X185121291Y-96654807D01*
X185157255Y-96704307D01*
X185162100Y-96734900D01*
X185162100Y-104700500D01*
X185143193Y-104758691D01*
X185093693Y-104794655D01*
X185063100Y-104799500D01*
X184644149Y-104799500D01*
X184638401Y-104800087D01*
X184578590Y-104787189D01*
X184558339Y-104771603D01*
X181278621Y-101491886D01*
X181278620Y-101491884D01*
X181166816Y-101380080D01*
X181166813Y-101380078D01*
X181076389Y-101327872D01*
X181076386Y-101327871D01*
X181076384Y-101327870D01*
X181029885Y-101301023D01*
X180877157Y-101260099D01*
X180719043Y-101260099D01*
X180712980Y-101260099D01*
X180712964Y-101260100D01*
X167250143Y-101260100D01*
X167191952Y-101241193D01*
X167180139Y-101231104D01*
X160001162Y-94052127D01*
X162599500Y-94052127D01*
X162599501Y-95947872D01*
X162600983Y-95961658D01*
X162605908Y-96007480D01*
X162605909Y-96007485D01*
X162656202Y-96142329D01*
X162735212Y-96247872D01*
X162742454Y-96257546D01*
X162742457Y-96257548D01*
X162742458Y-96257549D01*
X162857670Y-96343797D01*
X162992511Y-96394089D01*
X162992512Y-96394089D01*
X162992517Y-96394091D01*
X163052127Y-96400500D01*
X164947872Y-96400499D01*
X165007483Y-96394091D01*
X165101154Y-96359154D01*
X165142329Y-96343797D01*
X165142329Y-96343796D01*
X165142331Y-96343796D01*
X165257546Y-96257546D01*
X165343796Y-96142331D01*
X165387195Y-96025969D01*
X165425245Y-95978056D01*
X165484192Y-95961658D01*
X165541519Y-95983039D01*
X165549947Y-95990554D01*
X165627635Y-96068242D01*
X165805978Y-96197815D01*
X166002394Y-96297895D01*
X166212049Y-96366015D01*
X166299140Y-96379809D01*
X166429775Y-96400500D01*
X166429778Y-96400500D01*
X166650225Y-96400500D01*
X166759086Y-96383257D01*
X166867951Y-96366015D01*
X167077606Y-96297895D01*
X167274022Y-96197815D01*
X167452365Y-96068242D01*
X167608242Y-95912365D01*
X167737815Y-95734022D01*
X167837895Y-95537606D01*
X167906015Y-95327951D01*
X167931278Y-95168447D01*
X167940500Y-95110225D01*
X167940500Y-94889774D01*
X167906015Y-94672051D01*
X167906015Y-94672049D01*
X167837895Y-94462394D01*
X167737815Y-94265978D01*
X167608242Y-94087635D01*
X167452365Y-93931758D01*
X167274022Y-93802185D01*
X167274021Y-93802184D01*
X167274019Y-93802183D01*
X167156802Y-93742458D01*
X167077606Y-93702105D01*
X167077602Y-93702104D01*
X167077599Y-93702102D01*
X166867948Y-93633984D01*
X166650225Y-93599500D01*
X166650222Y-93599500D01*
X166429778Y-93599500D01*
X166429775Y-93599500D01*
X166212051Y-93633984D01*
X166002400Y-93702102D01*
X165805980Y-93802183D01*
X165729610Y-93857669D01*
X165627635Y-93931758D01*
X165627633Y-93931759D01*
X165627630Y-93931762D01*
X165549956Y-94009436D01*
X165495439Y-94037213D01*
X165435007Y-94027641D01*
X165391743Y-93984377D01*
X165387195Y-93974028D01*
X165343797Y-93857670D01*
X165257549Y-93742458D01*
X165257548Y-93742457D01*
X165257546Y-93742454D01*
X165257541Y-93742450D01*
X165142329Y-93656202D01*
X165007488Y-93605910D01*
X165007483Y-93605909D01*
X165007481Y-93605908D01*
X165007477Y-93605908D01*
X164976249Y-93602550D01*
X164947873Y-93599500D01*
X164947870Y-93599500D01*
X163052133Y-93599500D01*
X163052129Y-93599500D01*
X163052128Y-93599501D01*
X163044949Y-93600272D01*
X162992519Y-93605908D01*
X162992514Y-93605909D01*
X162857670Y-93656202D01*
X162742458Y-93742450D01*
X162742450Y-93742458D01*
X162656202Y-93857670D01*
X162605910Y-93992511D01*
X162605909Y-93992517D01*
X162599500Y-94052127D01*
X160001162Y-94052127D01*
X157751390Y-91802355D01*
X165316300Y-91802355D01*
X165316300Y-91960044D01*
X165347063Y-92114696D01*
X165347063Y-92114698D01*
X165407403Y-92260374D01*
X165407409Y-92260385D01*
X165460112Y-92339259D01*
X165495011Y-92391489D01*
X165606511Y-92502989D01*
X165684676Y-92555217D01*
X165737614Y-92590590D01*
X165737625Y-92590596D01*
X165791438Y-92612885D01*
X165883303Y-92650937D01*
X166037958Y-92681700D01*
X166037959Y-92681700D01*
X166195641Y-92681700D01*
X166195642Y-92681700D01*
X166350297Y-92650937D01*
X166495979Y-92590594D01*
X166627089Y-92502989D01*
X166627090Y-92502987D01*
X166631132Y-92500287D01*
X166632051Y-92501663D01*
X166682632Y-92481871D01*
X166688452Y-92481700D01*
X169389757Y-92481700D01*
X169447948Y-92500607D01*
X169459761Y-92510696D01*
X172317778Y-95368713D01*
X172317780Y-95368716D01*
X172429584Y-95480520D01*
X172429586Y-95480521D01*
X172494868Y-95518212D01*
X172494876Y-95518216D01*
X172550000Y-95550042D01*
X172590941Y-95595511D01*
X172599500Y-95635778D01*
X172599501Y-95947872D01*
X172600983Y-95961658D01*
X172605908Y-96007480D01*
X172605909Y-96007485D01*
X172656202Y-96142329D01*
X172735212Y-96247872D01*
X172742454Y-96257546D01*
X172742457Y-96257548D01*
X172742458Y-96257549D01*
X172857670Y-96343797D01*
X172992511Y-96394089D01*
X172992512Y-96394089D01*
X172992517Y-96394091D01*
X173052127Y-96400500D01*
X174947872Y-96400499D01*
X175007483Y-96394091D01*
X175101154Y-96359154D01*
X175142329Y-96343797D01*
X175142329Y-96343796D01*
X175142331Y-96343796D01*
X175257546Y-96257546D01*
X175343796Y-96142331D01*
X175387195Y-96025969D01*
X175425245Y-95978056D01*
X175484192Y-95961658D01*
X175541519Y-95983039D01*
X175549947Y-95990554D01*
X175627635Y-96068242D01*
X175805978Y-96197815D01*
X176002394Y-96297895D01*
X176212049Y-96366015D01*
X176299140Y-96379809D01*
X176429775Y-96400500D01*
X176429778Y-96400500D01*
X176650225Y-96400500D01*
X176759086Y-96383257D01*
X176867951Y-96366015D01*
X177077606Y-96297895D01*
X177274022Y-96197815D01*
X177452365Y-96068242D01*
X177608242Y-95912365D01*
X177737815Y-95734022D01*
X177837895Y-95537606D01*
X177906015Y-95327951D01*
X177931278Y-95168447D01*
X177940500Y-95110225D01*
X177940500Y-94889774D01*
X177906015Y-94672051D01*
X177906015Y-94672049D01*
X177837895Y-94462394D01*
X177737815Y-94265978D01*
X177608242Y-94087635D01*
X177452365Y-93931758D01*
X177274022Y-93802185D01*
X177274021Y-93802184D01*
X177274019Y-93802183D01*
X177156802Y-93742458D01*
X177077606Y-93702105D01*
X177077602Y-93702104D01*
X177077599Y-93702102D01*
X176867948Y-93633984D01*
X176650225Y-93599500D01*
X176650222Y-93599500D01*
X176429778Y-93599500D01*
X176429775Y-93599500D01*
X176212051Y-93633984D01*
X176002400Y-93702102D01*
X175805980Y-93802183D01*
X175729610Y-93857669D01*
X175627635Y-93931758D01*
X175627633Y-93931759D01*
X175627630Y-93931762D01*
X175549956Y-94009436D01*
X175495439Y-94037213D01*
X175435007Y-94027641D01*
X175391743Y-93984377D01*
X175387195Y-93974028D01*
X175343797Y-93857670D01*
X175257549Y-93742458D01*
X175257548Y-93742457D01*
X175257546Y-93742454D01*
X175257541Y-93742450D01*
X175142329Y-93656202D01*
X175007488Y-93605910D01*
X175007483Y-93605909D01*
X175007481Y-93605908D01*
X175007477Y-93605908D01*
X174976249Y-93602550D01*
X174947873Y-93599500D01*
X174947870Y-93599500D01*
X173052133Y-93599500D01*
X173052129Y-93599500D01*
X173052128Y-93599501D01*
X173044949Y-93600272D01*
X172992519Y-93605908D01*
X172992514Y-93605909D01*
X172857670Y-93656202D01*
X172742458Y-93742450D01*
X172742453Y-93742455D01*
X172660027Y-93852561D01*
X172610018Y-93887813D01*
X172548839Y-93886939D01*
X172510770Y-93863235D01*
X170160021Y-91512486D01*
X170160020Y-91512484D01*
X170048216Y-91400680D01*
X169961404Y-91350560D01*
X169961403Y-91350559D01*
X169911288Y-91321625D01*
X169911285Y-91321623D01*
X169758557Y-91280699D01*
X169600443Y-91280699D01*
X169594380Y-91280699D01*
X169594364Y-91280700D01*
X166688452Y-91280700D01*
X166631152Y-91262082D01*
X166631132Y-91262113D01*
X166631024Y-91262040D01*
X166630261Y-91261793D01*
X166627755Y-91259856D01*
X166495985Y-91171809D01*
X166495974Y-91171803D01*
X166350297Y-91111463D01*
X166195644Y-91080700D01*
X166195642Y-91080700D01*
X166037958Y-91080700D01*
X166037955Y-91080700D01*
X165883303Y-91111463D01*
X165883301Y-91111463D01*
X165737625Y-91171803D01*
X165737614Y-91171809D01*
X165606511Y-91259411D01*
X165606507Y-91259414D01*
X165495014Y-91370907D01*
X165495011Y-91370911D01*
X165407409Y-91502014D01*
X165407403Y-91502025D01*
X165347063Y-91647701D01*
X165347063Y-91647703D01*
X165316300Y-91802355D01*
X157751390Y-91802355D01*
X155484921Y-89535886D01*
X155484920Y-89535884D01*
X155373116Y-89424080D01*
X155286304Y-89373960D01*
X155286303Y-89373959D01*
X155236188Y-89345025D01*
X155236185Y-89345023D01*
X155083457Y-89304099D01*
X154925343Y-89304099D01*
X154919280Y-89304099D01*
X154919264Y-89304100D01*
X131106843Y-89304100D01*
X131048652Y-89285193D01*
X131036839Y-89275104D01*
X125954495Y-84192760D01*
X125926718Y-84138243D01*
X125925499Y-84122756D01*
X125925499Y-83687500D01*
X125944406Y-83629309D01*
X125993906Y-83593345D01*
X126024499Y-83588500D01*
X131019757Y-83588500D01*
X131077948Y-83607407D01*
X131089760Y-83617495D01*
X133045584Y-85573320D01*
X133182516Y-85652377D01*
X133182518Y-85652377D01*
X133182519Y-85652378D01*
X133258879Y-85672839D01*
X133335240Y-85693300D01*
X133335242Y-85693301D01*
X133335243Y-85693301D01*
X133499421Y-85693301D01*
X133499437Y-85693300D01*
X145872064Y-85693300D01*
X145872080Y-85693301D01*
X145878143Y-85693301D01*
X146036256Y-85693301D01*
X146036257Y-85693301D01*
X146188985Y-85652377D01*
X146239104Y-85623439D01*
X146325916Y-85573320D01*
X146437720Y-85461516D01*
X146437721Y-85461513D01*
X146647540Y-85251693D01*
X146702055Y-85223918D01*
X146727599Y-85223212D01*
X146749991Y-85225500D01*
X147350008Y-85225499D01*
X147350016Y-85225499D01*
X147452788Y-85215000D01*
X147452788Y-85214999D01*
X147452797Y-85214999D01*
X147619334Y-85159814D01*
X147768656Y-85067712D01*
X147892712Y-84943656D01*
X147916033Y-84905846D01*
X147962672Y-84866246D01*
X148023682Y-84861622D01*
X148075759Y-84893741D01*
X148084553Y-84905846D01*
X148107679Y-84943339D01*
X148231659Y-85067319D01*
X148380875Y-85159356D01*
X148547306Y-85214506D01*
X148650013Y-85224999D01*
X148700000Y-85224998D01*
X148700000Y-84250001D01*
X149200000Y-84250001D01*
X149200000Y-85224998D01*
X149200001Y-85224999D01*
X149249986Y-85224999D01*
X149352687Y-85214507D01*
X149352699Y-85214504D01*
X149519124Y-85159356D01*
X149668340Y-85067319D01*
X149792319Y-84943340D01*
X149884356Y-84794124D01*
X149939506Y-84627693D01*
X149950000Y-84524987D01*
X149950000Y-84250001D01*
X149949999Y-84250000D01*
X149200001Y-84250000D01*
X149200000Y-84250001D01*
X148700000Y-84250001D01*
X148700000Y-84099000D01*
X148718907Y-84040809D01*
X148768407Y-84004845D01*
X148799000Y-84000000D01*
X148949999Y-84000000D01*
X148950000Y-83999999D01*
X148950000Y-83849000D01*
X148968907Y-83790809D01*
X149018407Y-83754845D01*
X149049000Y-83750000D01*
X149949998Y-83750000D01*
X149949999Y-83749999D01*
X149949999Y-83659100D01*
X149968906Y-83600909D01*
X150018406Y-83564945D01*
X150048999Y-83560100D01*
X157719857Y-83560100D01*
X157778048Y-83579007D01*
X157789861Y-83589096D01*
X158020504Y-83819739D01*
X158048281Y-83874256D01*
X158049500Y-83889743D01*
X158049500Y-84525016D01*
X158059999Y-84627788D01*
X158060000Y-84627795D01*
X158060001Y-84627797D01*
X158115116Y-84794124D01*
X158115187Y-84794336D01*
X158207285Y-84943652D01*
X158207286Y-84943653D01*
X158207288Y-84943656D01*
X158331344Y-85067712D01*
X158480666Y-85159814D01*
X158647203Y-85214999D01*
X158749991Y-85225500D01*
X159350008Y-85225499D01*
X159350016Y-85225499D01*
X159452788Y-85215000D01*
X159452788Y-85214999D01*
X159452797Y-85214999D01*
X159619334Y-85159814D01*
X159768656Y-85067712D01*
X159892712Y-84943656D01*
X159916033Y-84905846D01*
X159962672Y-84866246D01*
X160023682Y-84861622D01*
X160075759Y-84893741D01*
X160084553Y-84905846D01*
X160107679Y-84943339D01*
X160231659Y-85067319D01*
X160380875Y-85159356D01*
X160547306Y-85214506D01*
X160650013Y-85224999D01*
X160700000Y-85224998D01*
X160700000Y-84250001D01*
X161200000Y-84250001D01*
X161200000Y-85224998D01*
X161200001Y-85224999D01*
X161249986Y-85224999D01*
X161352687Y-85214507D01*
X161352699Y-85214504D01*
X161519124Y-85159356D01*
X161668340Y-85067319D01*
X161792319Y-84943340D01*
X161884356Y-84794124D01*
X161939506Y-84627693D01*
X161950000Y-84524987D01*
X161950000Y-84250001D01*
X161949999Y-84250000D01*
X161200001Y-84250000D01*
X161200000Y-84250001D01*
X160700000Y-84250001D01*
X160700000Y-84099000D01*
X160718907Y-84040809D01*
X160768407Y-84004845D01*
X160799000Y-84000000D01*
X160949999Y-84000000D01*
X160950000Y-83999999D01*
X160950000Y-83849000D01*
X160968907Y-83790809D01*
X161018407Y-83754845D01*
X161049000Y-83750000D01*
X161949998Y-83750000D01*
X161949999Y-83749999D01*
X161949999Y-83659000D01*
X161968906Y-83600809D01*
X162018406Y-83564845D01*
X162048999Y-83560000D01*
X169950500Y-83560000D01*
X170008691Y-83578907D01*
G37*
%TD.AperFunction*%
%TA.AperFunction,Conductor*%
G36*
X171819504Y-74257039D02*
G01*
X181931178Y-84368713D01*
X181931180Y-84368716D01*
X182020533Y-84458069D01*
X182048309Y-84512584D01*
X182049400Y-84523029D01*
X182049501Y-84525023D01*
X182059999Y-84627788D01*
X182060000Y-84627795D01*
X182060001Y-84627797D01*
X182115116Y-84794124D01*
X182115187Y-84794336D01*
X182207285Y-84943652D01*
X182207286Y-84943653D01*
X182207288Y-84943656D01*
X182331344Y-85067712D01*
X182480666Y-85159814D01*
X182647203Y-85214999D01*
X182749991Y-85225500D01*
X183350008Y-85225499D01*
X183350011Y-85225499D01*
X183358500Y-85224631D01*
X183372391Y-85223212D01*
X183432201Y-85236105D01*
X183452458Y-85251695D01*
X183654126Y-85453362D01*
X183813984Y-85613220D01*
X183950916Y-85692277D01*
X183950918Y-85692277D01*
X183950919Y-85692278D01*
X184027279Y-85712739D01*
X184103640Y-85733200D01*
X184103642Y-85733201D01*
X184103643Y-85733201D01*
X184267821Y-85733201D01*
X184267837Y-85733200D01*
X186469757Y-85733200D01*
X186527948Y-85752107D01*
X186539761Y-85762196D01*
X194476918Y-93699353D01*
X194504695Y-93753870D01*
X194495124Y-93814302D01*
X194458887Y-93853617D01*
X194331348Y-93932284D01*
X194207285Y-94056347D01*
X194115187Y-94205663D01*
X194060000Y-94372205D01*
X194049500Y-94474983D01*
X194049500Y-95110256D01*
X194030593Y-95168447D01*
X194020504Y-95180259D01*
X193951622Y-95249142D01*
X193839172Y-95361593D01*
X193794862Y-95405903D01*
X193740345Y-95433681D01*
X193724858Y-95434900D01*
X186049000Y-95434900D01*
X185990809Y-95415993D01*
X185954845Y-95366493D01*
X185950000Y-95335900D01*
X185950000Y-95250001D01*
X185949999Y-95250000D01*
X185049000Y-95250000D01*
X184990809Y-95231093D01*
X184954845Y-95181593D01*
X184950000Y-95151000D01*
X184950000Y-95000001D01*
X184949999Y-95000000D01*
X184799000Y-95000000D01*
X184740809Y-94981093D01*
X184704845Y-94931593D01*
X184700000Y-94901000D01*
X184700000Y-93775001D01*
X185200000Y-93775001D01*
X185200000Y-94749999D01*
X185200001Y-94750000D01*
X185949998Y-94750000D01*
X185949999Y-94749999D01*
X185949999Y-94475013D01*
X185939507Y-94372312D01*
X185939504Y-94372300D01*
X185884356Y-94205875D01*
X185792319Y-94056659D01*
X185668340Y-93932680D01*
X185519124Y-93840643D01*
X185352693Y-93785493D01*
X185249987Y-93775000D01*
X185200001Y-93775000D01*
X185200000Y-93775001D01*
X184700000Y-93775001D01*
X184700000Y-93774999D01*
X184650015Y-93775000D01*
X184650012Y-93775001D01*
X184547312Y-93785492D01*
X184547300Y-93785495D01*
X184380875Y-93840643D01*
X184231659Y-93932680D01*
X184107680Y-94056659D01*
X184084553Y-94094154D01*
X184037911Y-94133754D01*
X183976901Y-94138377D01*
X183924825Y-94106255D01*
X183916032Y-94094152D01*
X183892714Y-94056347D01*
X183892713Y-94056346D01*
X183892712Y-94056344D01*
X183768656Y-93932288D01*
X183768653Y-93932286D01*
X183768652Y-93932285D01*
X183619336Y-93840187D01*
X183619335Y-93840186D01*
X183619334Y-93840186D01*
X183452797Y-93785001D01*
X183452794Y-93785000D01*
X183350016Y-93774500D01*
X182749983Y-93774500D01*
X182647211Y-93784999D01*
X182647199Y-93785002D01*
X182480663Y-93840187D01*
X182331347Y-93932285D01*
X182207284Y-94056348D01*
X182176991Y-94105461D01*
X182130350Y-94145062D01*
X182069339Y-94149685D01*
X182022727Y-94123492D01*
X173283207Y-85383972D01*
X173255430Y-85329455D01*
X173265001Y-85269023D01*
X173308266Y-85225758D01*
X173343153Y-85215480D01*
X173352695Y-85214505D01*
X173352699Y-85214504D01*
X173519124Y-85159356D01*
X173668340Y-85067319D01*
X173792319Y-84943340D01*
X173884356Y-84794124D01*
X173939506Y-84627693D01*
X173950000Y-84524987D01*
X173950000Y-84250001D01*
X173949999Y-84250000D01*
X173049000Y-84250000D01*
X172990809Y-84231093D01*
X172954845Y-84181593D01*
X172950000Y-84151000D01*
X172950000Y-84000001D01*
X172949999Y-84000000D01*
X172799000Y-84000000D01*
X172740809Y-83981093D01*
X172704845Y-83931593D01*
X172700000Y-83901000D01*
X172700000Y-82775001D01*
X173200000Y-82775001D01*
X173200000Y-83749999D01*
X173200001Y-83750000D01*
X173949998Y-83750000D01*
X173949999Y-83749999D01*
X173949999Y-83475011D01*
X173939507Y-83372312D01*
X173939504Y-83372300D01*
X173884356Y-83205875D01*
X173792319Y-83056659D01*
X173668340Y-82932680D01*
X173519124Y-82840643D01*
X173352693Y-82785493D01*
X173249987Y-82775000D01*
X173200001Y-82775000D01*
X173200000Y-82775001D01*
X172700000Y-82775001D01*
X172700000Y-82774999D01*
X172650015Y-82775000D01*
X172650012Y-82775001D01*
X172547312Y-82785492D01*
X172547300Y-82785495D01*
X172380875Y-82840643D01*
X172231659Y-82932680D01*
X172107680Y-83056659D01*
X172084553Y-83094154D01*
X172037911Y-83133754D01*
X171976901Y-83138377D01*
X171924825Y-83106255D01*
X171916032Y-83094152D01*
X171892714Y-83056347D01*
X171892713Y-83056346D01*
X171892712Y-83056344D01*
X171768656Y-82932288D01*
X171768653Y-82932286D01*
X171768651Y-82932284D01*
X171697527Y-82888414D01*
X171657926Y-82841773D01*
X171650500Y-82804154D01*
X171650500Y-74327043D01*
X171669407Y-74268852D01*
X171718907Y-74232888D01*
X171780093Y-74232888D01*
X171819504Y-74257039D01*
G37*
%TD.AperFunction*%
%TA.AperFunction,Conductor*%
G36*
X148097891Y-47714407D02*
G01*
X148133855Y-47763907D01*
X148138700Y-47794500D01*
X148138700Y-48881063D01*
X148138699Y-48881081D01*
X148138699Y-48887143D01*
X148138699Y-49045257D01*
X148172300Y-49170656D01*
X148179623Y-49197985D01*
X148179624Y-49197987D01*
X148194931Y-49224498D01*
X148194932Y-49224501D01*
X148248292Y-49316923D01*
X148258680Y-49334916D01*
X148370484Y-49446720D01*
X148370486Y-49446721D01*
X148557919Y-49634154D01*
X148585696Y-49688671D01*
X148582984Y-49731776D01*
X148577291Y-49751373D01*
X148574621Y-49785307D01*
X148574500Y-49786842D01*
X148574500Y-50163158D01*
X148577221Y-50197737D01*
X148562935Y-50257231D01*
X148516408Y-50296966D01*
X148478526Y-50304500D01*
X143921497Y-50304500D01*
X143863306Y-50285593D01*
X143827342Y-50236093D01*
X143827342Y-50174907D01*
X143836283Y-50155105D01*
X143901281Y-50045197D01*
X143947098Y-49887493D01*
X143947100Y-49887486D01*
X143947296Y-49885000D01*
X141002704Y-49885000D01*
X141002899Y-49887486D01*
X141002901Y-49887493D01*
X141048719Y-50045200D01*
X141048719Y-50045201D01*
X141132314Y-50186552D01*
X141145404Y-50199642D01*
X141173181Y-50254159D01*
X141163610Y-50314591D01*
X141145406Y-50339648D01*
X141131919Y-50353135D01*
X141048256Y-50494602D01*
X141002403Y-50652427D01*
X141002401Y-50652434D01*
X141000486Y-50676773D01*
X141000044Y-50682400D01*
X140999500Y-50689311D01*
X140999500Y-51120688D01*
X141002401Y-51157565D01*
X141002401Y-51157568D01*
X141002402Y-51157569D01*
X141048256Y-51315398D01*
X141131919Y-51456865D01*
X141248135Y-51573081D01*
X141389602Y-51656744D01*
X141547431Y-51702598D01*
X141584306Y-51705500D01*
X141584311Y-51705500D01*
X143365689Y-51705500D01*
X143365694Y-51705500D01*
X143402569Y-51702598D01*
X143560398Y-51656744D01*
X143701865Y-51573081D01*
X143724517Y-51550429D01*
X143740451Y-51534496D01*
X143794968Y-51506719D01*
X143810454Y-51505500D01*
X148872364Y-51505500D01*
X148872380Y-51505501D01*
X148878443Y-51505501D01*
X149036555Y-51505501D01*
X149036557Y-51505501D01*
X149189285Y-51464577D01*
X149248507Y-51430385D01*
X149248509Y-51430383D01*
X149248511Y-51430383D01*
X149271594Y-51417055D01*
X149326216Y-51385520D01*
X149438020Y-51273716D01*
X149438020Y-51273714D01*
X149446170Y-51265565D01*
X149446171Y-51265562D01*
X149817497Y-50894237D01*
X149872012Y-50866461D01*
X149932444Y-50876032D01*
X149957503Y-50894238D01*
X151741861Y-52678596D01*
X151769638Y-52733113D01*
X151760067Y-52793545D01*
X151716802Y-52836810D01*
X151671857Y-52847600D01*
X140357844Y-52847600D01*
X140299653Y-52828693D01*
X140287840Y-52818604D01*
X138943942Y-51474706D01*
X138916165Y-51420189D01*
X138925736Y-51359757D01*
X138928723Y-51354323D01*
X138951744Y-51315398D01*
X138997598Y-51157569D01*
X139000500Y-51120694D01*
X139000500Y-50689306D01*
X138997598Y-50652431D01*
X138951744Y-50494602D01*
X138868081Y-50353135D01*
X138854593Y-50339647D01*
X138826818Y-50285133D01*
X138836389Y-50224701D01*
X138854599Y-50199638D01*
X138867684Y-50186553D01*
X138951280Y-50045201D01*
X138951280Y-50045200D01*
X138997098Y-49887493D01*
X138997100Y-49887486D01*
X138997296Y-49885000D01*
X137624000Y-49885000D01*
X137565809Y-49866093D01*
X137529845Y-49816593D01*
X137525000Y-49786000D01*
X137525000Y-49484000D01*
X137543907Y-49425809D01*
X137593407Y-49389845D01*
X137624000Y-49385000D01*
X138997295Y-49385000D01*
X138997100Y-49382513D01*
X138997098Y-49382506D01*
X138951280Y-49224799D01*
X138951280Y-49224798D01*
X138867685Y-49083447D01*
X138854595Y-49070357D01*
X138826818Y-49015840D01*
X138836389Y-48955408D01*
X138854596Y-48930349D01*
X138868081Y-48916865D01*
X138951744Y-48775398D01*
X138997598Y-48617569D01*
X139000500Y-48580694D01*
X139000500Y-48429500D01*
X139019407Y-48371309D01*
X139068907Y-48335345D01*
X139099500Y-48330500D01*
X140900500Y-48330500D01*
X140958691Y-48349407D01*
X140994655Y-48398907D01*
X140999500Y-48429500D01*
X140999500Y-48580688D01*
X141002401Y-48617565D01*
X141002401Y-48617568D01*
X141002402Y-48617569D01*
X141048256Y-48775398D01*
X141131919Y-48916865D01*
X141145405Y-48930351D01*
X141173181Y-48984866D01*
X141163610Y-49045298D01*
X141145406Y-49070355D01*
X141132314Y-49083447D01*
X141048719Y-49224798D01*
X141048719Y-49224799D01*
X141002901Y-49382506D01*
X141002899Y-49382513D01*
X141002704Y-49385000D01*
X143947295Y-49385000D01*
X143947100Y-49382513D01*
X143947098Y-49382506D01*
X143901280Y-49224799D01*
X143901280Y-49224798D01*
X143817685Y-49083447D01*
X143804595Y-49070357D01*
X143776818Y-49015840D01*
X143786389Y-48955408D01*
X143804596Y-48930349D01*
X143818081Y-48916865D01*
X143901744Y-48775398D01*
X143947598Y-48617569D01*
X143950500Y-48580694D01*
X143950500Y-48149306D01*
X143947598Y-48112431D01*
X143901744Y-47954602D01*
X143885592Y-47927291D01*
X143836864Y-47844895D01*
X143823516Y-47785183D01*
X143847816Y-47729030D01*
X143900481Y-47697884D01*
X143922077Y-47695500D01*
X148039700Y-47695500D01*
X148097891Y-47714407D01*
G37*
%TD.AperFunction*%
%TA.AperFunction,Conductor*%
G36*
X113958691Y-45526507D02*
G01*
X113994655Y-45576007D01*
X113999500Y-45606600D01*
X113999500Y-45770688D01*
X114002401Y-45807565D01*
X114002401Y-45807568D01*
X114002402Y-45807569D01*
X114048256Y-45965398D01*
X114131919Y-46106865D01*
X114143804Y-46118750D01*
X114145052Y-46119998D01*
X114172828Y-46174516D01*
X114163254Y-46234948D01*
X114145052Y-46260002D01*
X114131919Y-46273135D01*
X114048256Y-46414602D01*
X114002403Y-46572427D01*
X114002401Y-46572434D01*
X113999500Y-46609311D01*
X113999500Y-46793200D01*
X113980593Y-46851391D01*
X113931093Y-46887355D01*
X113900500Y-46892200D01*
X112099500Y-46892200D01*
X112041309Y-46873293D01*
X112005345Y-46823793D01*
X112000500Y-46793200D01*
X112000500Y-46609311D01*
X111999428Y-46595694D01*
X111997598Y-46572431D01*
X111951744Y-46414602D01*
X111868081Y-46273135D01*
X111854593Y-46259647D01*
X111826818Y-46205133D01*
X111836389Y-46144701D01*
X111854599Y-46119638D01*
X111867684Y-46106553D01*
X111951280Y-45965201D01*
X111951280Y-45965200D01*
X111997098Y-45807493D01*
X111997100Y-45807486D01*
X111997296Y-45805000D01*
X109052704Y-45805000D01*
X109052899Y-45807486D01*
X109052901Y-45807493D01*
X109098719Y-45965200D01*
X109098719Y-45965201D01*
X109182314Y-46106552D01*
X109195404Y-46119642D01*
X109223181Y-46174159D01*
X109213610Y-46234591D01*
X109195406Y-46259648D01*
X109181919Y-46273135D01*
X109098256Y-46414602D01*
X109052403Y-46572427D01*
X109052401Y-46572434D01*
X109049500Y-46609311D01*
X109049500Y-47030356D01*
X109030593Y-47088547D01*
X109020504Y-47100360D01*
X108878986Y-47241878D01*
X108878984Y-47241880D01*
X108878983Y-47241879D01*
X108767180Y-47353682D01*
X108721584Y-47432656D01*
X108721585Y-47432657D01*
X108706090Y-47459496D01*
X108688123Y-47490615D01*
X108647199Y-47643343D01*
X108647199Y-47643345D01*
X108647199Y-47809431D01*
X108647200Y-47809444D01*
X108647200Y-48408963D01*
X108647199Y-48408981D01*
X108647199Y-48415043D01*
X108647199Y-48573157D01*
X108684346Y-48711788D01*
X108688124Y-48725888D01*
X108712562Y-48768214D01*
X108712563Y-48768217D01*
X108765903Y-48860605D01*
X108767180Y-48862816D01*
X108878984Y-48974620D01*
X108878986Y-48974621D01*
X108970378Y-49066013D01*
X108970380Y-49066016D01*
X109020505Y-49116141D01*
X109048281Y-49170656D01*
X109049500Y-49186143D01*
X109049500Y-49580688D01*
X109052401Y-49617565D01*
X109052401Y-49617568D01*
X109052402Y-49617569D01*
X109097381Y-49772387D01*
X109098257Y-49775400D01*
X109098257Y-49775401D01*
X109163136Y-49885105D01*
X109165555Y-49895930D01*
X109172078Y-49904907D01*
X109172078Y-49925106D01*
X109176484Y-49944817D01*
X109172078Y-49954998D01*
X109172078Y-49966093D01*
X109160205Y-49982434D01*
X109152184Y-50000970D01*
X109142635Y-50006616D01*
X109136114Y-50015593D01*
X109116903Y-50021834D01*
X109099519Y-50032116D01*
X109077923Y-50034500D01*
X108983043Y-50034500D01*
X108924852Y-50015593D01*
X108913039Y-50005504D01*
X106878821Y-47971286D01*
X106878820Y-47971284D01*
X106767016Y-47859480D01*
X106741754Y-47844895D01*
X106671367Y-47804257D01*
X106671364Y-47804256D01*
X106666521Y-47801460D01*
X106650725Y-47792340D01*
X106630087Y-47780424D01*
X106630086Y-47780423D01*
X106630085Y-47780423D01*
X106477357Y-47739499D01*
X106396671Y-47739499D01*
X106338480Y-47720592D01*
X106302516Y-47671092D01*
X106299573Y-47621185D01*
X106319999Y-47518493D01*
X106320000Y-47518490D01*
X106320000Y-47120001D01*
X106319999Y-47120000D01*
X105620000Y-47120000D01*
X105620000Y-46620000D01*
X106319999Y-46620000D01*
X106320000Y-46619999D01*
X106320000Y-46221509D01*
X106319999Y-46221506D01*
X106281570Y-46028311D01*
X106281570Y-46028309D01*
X106206191Y-45846326D01*
X106206185Y-45846314D01*
X106096750Y-45682537D01*
X106096747Y-45682533D01*
X106090818Y-45676604D01*
X106063041Y-45622087D01*
X106072612Y-45561655D01*
X106115877Y-45518390D01*
X106160822Y-45507600D01*
X113900500Y-45507600D01*
X113958691Y-45526507D01*
G37*
%TD.AperFunction*%
%TD*%
M02*
